<?xml version="1.0" encoding="utf-8"?>
<!-- Generator: Adobe Illustrator 27.5.0, SVG Export Plug-In . SVG Version: 6.00 Build 0)  -->
<svg version="1.1" xmlns="http://www.w3.org/2000/svg" xmlns:xlink="http://www.w3.org/1999/xlink" x="0px" y="0px"
	 viewBox="0 0 500 500" style="enable-background:new 0 0 500 500;" xml:space="preserve">
<g id="BACKGROUND">
	<rect style="fill:#C8D8E5;" width="500" height="500"/>
</g>
<g id="OBJECTS">
	<g>
		<g>
			<g>
				<g>
					<path style="fill:#DFE8EF;" d="M457.933,215.385h-1.08h-0.316c-1.304,0-1.959-1.578-1.034-2.503l0.221-0.221l0.765-0.768
						c0.574-0.571,0.574-1.502,0-2.073l-1.708-1.708c-0.57-0.574-1.502-0.574-2.073,0l-0.768,0.768l-0.221,0.221
						c-0.924,0.92-2.503,0.266-2.503-1.038v-0.316v-1.08c0-0.81-0.658-1.468-1.468-1.468h-2.411c-0.81,0-1.468,0.658-1.468,1.468
						v1.08v0.316c0,1.305-1.578,1.959-2.503,1.038l-0.221-0.221l-0.768-0.768c-0.574-0.574-1.502-0.574-2.073,0l-1.708,1.708
						c-0.574,0.57-0.574,1.502,0,2.073l0.765,0.768l0.221,0.221c0.924,0.924,0.27,2.503-1.034,2.503h-0.316h-1.08
						c-0.81,0-1.468,0.658-1.468,1.468v2.415c0,0.81,0.658,1.464,1.468,1.464h1.08h0.316c1.305,0,1.959,1.582,1.034,2.503
						l-0.221,0.221l-0.765,0.768c-0.574,0.574-0.574,1.502,0,2.073l1.708,1.708c0.571,0.574,1.499,0.574,2.073,0l0.768-0.764
						l0.221-0.221c0.924-0.924,2.503-0.27,2.503,1.035v0.316v1.08c0,0.81,0.658,1.468,1.468,1.468h2.411
						c0.81,0,1.468-0.658,1.468-1.468v-1.08v-0.316c0-1.305,1.578-1.959,2.503-1.035l0.221,0.221l0.768,0.764
						c0.57,0.574,1.502,0.574,2.073,0l1.708-1.708c0.574-0.57,0.574-1.498,0-2.073l-0.765-0.768l-0.221-0.221
						c-0.924-0.92-0.27-2.503,1.034-2.503h0.316h1.08c0.81,0,1.468-0.654,1.468-1.464v-2.415
						C459.401,216.043,458.743,215.385,457.933,215.385z M446.542,224.994c-3.83,0-6.935-3.105-6.935-6.935
						c0-3.83,3.105-6.935,6.935-6.935c3.83,0,6.935,3.105,6.935,6.935C453.477,221.889,450.372,224.994,446.542,224.994z"/>
				</g>
			</g>
			<g>
				<g>
					<path style="fill:#DFE8EF;" d="M440.312,163.747h-2.474c-0.573-2.215-1.454-4.306-2.588-6.23l1.754-1.754
						c1.31-1.31,1.31-3.434,0-4.744l-3.905-3.905c-1.31-1.31-3.434-1.31-4.744,0l-1.754,1.754c-1.924-1.134-4.014-2.015-6.23-2.588
						v-2.474c0-1.853-1.502-3.355-3.355-3.355h-5.523c-1.853,0-3.355,1.502-3.355,3.355v2.474c-2.216,0.573-4.306,1.454-6.23,2.588
						l-1.754-1.754c-1.31-1.31-3.434-1.31-4.744,0l-3.905,3.905c-1.31,1.31-1.31,3.434,0,4.744l1.754,1.754
						c-1.134,1.924-2.015,4.014-2.588,6.23h-2.474c-1.853,0-3.355,1.502-3.355,3.355v5.523c0,1.853,1.502,3.355,3.355,3.355h2.474
						c0.573,2.215,1.454,4.306,2.588,6.23l-1.754,1.754c-1.31,1.31-1.31,3.434,0,4.744l3.905,3.905c1.31,1.31,3.434,1.31,4.744,0
						l1.754-1.754c1.924,1.134,4.014,2.015,6.23,2.588v2.474c0,1.853,1.502,3.355,3.355,3.355h5.523
						c1.853,0,3.355-1.502,3.355-3.355v-2.474c2.216-0.573,4.306-1.454,6.23-2.588l1.754,1.754c1.31,1.31,3.434,1.31,4.744,0
						l3.905-3.905c1.31-1.31,1.31-3.434,0-4.744l-1.754-1.754c1.134-1.924,2.015-4.014,2.588-6.23h2.474
						c1.853,0,3.355-1.502,3.355-3.355v-5.523C443.667,165.249,442.165,163.747,440.312,163.747z M394.262,169.863
						c0-11.042,8.952-19.994,19.994-19.994c11.042,0,19.994,8.951,19.994,19.994s-8.951,19.994-19.994,19.994
						C403.214,189.856,394.262,180.905,394.262,169.863z"/>
				</g>
			</g>
			<g>
				<g>
					<path style="fill:#DFE8EF;" d="M123.084,395.57h-2.785c-0.645-2.494-1.637-4.848-2.913-7.014l1.975-1.975
						c1.475-1.475,1.475-3.866,0-5.341l-4.396-4.396c-1.475-1.475-3.866-1.475-5.341,0l-1.975,1.975
						c-2.166-1.276-4.519-2.268-7.014-2.913v-2.785c0-2.086-1.691-3.776-3.777-3.776h-6.217c-2.086,0-3.777,1.691-3.777,3.776v2.785
						c-2.494,0.645-4.848,1.637-7.013,2.913l-1.975-1.975c-1.475-1.475-3.866-1.475-5.341,0l-4.396,4.396
						c-1.475,1.475-1.475,3.866,0,5.341l1.975,1.975c-1.276,2.166-2.268,4.519-2.913,7.014h-2.785c-2.086,0-3.777,1.691-3.777,3.777
						v6.217c0,2.086,1.691,3.777,3.777,3.777h2.785c0.645,2.494,1.637,4.848,2.913,7.014l-1.975,1.975
						c-1.475,1.475-1.475,3.866,0,5.341l4.396,4.396c1.475,1.475,3.866,1.475,5.341,0l1.975-1.975
						c2.166,1.276,4.519,2.268,7.013,2.913v2.785c0,2.086,1.691,3.777,3.777,3.777h6.217c2.086,0,3.777-1.691,3.777-3.777v-2.785
						c2.494-0.645,4.848-1.637,7.014-2.913l1.975,1.975c1.475,1.475,3.866,1.475,5.341,0l4.396-4.396
						c1.475-1.475,1.475-3.866,0-5.341l-1.975-1.975c1.276-2.166,2.268-4.519,2.913-7.014h2.785c2.086,0,3.777-1.691,3.777-3.777
						v-6.217C126.861,397.261,125.17,395.57,123.084,395.57z M71.241,402.456c0-12.431,10.078-22.509,22.509-22.509
						c12.431,0,22.509,10.078,22.509,22.509c0,12.431-10.078,22.509-22.509,22.509C81.319,424.965,71.241,414.887,71.241,402.456z"
						/>
				</g>
			</g>
			<g>
				<g>
					<path style="fill:#DFE8EF;" d="M101.387,162.115h-3.139h-0.917c-3.791,0-5.691-4.586-3.006-7.272l0.641-0.641l2.221-2.232
						c1.669-1.658,1.669-4.365,0-6.023l-4.962-4.962c-1.658-1.669-4.365-1.669-6.023,0l-2.232,2.232l-0.641,0.641
						c-2.686,2.675-7.272,0.774-7.272-3.017v-0.917v-3.139c0-2.354-1.912-4.266-4.266-4.266h-7.007
						c-2.354,0-4.266,1.912-4.266,4.266v3.139v0.917c0,3.791-4.586,5.692-7.272,3.017l-0.641-0.641l-2.232-2.232
						c-1.669-1.669-4.365-1.669-6.023,0l-4.962,4.962c-1.669,1.658-1.669,4.365,0,6.023l2.221,2.232l0.641,0.641
						c2.686,2.686,0.785,7.272-3.006,7.272h-0.917h-3.139c-2.354,0-4.266,1.912-4.266,4.266v7.018c0,2.354,1.912,4.255,4.266,4.255
						h3.139h0.917c3.791,0,5.692,4.597,3.006,7.272l-0.641,0.641l-2.221,2.232c-1.669,1.669-1.669,4.365,0,6.023l4.962,4.962
						c1.658,1.669,4.354,1.669,6.023,0l2.232-2.221l0.641-0.641c2.686-2.686,7.272-0.785,7.272,3.006v0.917v3.139
						c0,2.354,1.912,4.266,4.266,4.266h7.007c2.354,0,4.266-1.912,4.266-4.266v-3.139v-0.917c0-3.791,4.587-5.691,7.272-3.006
						l0.641,0.641l2.232,2.221c1.658,1.669,4.365,1.669,6.023,0l4.962-4.962c1.669-1.658,1.669-4.354,0-6.023l-2.221-2.232
						l-0.641-0.641c-2.685-2.674-0.785-7.272,3.006-7.272h0.917h3.139c2.354,0,4.266-1.901,4.266-4.255v-7.018
						C105.653,164.026,103.741,162.115,101.387,162.115z M68.287,190.036c-11.129,0-20.151-9.022-20.151-20.151
						c0-11.129,9.022-20.151,20.151-20.151c11.129,0,20.151,9.022,20.151,20.151C88.438,181.014,79.416,190.036,68.287,190.036z"/>
				</g>
			</g>
			<g>
				<g>
					<path style="fill:#DFE8EF;" d="M451.006,74.643h-2.879h-0.841c-3.477,0-5.221-4.207-2.757-6.671l0.588-0.588l2.038-2.048
						c1.531-1.521,1.531-4.004,0-5.525l-4.552-4.552c-1.521-1.531-4.004-1.531-5.525,0l-2.048,2.048l-0.588,0.588
						c-2.464,2.453-6.671,0.71-6.671-2.768v-0.841v-2.879c0-2.159-1.754-3.913-3.913-3.913h-6.427c-2.159,0-3.913,1.754-3.913,3.913
						v2.879v0.841c0,3.477-4.207,5.221-6.67,2.768l-0.588-0.588l-2.048-2.048c-1.531-1.531-4.004-1.531-5.525,0l-4.552,4.552
						c-1.531,1.521-1.531,4.004,0,5.525l2.038,2.048l0.588,0.588c2.463,2.463,0.72,6.671-2.758,6.671h-0.841h-2.879
						c-2.159,0-3.913,1.754-3.913,3.913v6.438c0,2.159,1.754,3.903,3.913,3.903h2.879h0.841c3.477,0,5.221,4.217,2.758,6.671
						l-0.588,0.588l-2.038,2.048c-1.531,1.531-1.531,4.004,0,5.525l4.552,4.552c1.521,1.531,3.994,1.531,5.525,0l2.048-2.038
						l0.588-0.588c2.463-2.464,6.67-0.72,6.67,2.757v0.841v2.879c0,2.159,1.754,3.913,3.913,3.913h6.427
						c2.159,0,3.913-1.754,3.913-3.913v-2.879v-0.841c0-3.477,4.207-5.221,6.671-2.757l0.588,0.588l2.048,2.038
						c1.521,1.531,4.004,1.531,5.525,0l4.552-4.552c1.531-1.521,1.531-3.994,0-5.525l-2.038-2.048l-0.588-0.588
						c-2.464-2.453-0.72-6.671,2.757-6.671h0.841h2.879c2.159,0,3.913-1.744,3.913-3.903v-6.438
						C454.919,76.397,453.165,74.643,451.006,74.643z M420.643,100.256c-10.209,0-18.484-8.276-18.484-18.484
						s8.276-18.485,18.484-18.485c10.209,0,18.484,8.276,18.484,18.485S430.852,100.256,420.643,100.256z"/>
				</g>
			</g>
			<g>
				<g>
					<path style="fill:#DFE8EF;" d="M465.352,370.152h-2.772h-0.81c-3.348,0-5.027-4.051-2.655-6.423l0.566-0.566l1.962-1.972
						c1.474-1.464,1.474-3.856,0-5.32l-4.383-4.383c-1.464-1.474-3.855-1.474-5.32,0l-1.972,1.972l-0.566,0.566
						c-2.372,2.362-6.423,0.683-6.423-2.665v-0.81v-2.772c0-2.079-1.689-3.768-3.768-3.768h-6.188c-2.079,0-3.768,1.689-3.768,3.768
						v2.772v0.81c0,3.348-4.051,5.027-6.423,2.665l-0.566-0.566l-1.972-1.972c-1.474-1.474-3.855-1.474-5.32,0l-4.383,4.383
						c-1.474,1.464-1.474,3.855,0,5.32l1.962,1.972l0.566,0.566c2.372,2.372,0.693,6.423-2.655,6.423h-0.81h-2.772
						c-2.079,0-3.768,1.689-3.768,3.768v6.198c0,2.079,1.689,3.758,3.768,3.758h2.772h0.81c3.348,0,5.027,4.061,2.655,6.423
						l-0.566,0.566l-1.962,1.972c-1.474,1.474-1.474,3.855,0,5.32l4.383,4.383c1.464,1.474,3.846,1.474,5.32,0l1.972-1.962
						l0.566-0.566c2.372-2.372,6.423-0.693,6.423,2.655v0.81v2.772c0,2.079,1.689,3.768,3.768,3.768h6.188
						c2.079,0,3.768-1.689,3.768-3.768v-2.772v-0.81c0-3.348,4.051-5.027,6.423-2.655l0.566,0.566l1.972,1.962
						c1.464,1.474,3.855,1.474,5.32,0l4.383-4.383c1.474-1.464,1.474-3.846,0-5.32l-1.962-1.972l-0.566-0.566
						c-2.372-2.362-0.693-6.423,2.655-6.423h0.81h2.772c2.079,0,3.768-1.679,3.768-3.758v-6.198
						C469.12,371.841,467.431,370.152,465.352,370.152z M436.118,394.813c-9.829,0-17.797-7.968-17.797-17.797
						c0-9.829,7.968-17.797,17.797-17.797c9.829,0,17.797,7.968,17.797,17.797C453.915,386.844,445.947,394.813,436.118,394.813z"/>
				</g>
			</g>
			<g>
				<path style="fill:#DFE8EF;" d="M319.373,432.431v-14.722h-7.016c-0.691-2.66-1.749-5.183-3.12-7.497l4.974-4.963l-10.419-10.419
					l-4.963,4.974c-2.314-1.361-4.827-2.429-7.497-3.12v-7.016H276.61v7.016c-2.67,0.691-5.183,1.759-7.497,3.12l-4.974-4.974
					l-10.408,10.419l4.963,4.963c-1.361,2.314-2.419,4.838-3.11,7.497h-7.016v14.722h7.016c0.691,2.67,1.749,5.183,3.11,7.497
					l-4.963,4.974l10.408,10.408l4.974-4.963c2.314,1.361,4.827,2.419,7.497,3.11v7.016h14.722v-7.016
					c2.67-0.691,5.183-1.749,7.497-3.11l4.963,4.963l10.419-10.408l-4.974-4.974c1.372-2.314,2.429-4.827,3.12-7.497H319.373z
					 M283.971,440.347c-8.44,0-15.277-6.838-15.277-15.277c0-8.429,6.838-15.267,15.277-15.267c8.429,0,15.267,6.838,15.267,15.267
					C299.238,433.509,292.4,440.347,283.971,440.347z"/>
			</g>
			<g>
				<path style="fill:#DFE8EF;" d="M125.268,78.226V63.692h-6.925c-0.682-2.625-1.726-5.117-3.08-7.401l4.91-4.899l-10.285-10.285
					l-4.9,4.91c-2.284-1.344-4.765-2.398-7.401-3.08v-6.925H83.054v6.925c-2.636,0.682-5.117,1.737-7.401,3.08l-4.91-4.91
					L60.468,51.392l4.9,4.899c-1.344,2.285-2.388,4.776-3.07,7.401h-6.926v14.533h6.926c0.682,2.636,1.726,5.117,3.07,7.401
					l-4.9,4.91l10.275,10.275l4.91-4.899c2.284,1.344,4.765,2.388,7.401,3.07v6.926h14.533v-6.926
					c2.636-0.682,5.117-1.726,7.401-3.07l4.9,4.899l10.285-10.275l-4.91-4.91c1.354-2.284,2.398-4.765,3.08-7.401H125.268z
					 M90.32,86.04c-8.331,0-15.081-6.75-15.081-15.081c0-8.321,6.75-15.071,15.081-15.071c8.321,0,15.071,6.75,15.071,15.071
					C105.391,79.29,98.641,86.04,90.32,86.04z"/>
			</g>
			<g>
				<g>
					<path style="fill:#FFFFFF;" d="M283.419,337.939h-1.395c-0.323-1.249-0.82-2.428-1.459-3.512l0.989-0.989
						c0.739-0.739,0.739-1.936,0-2.675l-2.202-2.202c-0.739-0.739-1.936-0.739-2.675,0l-0.989,0.989
						c-1.085-0.639-2.263-1.136-3.512-1.459v-1.395c0-1.045-0.847-1.891-1.891-1.891h-3.114c-1.045,0-1.891,0.847-1.891,1.891v1.395
						c-1.249,0.323-2.428,0.82-3.512,1.459l-0.989-0.989c-0.739-0.739-1.936-0.739-2.675,0l-2.202,2.202
						c-0.738,0.739-0.738,1.936,0,2.675l0.989,0.989c-0.639,1.085-1.136,2.263-1.459,3.512h-1.395c-1.045,0-1.891,0.847-1.891,1.891
						v3.114c0,1.044,0.847,1.891,1.891,1.891h1.395c0.323,1.249,0.82,2.428,1.459,3.512l-0.989,0.989
						c-0.738,0.739-0.738,1.936,0,2.675l2.202,2.202c0.739,0.739,1.936,0.739,2.675,0l0.989-0.989
						c1.085,0.639,2.263,1.136,3.512,1.459v1.395c0,1.044,0.847,1.891,1.891,1.891h3.114c1.044,0,1.891-0.847,1.891-1.891v-1.395
						c1.249-0.323,2.428-0.82,3.512-1.459l0.989,0.989c0.738,0.739,1.936,0.739,2.675,0l2.202-2.202
						c0.739-0.739,0.739-1.936,0-2.675l-0.989-0.989c0.639-1.085,1.136-2.263,1.459-3.512h1.395c1.044,0,1.891-0.847,1.891-1.891
						v-3.114C285.31,338.785,284.463,337.939,283.419,337.939z M257.456,341.387c0-6.226,5.047-11.272,11.272-11.272
						s11.272,5.047,11.272,11.272c0,6.225-5.047,11.272-11.272,11.272S257.456,347.612,257.456,341.387z"/>
				</g>
			</g>
			<g>
				<path style="fill:#7499F1;" d="M425.792,87.937V81.92h-2.867c-0.282-1.087-0.715-2.118-1.275-3.064l2.033-2.028l-4.258-4.258
					l-2.028,2.033c-0.946-0.556-1.973-0.993-3.064-1.275v-2.867h-6.017v2.867c-1.091,0.282-2.118,0.719-3.064,1.275l-2.033-2.033
					l-4.254,4.258l2.029,2.028c-0.556,0.946-0.989,1.977-1.271,3.064h-2.867v6.017h2.867c0.282,1.091,0.715,2.118,1.271,3.064
					l-2.029,2.033l4.254,4.254l2.033-2.029c0.946,0.556,1.973,0.989,3.064,1.271v2.867h6.017V96.53
					c1.091-0.283,2.118-0.715,3.064-1.271l2.028,2.029l4.258-4.254l-2.033-2.033c0.561-0.946,0.993-1.973,1.275-3.064H425.792z
					 M411.323,91.172c-3.449,0-6.244-2.795-6.244-6.244c0-3.445,2.794-6.24,6.244-6.24c3.445,0,6.24,2.795,6.24,6.24
					C417.563,88.377,414.768,91.172,411.323,91.172z"/>
			</g>
			<g>
				<g>
					<path style="fill:#FFFFFF;" d="M342.218,133.696H146.973c-4.734,0-8.572,3.838-8.572,8.572v116.637
						c0,4.734,3.838,8.572,8.572,8.572h195.245c4.734,0,8.572-3.838,8.572-8.572V142.268
						C350.79,137.534,346.952,133.696,342.218,133.696z"/>
				</g>
				<g>
					<rect x="148.28" y="144.019" style="fill:#B0C4D1;" width="192.632" height="113.135"/>
				</g>
				<g>
					<polygon style="fill:#BDD1DB;" points="213.533,257.154 164.558,257.154 210.561,144.019 259.536,144.019 					"/>
				</g>
				<g>
					<polygon style="fill:#BDD1DB;" points="245.735,257.154 225.895,257.154 271.898,144.019 291.738,144.019 					"/>
				</g>
				<g>
					<rect x="226.028" y="267.566" style="fill:#EDF3F7;" width="43.181" height="24.489"/>
				</g>
				<g>
					<path style="fill:#FFFFFF;" d="M300.875,292.055H194.361c-5.347,0-9.681,4.334-9.681,9.681h125.876
						C310.556,296.39,306.222,292.055,300.875,292.055z"/>
				</g>
			</g>
			<g>
				<g>
					<path style="fill:#7499F1;" d="M292.822,232.571h-1.075c-0.249-0.962-0.632-1.87-1.124-2.706l0.762-0.762
						c0.569-0.569,0.569-1.492,0-2.061l-1.696-1.696c-0.569-0.569-1.492-0.569-2.061,0l-0.762,0.762
						c-0.836-0.492-1.744-0.875-2.706-1.124v-1.075c0-0.805-0.652-1.457-1.457-1.457h-2.399c-0.805,0-1.457,0.652-1.457,1.457v1.075
						c-0.962,0.249-1.87,0.632-2.706,1.124l-0.762-0.762c-0.569-0.569-1.492-0.569-2.061,0l-1.696,1.696
						c-0.569,0.569-0.569,1.492,0,2.061l0.762,0.762c-0.492,0.836-0.875,1.744-1.124,2.706h-1.075c-0.805,0-1.457,0.652-1.457,1.457
						v2.399c0,0.805,0.652,1.457,1.457,1.457h1.075c0.249,0.962,0.632,1.87,1.124,2.706l-0.762,0.762
						c-0.569,0.569-0.569,1.492,0,2.061l1.696,1.696c0.569,0.569,1.492,0.569,2.061,0l0.762-0.762
						c0.836,0.493,1.744,0.875,2.706,1.124v1.075c0,0.805,0.652,1.457,1.457,1.457h2.399c0.805,0,1.457-0.652,1.457-1.457v-1.075
						c0.962-0.249,1.871-0.632,2.706-1.124l0.762,0.762c0.569,0.569,1.492,0.569,2.061,0l1.696-1.696
						c0.569-0.569,0.569-1.492,0-2.061l-0.762-0.762c0.492-0.836,0.875-1.744,1.124-2.706h1.075c0.805,0,1.457-0.652,1.457-1.457
						v-2.399C294.279,233.224,293.627,232.571,292.822,232.571z M272.819,235.228c0-4.796,3.888-8.685,8.685-8.685
						c4.797,0,8.685,3.888,8.685,8.685c0,4.797-3.888,8.685-8.685,8.685C276.707,243.913,272.819,240.025,272.819,235.228z"/>
				</g>
			</g>
			<g>
				<path style="fill:#DFE8EF;" d="M335.014,223.655v-6.514h-3.104c-0.306-1.177-0.774-2.293-1.381-3.317l2.201-2.196l-4.61-4.61
					l-2.196,2.201c-1.024-0.602-2.136-1.075-3.317-1.381v-3.104h-6.514v3.104c-1.181,0.306-2.293,0.778-3.317,1.381l-2.201-2.201
					l-4.605,4.61l2.196,2.196c-0.602,1.024-1.07,2.141-1.376,3.317h-3.104v6.514h3.104c0.306,1.181,0.774,2.293,1.376,3.317
					l-2.196,2.201l4.605,4.605l2.201-2.196c1.024,0.602,2.136,1.07,3.317,1.376v3.104h6.514v-3.104
					c1.181-0.306,2.293-0.774,3.317-1.376l2.196,2.196l4.61-4.605l-2.201-2.201c0.607-1.024,1.075-2.136,1.381-3.317H335.014z
					 M319.35,227.158c-3.734,0-6.76-3.025-6.76-6.76c0-3.73,3.025-6.755,6.76-6.755c3.73,0,6.755,3.025,6.755,6.755
					C326.105,224.132,323.079,227.158,319.35,227.158z"/>
			</g>
			<g>
				<g>
					<rect x="170.005" y="210.393" style="fill:#DFE8EF;" width="149.63" height="2.17"/>
				</g>
				<g>
					<g>
						<rect x="194" y="81.478" style="fill:#F25A42;" width="20.664" height="128.915"/>
					</g>
					<g>
						<rect x="221.32" y="47.495" style="fill:#EE9949;" width="20.664" height="162.898"/>
					</g>
					<g>
						<rect x="248.639" y="126.289" style="fill:#7499F1;" width="20.664" height="84.104"/>
					</g>
					<g>
						<rect x="275.959" y="104.841" style="fill:#DFE8EF;" width="20.664" height="105.552"/>
					</g>
					<g>
						<polygon style="fill:#FFFFFF;" points="258.45,140.685 231.275,63.651 204.282,96.314 202.645,94.961 232.029,59.404 
							259.493,137.26 285.657,117.78 286.926,119.484 						"/>
					</g>
					<g>
						<path style="fill:#EE9949;" d="M208.681,94.823c0,2.428-1.968,4.396-4.396,4.396c-2.428,0-4.396-1.968-4.396-4.396
							c0-2.428,1.968-4.396,4.396-4.396C206.713,90.427,208.681,92.395,208.681,94.823z"/>
					</g>
					<g>
						<circle style="fill:#7499F1;" cx="231.652" cy="61.527" r="4.396"/>
					</g>
					<g>
						<path style="fill:#FFFFFF;" d="M263.368,138.972c0,2.428-1.968,4.396-4.396,4.396c-2.428,0-4.396-1.968-4.396-4.396
							c0-2.428,1.968-4.396,4.396-4.396C261.399,134.576,263.368,136.544,263.368,138.972z"/>
					</g>
					<g>
						<circle style="fill:#F25A42;" cx="286.291" cy="118.632" r="4.396"/>
					</g>
				</g>
			</g>
			<g>
				<g>
					<path style="fill:#F25A42;" d="M170.056,73.13c-3.614-2.276-7.889-3.59-12.475-3.59c-6.478,0-12.344,2.627-16.587,6.87
						c-4.242,4.243-6.87,10.109-6.87,16.587c0,5.205,1.697,10.019,4.569,13.903c4.267,5.793,11.137,9.554,18.887,9.554
						c12.956,0,23.456-10.5,23.456-23.456C181.038,84.626,176.656,77.283,170.056,73.13z M157.581,106.255
						c-4.381,0-8.265-2.129-10.672-5.401c-1.624-2.195-2.586-4.912-2.586-7.857c0-3.663,1.485-6.976,3.884-9.374
						c2.399-2.399,5.711-3.884,9.374-3.884c2.594,0,5.01,0.742,7.049,2.032c3.729,2.342,6.209,6.494,6.209,11.226
						C170.839,100.323,164.908,106.255,157.581,106.255z"/>
				</g>
				<g>
					<path style="fill:#7499F1;" d="M157.581,69.54v10.198c-3.663,0-6.976,1.485-9.374,3.884l-7.212-7.212
						C145.237,72.167,151.103,69.54,157.581,69.54z"/>
				</g>
				<g>
					<path style="fill:#EE9949;" d="M170.056,73.13l-5.426,8.64c-2.04-1.289-4.455-2.032-7.049-2.032V69.54
						C162.166,69.54,166.442,70.854,170.056,73.13z"/>
				</g>
				<g>
					<path style="fill:#FFFFFF;" d="M144.323,92.997c0,2.945,0.963,5.662,2.586,7.857l-8.216,6.046
						c-2.872-3.884-4.569-8.697-4.569-13.903c0-6.478,2.627-12.344,6.87-16.587l7.212,7.212
						C145.808,86.021,144.323,89.333,144.323,92.997z"/>
				</g>
			</g>
			<g>
				<g>
					<path style="fill:#7499F1;" d="M100.311,96.696c2.968-0.674,5.784-2.166,8.094-4.476c3.264-3.264,4.896-7.543,4.896-11.818
						s-1.632-8.554-4.896-11.818c-2.622-2.623-5.903-4.193-9.306-4.702c-5.068-0.769-10.424,0.797-14.329,4.702
						c-6.528,6.528-6.528,17.108,0,23.636C88.986,96.437,94.893,97.929,100.311,96.696z M89.907,73.722
						c2.207-2.207,5.237-3.091,8.098-2.655c1.924,0.288,3.778,1.171,5.261,2.655c1.846,1.846,2.766,4.263,2.766,6.68
						s-0.921,4.834-2.766,6.68c-1.307,1.307-2.898,2.15-4.575,2.528c-3.058,0.699-6.4-0.144-8.784-2.528
						C86.216,83.39,86.216,77.413,89.907,73.722z"/>
				</g>
				<g>
					<path style="fill:#F25A42;" d="M108.405,92.22l-5.138-5.138c1.846-1.846,2.766-4.263,2.766-6.68h7.268
						C113.3,84.677,111.668,88.956,108.405,92.22z"/>
				</g>
				<g>
					<path style="fill:#FFFFFF;" d="M100.311,96.696l-1.62-7.087c1.677-0.378,3.268-1.221,4.575-2.528l5.138,5.138
						C106.095,94.53,103.279,96.022,100.311,96.696z"/>
				</g>
				<g>
					<path style="fill:#EE9949;" d="M103.266,73.722c-1.484-1.484-3.338-2.368-5.261-2.655l1.093-7.185
						c3.404,0.51,6.684,2.08,9.306,4.702c3.264,3.264,4.896,7.543,4.896,11.818h-7.268
						C106.033,77.985,105.112,75.568,103.266,73.722z"/>
				</g>
			</g>
			<g>
				<g>
					<g>
						<path style="fill:#EE9949;" d="M347.762,103.092c0,11.15-9.045,20.195-20.194,20.195c-11.156,0-20.195-9.045-20.195-20.195
							c0-11.157,9.038-20.195,20.195-20.195c5.578,0,10.634,2.27,14.279,5.922c1.451,1.458,2.689,3.13,3.639,4.973
							C346.944,96.571,347.762,99.735,347.762,103.092z"/>
					</g>
					<g>
						<path style="fill:#7499F1;" d="M341.845,88.817l-14.276,14.276V82.9C333.144,82.9,338.198,85.164,341.845,88.817z"/>
					</g>
					<g>
						<path style="fill:#F25A42;" d="M347.762,103.092c0,11.15-9.045,20.195-20.194,20.195v-20.195l14.279-14.272
							c1.451,1.458,2.689,3.13,3.639,4.973C346.944,96.571,347.762,99.735,347.762,103.092z"/>
					</g>
				</g>
				<g>
					<path style="fill:#FFFFFF;" d="M345.485,93.792l-17.918,9.299l14.279-14.272C343.298,90.277,344.536,91.949,345.485,93.792z"/>
				</g>
			</g>
			<g>
				<circle style="fill:#C8D8E5;" cx="456.585" cy="108" r="10.312"/>
			</g>
			<g>
				<g>
					<path style="fill:#FFFFFF;" d="M179.216,200.362h-1.266h-0.37c-1.529,0-2.295-1.849-1.212-2.932l0.259-0.258l0.896-0.9
						c0.673-0.668,0.673-1.76,0-2.429l-2.001-2.001c-0.668-0.673-1.76-0.673-2.429,0l-0.9,0.9L171.935,193
						c-1.083,1.078-2.932,0.312-2.932-1.217v-0.37v-1.266c0-0.949-0.771-1.72-1.72-1.72h-2.825c-0.949,0-1.72,0.771-1.72,1.72v1.266
						v0.37c0,1.529-1.849,2.295-2.932,1.217l-0.258-0.258l-0.9-0.9c-0.673-0.673-1.76-0.673-2.429,0l-2.001,2.001
						c-0.673,0.668-0.673,1.76,0,2.429l0.896,0.9l0.258,0.258c1.083,1.083,0.316,2.932-1.212,2.932h-0.37h-1.266
						c-0.949,0-1.72,0.771-1.72,1.72v2.83c0,0.949,0.771,1.716,1.72,1.716h1.266h0.37c1.528,0,2.295,1.854,1.212,2.932l-0.258,0.258
						l-0.896,0.9c-0.673,0.673-0.673,1.76,0,2.429l2.001,2.001c0.668,0.673,1.756,0.673,2.429,0l0.9-0.896l0.258-0.258
						c1.083-1.083,2.932-0.316,2.932,1.212v0.37v1.266c0,0.949,0.771,1.72,1.72,1.72h2.825c0.949,0,1.72-0.771,1.72-1.72v-1.266
						v-0.37c0-1.529,1.849-2.295,2.932-1.212l0.258,0.258l0.9,0.896c0.668,0.673,1.76,0.673,2.429,0l2.001-2.001
						c0.673-0.668,0.673-1.756,0-2.429l-0.896-0.9l-0.259-0.258c-1.083-1.078-0.316-2.932,1.212-2.932h0.37h1.266
						c0.949,0,1.72-0.766,1.72-1.716v-2.83C180.936,201.133,180.165,200.362,179.216,200.362z M165.869,211.62
						c-4.487,0-8.125-3.638-8.125-8.125c0-4.488,3.638-8.125,8.125-8.125c4.488,0,8.125,3.638,8.125,8.125
						C173.995,207.982,170.357,211.62,165.869,211.62z"/>
				</g>
			</g>
			<g>
				<g>
					<path style="fill:#7499F1;" d="M245.649,372.733h-1.978h-0.578c-2.389,0-3.586-2.89-1.894-4.582l0.404-0.404l1.4-1.407
						c1.051-1.045,1.051-2.751,0-3.795l-3.127-3.127c-1.045-1.051-2.751-1.051-3.795,0l-1.407,1.407l-0.404,0.404
						c-1.692,1.685-4.582,0.487-4.582-1.901v-0.578v-1.978c0-1.483-1.205-2.688-2.688-2.688h-4.415
						c-1.483,0-2.688,1.205-2.688,2.688v1.978v0.578c0,2.388-2.89,3.586-4.582,1.901l-0.404-0.404l-1.407-1.407
						c-1.051-1.051-2.751-1.051-3.795,0l-3.127,3.127c-1.051,1.044-1.051,2.751,0,3.795l1.4,1.407l0.404,0.404
						c1.692,1.692,0.494,4.582-1.894,4.582h-0.578h-1.978c-1.483,0-2.688,1.205-2.688,2.688v4.422c0,1.483,1.205,2.681,2.688,2.681
						h1.978h0.578c2.388,0,3.586,2.897,1.894,4.582l-0.404,0.404l-1.4,1.407c-1.051,1.052-1.051,2.751,0,3.795l3.127,3.127
						c1.045,1.051,2.744,1.051,3.795,0l1.407-1.4l0.404-0.404c1.692-1.692,4.582-0.494,4.582,1.894v0.578v1.978
						c0,1.483,1.205,2.688,2.688,2.688h4.415c1.483,0,2.688-1.205,2.688-2.688v-1.978v-0.578c0-2.388,2.89-3.586,4.582-1.894
						l0.404,0.404l1.407,1.4c1.044,1.051,2.751,1.051,3.795,0l3.127-3.127c1.051-1.044,1.051-2.744,0-3.795l-1.4-1.407l-0.404-0.404
						c-1.692-1.685-0.494-4.582,1.894-4.582h0.578h1.978c1.483,0,2.688-1.198,2.688-2.681v-4.422
						C248.337,373.938,247.133,372.733,245.649,372.733z M224.793,390.326c-7.012,0-12.697-5.685-12.697-12.697
						c0-7.012,5.685-12.697,12.697-12.697c7.012,0,12.697,5.685,12.697,12.697C237.49,384.641,231.806,390.326,224.793,390.326z"/>
				</g>
			</g>
			<g>
				<g>
					<path style="fill:#F25A42;" d="M381.215,119.025c0,5.661-4.583,10.251-10.244,10.251c-2.541,0-4.869-0.928-6.66-2.463
						c-2.191-1.877-3.584-4.669-3.584-7.788c0-0.928,0.121-1.827,0.357-2.684c1.178-4.355,5.161-7.56,9.887-7.56
						c4.718,0,8.688,3.184,9.88,7.517C381.086,117.169,381.215,118.082,381.215,119.025z"/>
				</g>
				<g>
					<path style="fill:#EE9949;" d="M370.971,119.025v10.251c-2.541,0-4.869-0.928-6.66-2.463L370.971,119.025z"/>
				</g>
				<g>
					<path style="fill:#FFFFFF;" d="M381.215,119.025c0,5.661-4.583,10.251-10.244,10.251v-10.251l9.88-2.727
						C381.086,117.169,381.215,118.082,381.215,119.025z"/>
				</g>
				<g>
					<path style="fill:#7499F1;" d="M370.971,119.025l-6.66,7.788c-2.191-1.877-3.584-4.669-3.584-7.788
						c0-0.928,0.121-1.827,0.357-2.684L370.971,119.025z"/>
				</g>
			</g>
			<g>
				<g>
					<rect x="268.303" y="44.138" style="fill:#F25A42;" width="8.412" height="8.412"/>
				</g>
				<g>
					<rect x="268.303" y="59.451" style="fill:#EE9949;" width="8.412" height="8.412"/>
				</g>
				<g>
					<rect x="323.362" y="59.451" style="fill:#FFFFFF;" width="8.412" height="8.412"/>
				</g>
				<g>
					<rect x="323.362" y="44.138" style="fill:#7499F1;" width="8.412" height="8.412"/>
				</g>
				<g>
					<g>
						<rect x="280.126" y="49.852" style="fill:#FFFFFF;" width="35.053" height="2"/>
					</g>
					<g>
						<rect x="280.126" y="64.388" style="fill:#FFFFFF;" width="35.053" height="2"/>
					</g>
				</g>
				<g>
					<g>
						<rect x="335.344" y="49.852" style="fill:#FFFFFF;" width="35.053" height="2"/>
					</g>
					<g>
						<rect x="335.344" y="64.388" style="fill:#FFFFFF;" width="35.053" height="2"/>
					</g>
				</g>
			</g>
		</g>
		<g>
			<defs>
				<rect id="SVGID_1_" width="500" height="500"/>
			</defs>
			<clipPath id="SVGID_00000180339451062389234940000008515307541273908902_">
				<use xlink:href="#SVGID_1_"  style="overflow:visible;"/>
			</clipPath>
			<g style="clip-path:url(#SVGID_00000180339451062389234940000008515307541273908902_);">
				<g>
					<path style="fill:#FFB182;" d="M340.94,281.46c-0.07,1.75-1.35,3.19-2.59,4.43c-9.33,9.39-26.6,23.77-39.22,27.24
						c-3.41,0.94-6.49,1.08-8.97,0.1c-10.37-4.08-21.14-30.45-27-44.16c-1.92-4.48-6.47-12.51-8.75-14.91
						c-0.73-0.76-1.6-1.34-2.57-1.8h-0.01c-3.48-1.69-8.15-1.94-11.24-4.13c-3.01-2.13-5.95-9.62-7.45-13
						c-3.12-7.01-0.277-5.287-1.948-12.777c1.53-3.99,3.958-2.053,7.778,7.018c1.8,4.29,8.8,5.82,10.73,5.61
						c-0.52-4.41-2.77-8.44,0.21-10.84c2.39,0,3.3,1.83,4.41,5.43c2.17,7.08,7.25,5.56,10.68,12.12
						c7.59,14.55,20.34,28.42,31.16,40.79c10.76-5.31,20.63-13.03,30.84-22.7c5.04,4.35,9.21,12.08,12.61,17.81
						C340.3,278.85,340.99,280.11,340.94,281.46z"/>
					<path style="fill:#EF9B70;" d="M299.13,313.13c-3.41,0.94-6.49,1.08-8.97,0.1c-10.37-4.08-21.14-30.45-27-44.16
						c-1.92-4.48-6.47-12.51-8.75-14.91c-0.73-0.76-1.6-1.34-2.57-1.8c0.3-0.04,4.76-0.49,7.66,2.89c3,3.5,16.97,35.1,23.36,42.05
						C287.94,302.82,290.24,309.25,299.13,313.13z"/>
					<g>
						<g>
							<path style="fill:#EF9B70;" d="M235.167,237.292c0.976,0.109,2.183,2.566,2.706,3.276c1.029,1.397,2.146,2.694,3.59,3.676
								c0.667,0.454,1.293-0.629,0.631-1.079c-1.84-1.251-3.049-3.117-4.328-4.892c-0.655-0.909-1.388-2.096-2.599-2.231
								C234.368,235.953,234.375,237.204,235.167,237.292L235.167,237.292z"/>
						</g>
						<g>
							<path style="fill:#EF9B70;" d="M233.87,232.39c0.673,0.115,1.369,1.127,1.807,1.591c0.925,0.981,1.813,1.997,2.726,2.99
								c1.719,1.869,3.509,3.877,5.744,5.139c0.701,0.396,1.332-0.683,0.631-1.079c-2.567-1.451-4.566-3.919-6.521-6.076
								c-0.962-1.062-2.5-3.506-4.055-3.771C233.416,231.051,233.078,232.255,233.87,232.39L233.87,232.39z"/>
						</g>
						<g>
							<path style="fill:#EF9B70;" d="M233.595,227.77c2.002,2.346,3.715,4.971,5.821,7.225c1.901,2.034,4.389,3.131,7.037,3.859
								c0.777,0.214,1.108-0.992,0.332-1.205c-2.886-0.794-5.223-2.019-7.152-4.316c-1.77-2.107-3.368-4.353-5.154-6.447
								C233.955,226.274,233.075,227.161,233.595,227.77L233.595,227.77z"/>
						</g>
						<g>
							<path style="fill:#EF9B70;" d="M246.394,244.43c0.765-2.228,2.056-4.155,3.799-5.736c0.597-0.542-0.289-1.424-0.884-0.884
								c-1.904,1.727-3.286,3.858-4.121,6.288C244.926,244.86,246.133,245.187,246.394,244.43L246.394,244.43z"/>
						</g>
					</g>
					<path style="fill:#F25A42;" d="M306,273.089c0,4.874,11.908,13.712,17.385,22.637c1.846,3.008,2.053,6.734,5.273,5.289
						c0.579-0.26,3.137-4.316,3.625-4.721c2.88-2.395,17.863-14.143,20.742-18.331c5.904-8.584,5.919-15.708,5.39-26.113
						c-0.173-3.408-0.467-6.895-1.887-9.998c-1.419-3.104-13.539-6.33-16.566-4.754c-5.47,2.849-8.222,11.821-12.94,16.012
						c-1.288,1.144-6.36,9.557-11.523,14.812C311.309,272.188,306.845,273.676,306,273.089z"/>
					<g>
						<path style="fill:#D87F36;" d="M415.994,197.888c-0.737,10.058-5.781,21.293,0.204,29.41c2.456,3.331,6.43,5.392,8.531,8.958
							c3.6,6.108,0.043,14.439-5.861,18.366s-13.353,4.531-20.439,4.744c-7.087,0.212-14.435,0.205-20.873,3.176
							c-3.705,1.71-6.961,4.352-10.806,5.72c-10.232,3.64-22.812-4.514-23.667-15.341c-0.695-8.807,1.077-12.691,3.25-21.253
							c1.068-4.206-1.007-8.726-2.167-11.269c-4.049-8.878,5.186-10.077,4.5-19.811c-0.235-3.334-2.323-9.262-2.667-12.587
							c-1-9.667,3.79-19.659,6.809-23.195c8.716-10.208,15.869-10.665,28.25-10.65c9.608,0.012,21.459,4.457,26.002,16.639
							C410.417,179.795,416.705,188.192,415.994,197.888z"/>
					</g>
					<g>
						<g>
							<path style="fill:#EF9B70;" d="M396.364,228.776c0.957,6.413-14.839,34.799-23.934,33.641
								c-14.326-1.824-9.679-31.827-10.447-32.929c0,0,4.657-2.06,4.863-5.102c0.285-4.212-0.234-13.817-1.541-24.241
								c8.318,0.039,18.708,1.273,26.755-0.739C392.987,203.382,392.925,229.378,396.364,228.776z"/>
						</g>
						<g>
							<path style="fill:#FFB182;" d="M355.539,185.844c-0.692,4.944-1.216,14.89,4.012,24.135c2.708,4.79,3.457,7.584,7.828,9.652
								c4.787,2.265,12.486-0.926,16.948-3.78c2.828-1.809,5.239-3.21,7.191-5.942c3.703-5.183,4.052-9.689,5.68-15.847
								c1.385-5.237,0.974-24.137-3.202-27.587c-2.065-1.706-4.094-5.387-6.645-6.205c-6.422-2.059-13.61-2.444-19.792,0.251
								C354.865,166.057,357.176,174.156,355.539,185.844z"/>
						</g>
						<g>
							<path style="fill:#D87F36;" d="M390.458,186.083c0.936,0.031,0,6.851,3.3,12.25c2.096,3.43,4.938,8.626,8.746,9.911
								c4.121-9.623,5.511-17.444,5.679-27.911c0.105-6.531-6.77-16.441-9.516-19c-4.117-3.835-11.595-6.94-19.167-6
								c-5.435,0.674-12.84,1.29-16.859,3.379c-6.445,3.351-8.38,8.97-9.998,16.052c-1.545,6.761-1.69,14.585-0.545,21.384
								c3.597-4.02,3.122-7.528,6.636-13.543c3.558-6.09,3.804-7.596,5.637-13.295C372.97,187.672,385.589,185.92,390.458,186.083z"
								/>
						</g>
						<g>
							<path style="fill:#FFB182;" d="M397.998,184.904c-7.482-0.621-11.591,18.977-3.285,19.171c4.259,0.1,5.414-4.663,6.533-6.659
								C402.365,195.42,402.27,186.672,397.998,184.904z"/>
						</g>
						<g>
							<path style="fill:#454658;" d="M373.784,188.428c0,1.188-0.628,2.152-1.402,2.152s-1.402-0.963-1.402-2.152
								c0-1.188,0.628-2.151,1.402-2.151S373.784,187.24,373.784,188.428z"/>
						</g>
						<g>
							<path style="fill:#454658;" d="M359.333,188.719c0,1.188-0.628,2.152-1.402,2.152s-1.402-0.963-1.402-2.152
								c0-1.188,0.628-2.152,1.402-2.152S359.333,187.531,359.333,188.719z"/>
						</g>
						<g>
							<g>
								<path style="fill:#DB8863;" d="M363.842,190.683c0.207,2.775-0.764,5.031-1.828,7.523c-0.587,1.375-1.557,2.968-1.508,4.486
									c0.095,2.956,4.454,2.835,6.625,3.284c1.172,0.243,1.673-1.555,0.496-1.799c-1.145-0.237-3.087-0.261-4.113-0.852
									c-1.878-1.081,0.048-3.996,0.674-5.483c0.986-2.34,1.711-4.598,1.519-7.159
									C365.619,189.493,363.753,189.484,363.842,190.683L363.842,190.683z"/>
							</g>
						</g>
						<g>
							<g>
								<path style="fill:#D87F36;" d="M355.742,184.148c2.126,0.091,4.251,0.181,6.377,0.272c1.201,0.051,1.198-1.815,0-1.866
									c-2.126-0.091-4.251-0.181-6.377-0.272C354.542,182.231,354.544,184.096,355.742,184.148L355.742,184.148z"/>
							</g>
						</g>
						<g>
							<g>
								<path style="fill:#D87F36;" d="M369.323,184.283c2.071,0,4.141,0,6.212,0c1.201,0,1.202-1.866,0-1.866
									c-2.071,0-4.141,0-6.212,0C368.123,182.418,368.121,184.283,369.323,184.283L369.323,184.283z"/>
							</g>
						</g>
						<g>
							<g>
								<path style="fill:#DB8863;" d="M396.058,190.757c0.552-1.749,0.656-1.721,1.287-0.901c0.636,0.827,0.866,2.356,0.962,3.377
									c0.216,2.293-0.546,4.477-2.435,5.88c-0.953,0.708-0.024,2.328,0.942,1.611c3.496-2.597,4.132-6.953,2.559-10.874
									c-0.414-1.033-0.969-2.628-2.307-2.63c-1.499-0.002-2.429,1.841-2.808,3.041
									C393.896,191.408,395.697,191.899,396.058,190.757L396.058,190.757z"/>
							</g>
						</g>
						<g>
							<g>
								<path style="fill:#EE9949;" d="M371.136,168.147c4.484,6.836,11.403,11.132,19.496,12.202c1.187,0.157,1.175-1.71,0-1.866
									c-7.402-0.979-13.797-5.046-17.885-11.278C372.092,166.205,370.475,167.139,371.136,168.147L371.136,168.147z"/>
							</g>
						</g>
						<g>
							<g>
								<path style="fill:#EE9949;" d="M379.757,164.78c4.525,3.281,9.298,6.13,14.334,8.555c1.077,0.519,2.024-1.09,0.942-1.611
									c-5.036-2.426-9.809-5.274-14.334-8.555C379.726,162.464,378.793,164.081,379.757,164.78L379.757,164.78z"/>
							</g>
						</g>
						<g>
							<g>
								<path style="fill:#EE9949;" d="M388.386,161.962c5.023,1.903,9.158,5.321,12.009,9.868c0.637,1.015,2.252,0.079,1.611-0.942
									c-3.124-4.981-7.63-8.644-13.124-10.725C387.758,159.737,387.273,161.54,388.386,161.962L388.386,161.962z"/>
							</g>
						</g>
						<g>
							<g>
								<path style="fill:#EE9949;" d="M402.111,178.727c5.498,6.966,11.374,15.15,7.542,24.378
									c-0.46,1.108,1.345,1.591,1.799,0.496c4.082-9.829-2.121-18.716-8.022-26.193
									C402.687,176.465,401.375,177.794,402.111,178.727L402.111,178.727z"/>
							</g>
						</g>
						<g>
							<g>
								<path style="fill:#EE9949;" d="M408.221,213.907c-0.981,6.594,0.316,12.964,3.913,18.592
									c0.645,1.009,2.26,0.074,1.611-0.942c-3.312-5.182-4.632-11.059-3.725-17.154
									C410.195,213.229,408.397,212.722,408.221,213.907L408.221,213.907z"/>
							</g>
						</g>
						<g>
							<g>
								<path style="fill:#EE9949;" d="M404.876,229.301c-2.265-5.681-3.22-11.538-2.861-17.647c0.071-1.199-1.796-1.195-1.866,0
									c-0.369,6.276,0.597,12.299,2.927,18.143C403.516,230.899,405.322,230.418,404.876,229.301L404.876,229.301z"/>
							</g>
						</g>
						<g>
							<g>
								<path style="fill:#EE9949;" d="M352.606,229.898c1.239-2.095,0.876-4.06-0.26-6.137c-2.029-3.709-3.429-6.733-2.872-11.097
									c0.152-1.188-1.716-1.177-1.866,0c-0.313,2.451-0.176,4.834,0.616,7.185c0.866,2.572,4.47,6.233,2.771,9.108
									C350.383,229.993,351.995,230.932,352.606,229.898L352.606,229.898z"/>
							</g>
						</g>
						<g>
							<g>
								<path style="fill:#EE9949;" d="M358.656,228.229c1.532-3.735,0.69-7.915-2.028-10.863c-0.816-0.885-2.133,0.437-1.319,1.319
									c2.308,2.504,2.829,5.925,1.548,9.048C356.401,228.843,358.205,229.327,358.656,228.229L358.656,228.229z"/>
							</g>
						</g>
						<g>
							<g>
								<path style="fill:#EE9949;" d="M351.768,187.821c0.39-6.246,1.808-12.21,4.296-17.951c0.473-1.09-1.134-2.042-1.611-0.942
									c-2.622,6.05-4.14,12.313-4.551,18.893C349.827,189.02,351.693,189.016,351.768,187.821L351.768,187.821z"/>
							</g>
						</g>
						<g>
							<g>
								<path style="fill:#EE9949;" d="M359.808,173.192c0.947-3.449,2.664-6.487,5.14-9.069c0.831-0.867-0.486-2.188-1.319-1.319
									c-2.69,2.805-4.591,6.143-5.62,9.892C357.69,173.856,359.49,174.351,359.808,173.192L359.808,173.192z"/>
							</g>
						</g>
						<g>
							<g>
								<path style="fill:#DB8863;" d="M366.814,238.448c1.93-0.223,3.838-0.167,5.745,0.214c1.173,0.234,1.674-1.564,0.496-1.799
									c-2.072-0.414-4.14-0.523-6.241-0.28C365.635,236.718,365.622,238.585,366.814,238.448L366.814,238.448z"/>
							</g>
						</g>
						<g>
							<g>
								<path style="fill:#DB8863;" d="M380.492,238.661c1.821-0.731,4.1-0.465,6.007-0.263c1.193,0.126,1.184-1.74,0-1.866
									c-2.066-0.219-4.53-0.462-6.503,0.33C378.895,237.304,379.376,239.109,380.492,238.661L380.492,238.661z"/>
							</g>
						</g>
						<path style="fill:#DB8863;" d="M372.469,207.424c-2.593,1.632-5.684,1.833-8.433,0.453c-1.07-0.537-2.016,1.072-0.942,1.611
							c2.816,1.413,5.962,1.524,8.783,0.33c-0.371,1.736-1.514,3.144-3.246,3.933c-1.091,0.497-0.144,2.105,0.942,1.611
							c2.79-1.271,4.462-4.079,4.299-7.133C373.837,207.553,373.098,207.028,372.469,207.424z"/>
					</g>
					<g>
						<g>
							<path style="fill:#7499F1;" d="M427.558,512.964c0.03,1.301,0.01,2.79-0.983,3.654c-0.774,0.675-1.906,0.715-2.939,0.715
								c-8.081,0.05-15.25,0.085-23.322,0.125c-0.824,0-7.16-55.003-9.699-75.066c-1.267-10.01-2.247-23.013-4.16-40.993
								c-0.02,0.526-0.03,1.072-0.04,1.628v0.069c-0.457,23.261,5.391,88.553,8.776,110.435c0.248,1.598-1.866,3.614-5.063,5.58
								c-6.116,3.733-16.193,7.247-21.345,7.297c-0.834,0.01-23.011-89.127-28.625-113.909c-1.316-5.808-5.096-21.067-5.056-35.731
								c0.02-4.438,19.107-1.37,24.071-1.817c8.518-0.764,17.017-1.817,25.475-3.127c16.907-2.631,41.489-2.551,53.304,2.174
								C439.174,408.486,426.267,468.744,427.558,512.964z"/>
						</g>
						<g>
							<g>
								<path style="fill:#6189D8;" d="M361.149,393.982c6.597,1.271,13.194,2.543,19.791,3.815
									c1.173,0.226,1.676-1.572,0.496-1.799c-6.597-1.272-13.194-2.543-19.79-3.815
									C360.471,391.957,359.969,393.754,361.149,393.982L361.149,393.982z"/>
							</g>
						</g>
						<g>
							<g>
								<path style="fill:#6189D8;" d="M367.305,400.722c6.122,0,12.245,0,18.367,0c1.201,0,1.203-1.866,0-1.866
									c-6.122,0-12.245,0-18.367,0C366.104,398.856,366.102,400.722,367.305,400.722L367.305,400.722z"/>
							</g>
						</g>
						<g>
							<g>
								<path style="fill:#6189D8;" d="M393.403,399.871c4.213-0.93,8.316-2.175,12.336-3.741c1.107-0.431,0.625-2.236-0.496-1.799
									c-4.02,1.567-8.123,2.811-12.336,3.741C391.735,398.33,392.231,400.129,393.403,399.871L393.403,399.871z"/>
							</g>
						</g>
						<g>
							<g>
								<path style="fill:#6189D8;" d="M387.164,394.329c-1.891-1.903-3.234-4.15-4.007-6.719c-0.345-1.147-2.146-0.658-1.799,0.496
									c0.863,2.869,2.375,5.417,4.487,7.543C386.692,396.502,388.011,395.182,387.164,394.329L387.164,394.329z"/>
							</g>
						</g>
						<g>
							<path style="fill:#6189D8;" d="M395.192,513.53c0.248,1.598-1.866,3.614-5.063,5.58
								c-6.94-28.076-10.405-103.088-10.365-108.896c0.05-6.95,6.691-8.816,6.691-8.816c-0.05,0.268-0.06,0.824-0.04,1.628v0.069
								C385.959,426.357,391.807,491.648,395.192,513.53z"/>
						</g>
					</g>
					<g>
						<g>
							<g>
								<path style="fill:#F25A42;" d="M437.952,373.996c-4.398,1.271-8.826,2.234-13.383,3.018
									c-11.864,2.025-61.915,8.537-89.467-0.248c2.085-23.331,8.851-27.997,12.366-54.276c0.755-5.58,0.866-12.614,0.876-20.993
									c0,0-6.406-0.932-7.319-6.979c-1.797-11.884,5.137-21.185,4.135-28.125c-1.41-9.69-2.616-23.388-5.197-29.295
									c0,0,19.767-7.476,22.02-7.615c0,0,7.486,23.341,12.182,22.854c8.359-0.864,22.199-23.559,22.199-23.559
									c12.182,3.971,12.986,2.502,26.518,7.496c-0.695,19.32-0.655,31.005-1.291,49.69c-0.03,0.814-0.06,1.648-0.089,2.492
									c-0.139,4.031-5.441,15.925-4.577,19.856c0.894,4.061,2.73,14.008,4.577,17.721
									C428.501,340.102,439.67,373.5,437.952,373.996z"/>
							</g>
						</g>
						<g>
							<g>
								<path style="fill:#DB493A;" d="M437.952,373.996c-4.398,1.271-8.826,2.234-13.383,3.018l-0.01-0.01
									c0,0-2.184-21.792-7.376-36.486c-5.202-14.694-5.272-39.524-4.239-44.478c1.023-4.964,2.879-19.628,2.879-19.628
									l5.768,9.551c-0.03,0.814-0.06,1.648-0.089,2.492c-0.139,4.031-5.441,15.925-4.577,19.856
									c0.894,4.061,2.73,14.008,4.577,17.721C428.501,340.102,439.67,373.5,437.952,373.996z"/>
							</g>
							<g>
								<g>
									<path style="fill:#DB493A;" d="M352.702,253.056c5.092,6.435,20.257,18.501,28.202,9.909
										c0.814-0.881-0.502-2.203-1.319-1.319c-7.042,7.616-21.116-4.289-25.563-9.909
										C353.277,250.796,351.964,252.124,352.702,253.056L352.702,253.056z"/>
								</g>
							</g>
							<g>
								<g>
									<path style="fill:#DB493A;" d="M357.71,267.413c2.316,1.82,4.633,3.64,6.95,5.46c0.934,0.734,2.263-0.578,1.319-1.319
										c-2.317-1.82-4.633-3.64-6.95-5.46C358.095,265.36,356.766,266.671,357.71,267.413L357.71,267.413z"/>
								</g>
							</g>
							<g>
								<g>
									<path style="fill:#DB493A;" d="M358.45,326.778c7.728,5.98,18.152,14.66,28.544,14.608c4.058-0.02,6.644-2.741,5.775-6.8
										c-0.251-1.174-2.05-0.677-1.799,0.496c1.286,6.011-6.601,4.302-9.848,3.199c-7.919-2.69-14.807-7.758-21.353-12.823
										C358.832,324.733,357.502,326.044,358.45,326.778L358.45,326.778z"/>
								</g>
							</g>
							<g>
								<g>
									<path style="fill:#DB493A;" d="M363.561,344.155c10.114,3.626,20.38,6.743,30.803,9.351
										c1.165,0.292,1.662-1.507,0.496-1.799c-10.423-2.609-20.689-5.725-30.803-9.351
										C362.925,341.95,362.438,343.752,363.561,344.155L363.561,344.155z"/>
								</g>
							</g>
							<g>
								<g>
									<path style="fill:#DB493A;" d="M342.15,249.942c0.819,6.177,2.926,12.26,3.152,18.514
										c0.194,5.356-2.102,11.21-3.196,16.416c-0.975,4.637-2.52,9.312,0.586,13.486c4.782,6.427,14,6.847,21.092,5.073
										c1.164-0.291,0.671-2.091-0.496-1.799c-6.862,1.716-21.284,0.74-20.658-9.531c0.316-5.182,2.083-10.559,3.22-15.608
										c0.864-3.84,1.543-6.838,1.024-10.793c-0.694-5.298-2.158-10.471-2.859-15.759
										C343.86,248.769,341.992,248.753,342.15,249.942L342.15,249.942z"/>
								</g>
							</g>
							<g>
								<g>
									<path style="fill:#DB493A;" d="M406.731,276.889c2.531,3.842,5.901,6.925,9.978,9.062c1.062,0.557,2.007-1.053,0.942-1.611
										c-3.796-1.991-6.949-4.812-9.309-8.393C407.684,274.949,406.068,275.882,406.731,276.889L406.731,276.889z"/>
								</g>
							</g>
							<g>
								<g>
									<path style="fill:#DB493A;" d="M409.089,287.267c1.382,1.08,2.911,1.849,4.628,2.232c1.17,0.261,1.669-1.537,0.496-1.799
										c-1.387-0.31-2.68-0.874-3.805-1.753C409.473,285.217,408.143,286.528,409.089,287.267L409.089,287.267z"/>
								</g>
							</g>
						</g>
					</g>
					<g>
						<g>
							<path style="fill:#EE9949;" d="M395.736,257.338l5.102,80.829c0.082,1.297-0.9,2.411-2.197,2.493l-54.591,3.446
								c-1.287,0.081-2.401-0.901-2.483-2.198l-5.102-80.829c-0.081-1.287,0.9-2.402,2.188-2.483l54.591-3.446
								C394.541,255.069,395.655,256.051,395.736,257.338z"/>
							<path style="fill:#E28B44;" d="M364.529,342.814l-20.479,1.293c-1.287,0.081-2.401-0.901-2.483-2.198l-5.102-80.829
								c-0.081-1.287,0.9-2.402,2.188-2.483l6.806-0.43c-0.062,0.926,1.484,24.446,6.214,50.47
								C354.801,325.845,362.48,341.15,364.529,342.814z"/>
							<g>
								<path style="fill:#E28B44;" d="M356.554,276.096c0.854,13.529,1.708,27.057,2.562,40.586c0.04,0.639,1.041,0.644,1,0
									c-0.854-13.529-1.708-27.057-2.562-40.586C357.514,275.456,356.514,275.452,356.554,276.096L356.554,276.096z"/>
							</g>
							<g>
								<path style="fill:#E28B44;" d="M369.256,270.952c1.302,20.626,2.604,41.251,3.906,61.877c0.04,0.639,1.041,0.644,1,0
									c-1.302-20.626-2.604-41.251-3.906-61.877C370.215,270.313,369.215,270.308,369.256,270.952L369.256,270.952z"/>
							</g>
							<g>
								<path style="fill:#E28B44;" d="M380.78,278.908c0.98,15.525,1.96,31.049,2.94,46.574c0.04,0.639,1.041,0.644,1,0
									c-0.98-15.525-1.96-31.049-2.94-46.574C381.739,278.269,380.739,278.265,380.78,278.908L380.78,278.908z"/>
							</g>
							<path style="fill:#C8D8E5;" d="M369.537,253.251c-0.133-2.106-1.937-3.695-4.042-3.562c-2.096,0.132-3.695,1.937-3.562,4.042
								l-5.407,0.341c-1.164,0.074-2.049,1.077-1.975,2.241l0.462,7.313l22.635-1.429l-0.462-7.313
								c-0.073-1.164-1.077-2.049-2.241-1.975L369.537,253.251z M365.822,254.888c-0.768,0.049-1.437-0.541-1.485-1.309
								c-0.049-0.779,0.54-1.447,1.308-1.495c0.779-0.049,1.447,0.54,1.496,1.318C367.19,254.17,366.601,254.839,365.822,254.888z"
								/>
							<g>
								<path style="fill:#B0C4D1;" d="M357.482,262.207c5.766-0.364,11.533-0.728,17.299-1.092c0.639-0.04,0.644-1.041,0-1
									c-5.766,0.364-11.533,0.728-17.299,1.092C356.843,261.247,356.839,262.247,357.482,262.207L357.482,262.207z"/>
							</g>
						</g>
						<g>
							<path style="fill:#FFB182;" d="M469.027,332.199c-4.041,4.358-10.99,4.279-16.709,2.68
								c-6.533-1.827-12.539-5.153-18.426-8.518c-10.772-6.155-19.529-11.378-29.993-18c-0.03-0.01-0.04-0.02-0.04-0.02
								c-5.232,1.251-9.203,1.866-16.779,0.526c-0.814-0.149-3.594-0.705-4.398-1.102c-2.214-1.102,0.844-1.886,0-2.383
								c-1.211-0.725-3.356-1.717-4.021-2.363c-1.42-1.4,0.199-2.72,0.199-2.72c-0.914-1.311-2.145-2.293-1.39-3.564
								c0.526-0.874,1.291-0.715,1.658-1.41c0,0-2.303-2.214-1.886-3.783c0.318-1.241,3.574-0.516,5.371-0.268
								c5.381,0.754,12.311,2.929,15.101,0.308c-0.003-2.058-0.223-3.954-0.185-5.85c2.055,0.318,4.236,1.621,5.983,2.753
								c2.333,1.519,1.857,3.663,4.438,4.706c9.352,3.802,21.365,6.741,30.717,10.544c-16.56-12.47-28.116-37.578-28.821-47.635
								c-1.142-16.074,7.208-25.455,18.903-16.461c10.395,7.992,16.351,20.342,21.693,31.988
								c5.877,12.837,11.765,25.664,17.642,38.501c0.784,1.708,1.559,3.544,2.194,5.421
								C472.313,321.477,473.068,327.831,469.027,332.199z"/>
						</g>
						<g>
							<g>
								<g>
									<path style="fill:#EF9B70;" d="M442.261,305.417c4.533,0.577,8.708,2.201,12.491,4.754
										c0.998,0.673,1.933-0.942,0.942-1.611c-4.076-2.751-8.561-4.388-13.433-5.008
										C441.073,303.4,441.084,305.267,442.261,305.417L442.261,305.417z"/>
								</g>
							</g>
							<g>
								<g>
									<path style="fill:#EF9B70;" d="M380.714,296.388c2.946,0.246,5.82,0.799,8.652,1.639c1.154,0.342,1.646-1.458,0.496-1.799
										c-2.994-0.888-6.037-1.446-9.148-1.706C379.518,294.422,379.524,296.288,380.714,296.388L380.714,296.388z"/>
								</g>
							</g>
							<g>
								<g>
									<path style="fill:#EF9B70;" d="M381.469,300.337c2.478,0.516,4.956,1.031,7.434,1.547c1.172,0.244,1.673-1.554,0.496-1.799
										c-2.478-0.516-4.956-1.031-7.434-1.547C380.793,298.294,380.292,300.092,381.469,300.337L381.469,300.337z"/>
								</g>
							</g>
							<g>
								<g>
									<path style="fill:#EF9B70;" d="M383.927,305.419c1.818,0.344,3.635,0.688,5.453,1.033c1.174,0.222,1.676-1.576,0.496-1.799
										c-1.818-0.344-3.635-0.688-5.453-1.033C383.249,303.398,382.746,305.196,383.927,305.419L383.927,305.419z"/>
								</g>
							</g>
							<g>
								<path style="fill:#EF9B70;" d="M469.027,332.199c-4.041,4.358-10.99,4.279-16.709,2.68
									c-6.533-1.827-12.539-5.153-18.426-8.518c-10.772-6.155-19.529-11.378-29.993-18c1.499,0.755,46.92,23.698,54.078,21.266
									c7.287-2.482,11.695-0.864,12.301-14.078C472.313,321.477,473.068,327.831,469.027,332.199z"/>
							</g>
						</g>
						<g>
							<path style="fill:#F25A42;" d="M435.527,302.523c1.193,0.266,15.15-5.523,19.971-6.939c3.303-0.97,7.148-2.498,7.855-5.867
								c-6.349-3.917-8.628-11.848-11.049-18.904c-4.725-13.767-15.966-35.767-33.299-35.52
								c-18.431,0.263-10.655,27.554-6.065,36.921c3.039,6.202,10.679,16.932,16.286,23.821
								C432.308,299.822,428.61,300.984,435.527,302.523z"/>
						</g>
						<g>
							<g>
								<path style="fill:#DB493A;" d="M420.518,284.445c-5.059-9.133-9.325-19.486-8.617-30.121c0.08-1.199-1.786-1.194-1.866,0
									c-0.73,10.955,3.658,21.65,8.872,31.063C419.489,286.438,421.101,285.498,420.518,284.445L420.518,284.445z"/>
							</g>
						</g>
					</g>
				</g>
				<g>
					<g>
						<g>
							<path style="fill:#FFB182;" d="M80.494,207.382c3.471,4.435,8.038,8.249,13.489,9.666c3.328,0.865,6.818,0.802,10.256,0.733
								c10.551-0.212,17.203-0.499,27.611-2.244c5.961-0.999,3.585-6.441,3.451-8.278c-0.52-7.101-3.414-12.193-3.451-14.323
								c-0.019-1.114,3.524-4.76,2.915-5.693c-0.357-0.547-5.658-4.022-6.173-4.424c-6.013-4.699-5.777-12.495-13.081-18.843
								c-9.507-8.262-32.888-8.451-40.698,2.686C66.959,177.859,72.978,197.78,80.494,207.382z"/>
						</g>
						<g>
							<path style="fill:#FFB182;" d="M94.58,237.397c-1.397,1.66-4.442,7.703-3.684,9.736c0.616,1.652,12.804,5.971,25.765,3.147
								c17.95-3.911,26.837-11.193,26.233-11.493c-6.317-3.14-11.341-5.192-14.264-11.612c-2.927-6.43-3.993-11.904-6.442-18.531
								c-10.689,1.294-25.134-0.21-34.846-4.429C88.416,209.422,96.622,234.97,94.58,237.397z"/>
						</g>
						<g>
							<path style="fill:#FFFFFF;" d="M81.24,225.771c15.744-6.314,32.936-8.986,49.853-7.747c0.77,0.056,2.023,13.754,3.672,17.403
								c-5.171,3.586-6.499,0.935-12.736,1.772c-11.292,1.515-22.76,3.723-34.111,4.49C87.255,239.958,81.072,225.838,81.24,225.771
								z"/>
						</g>
						<g>
							<path style="fill:#CB374F;" d="M99.837,176.88c3.662,7.33,5.345,10.7,9.007,18.03c0.649,1.3-0.161,13.917-0.46,15.339
								c-0.92,4.371-10.813,7.658-17.341,7.568c-2.846-0.039-10.242-6.186-12.85-7.626c-8.494-4.688-14.909-12.614-15.779-22.276
								c-0.201-2.231,2.155-4.801,1.829-7.017c-0.62-4.208-2.251-5.403-1.759-9.629c0.79-6.778,8.072-10.708,14.685-12.39
								c5.192-1.32,10.597-2,15.493-4.177c4.895-2.177,9.371-6.289,10.114-11.595c0.146-1.041,8.604,1.117,13.661,5.715
								c6.252,5.684,8.052,12.654,3.911,15.875C114.919,168.918,104.231,171.948,99.837,176.88z"/>
						</g>
						<g>
							<path style="fill:#FFB182;" d="M97.741,184.918c-1.286,1.059-2.002,2.737-2.003,4.403c-0.001,2.516,1.491,4.783,3.142,6.681
								c2.017,2.319,5.045,4.749,8.319,3.65c2.663-0.894,4.576-4.314,4.11-7.081C110.553,188.076,101.81,181.569,97.741,184.918z"/>
						</g>
						<g>
							<g>
								<path style="fill:#DB8863;" d="M100.045,186.552c-4.459,4.088,1.557,10.482,5.706,11.592
									c1.106,0.296,1.578-1.418,0.472-1.714c-1.904-0.509-3.549-1.573-4.661-3.226c-1.037-1.54-1.842-3.946-0.261-5.396
									C102.146,187.034,100.887,185.78,100.045,186.552L100.045,186.552z"/>
							</g>
						</g>
						<g>
							<g>
								<path style="fill:#CB374F;" d="M111.166,178.747c1.701-1.568,3.621-2.802,5.737-3.731c1.045-0.459,0.141-1.99-0.897-1.534
									c-2.254,0.99-4.287,2.342-6.097,4.009C109.066,178.267,110.325,179.521,111.166,178.747L111.166,178.747z"/>
							</g>
						</g>
						<g>
							<path style="fill:#454658;" d="M119.586,179.566c0.711,1.232,0.637,2.606-0.166,3.069c-0.803,0.463-2.03-0.16-2.741-1.391
								c-0.711-1.232-0.637-2.606,0.166-3.069C117.647,177.711,118.874,178.334,119.586,179.566z"/>
						</g>
						<g>
							<g>
								<path style="fill:#E0536F;" d="M71.84,175.023c-0.559-3.179-0.171-6.293,1.046-9.272c0.432-1.058-1.286-1.519-1.714-0.472
									c-1.344,3.288-1.66,6.726-1.046,10.217C70.324,176.62,72.037,176.144,71.84,175.023L71.84,175.023z"/>
							</g>
						</g>
						<g>
							<g>
								<path style="fill:#E0536F;" d="M80.107,174.105c-0.499-2.641-0.109-5.24,1.122-7.626c0.524-1.015-1.009-1.915-1.535-0.897
									c-1.462,2.833-1.893,5.865-1.301,8.995C78.605,175.699,80.319,175.224,80.107,174.105L80.107,174.105z"/>
							</g>
						</g>
						<g>
							<g>
								<path style="fill:#E0536F;" d="M87.385,175.055c1.234-2.988,2.856-5.792,4.833-8.35c0.691-0.894-0.558-2.161-1.257-1.257
									c-2.178,2.819-3.93,5.842-5.29,9.135C85.235,175.639,86.953,176.099,87.385,175.055L87.385,175.055z"/>
							</g>
						</g>
						<g>
							<g>
								<path style="fill:#E0536F;" d="M98.365,170.245c4.068-1.902,8.983-3.922,12.135-7.248c2.861-3.019,3.281-7.222,3.574-11.176
									c0.085-1.141-1.693-1.135-1.777,0c-0.349,4.701-1.09,8.866-5.213,11.695c-2.991,2.052-6.339,3.663-9.616,5.195
									C96.433,169.194,97.334,170.727,98.365,170.245L98.365,170.245z"/>
							</g>
						</g>
						<g>
							<g>
								<path style="fill:#E0536F;" d="M101.993,162.693c2.111-1.862,3.947-3.976,5.517-6.311c0.64-0.952-0.899-1.842-1.534-0.897
									c-1.488,2.212-3.24,4.189-5.239,5.952C99.877,162.194,101.137,163.447,101.993,162.693L101.993,162.693z"/>
							</g>
						</g>
						<g>
							<g>
								<path style="fill:#E0536F;" d="M95.044,160.943c1.725-0.419,3.267-1.28,4.545-2.511c0.825-0.795-0.432-2.051-1.257-1.257
									c-1.066,1.027-2.324,1.705-3.76,2.054C93.461,159.499,93.931,161.213,95.044,160.943L95.044,160.943z"/>
							</g>
						</g>
						<g>
							<g>
								<path style="fill:#E0536F;" d="M66.284,187.242c0.031,7.801,4.908,14.634,12.233,17.276
									c1.078,0.389,1.542-1.328,0.472-1.714c-6.57-2.37-10.901-8.592-10.928-15.563C68.057,186.099,66.28,186.096,66.284,187.242
									L66.284,187.242z"/>
							</g>
						</g>
						<g>
							<g>
								<path style="fill:#E0536F;" d="M74.859,188.888c0.749,4.987,3.961,9.25,8.539,11.36c1.032,0.475,1.936-1.056,0.897-1.535
									c-4.216-1.943-7.034-5.709-7.723-10.298C76.403,187.288,74.691,187.767,74.859,188.888L74.859,188.888z"/>
							</g>
						</g>
						<g>
							<g>
								<path style="fill:#E0536F;" d="M83.92,189.072c1.279,2.141,2.865,4.057,4.74,5.701c0.857,0.751,2.118-0.501,1.257-1.257
									c-1.768-1.55-3.256-3.323-4.462-5.342C84.868,187.194,83.331,188.086,83.92,189.072L83.92,189.072z"/>
							</g>
						</g>
						<g>
							<g>
								<path style="fill:#E0536F;" d="M84.284,208.635c1.676,0.94,3.352,1.88,5.029,2.819c0.999,0.56,1.896-0.975,0.897-1.535
									c-1.676-0.94-3.352-1.88-5.029-2.819C84.182,206.541,83.285,208.075,84.284,208.635L84.284,208.635z"/>
							</g>
						</g>
						<g>
							<g>
								<path style="fill:#E0536F;" d="M90.671,206.889c0.91,0.629,1.819,1.258,2.729,1.886c0.943,0.652,1.833-0.888,0.897-1.534
									c-0.91-0.629-1.819-1.258-2.729-1.887C90.625,204.702,89.736,206.242,90.671,206.889L90.671,206.889z"/>
							</g>
						</g>
						<g>
							<g>
								<path style="fill:#E0536F;" d="M95.707,204.182c1.221,0.626,2.441,1.252,3.662,1.878c1.016,0.521,1.916-1.012,0.897-1.534
									c-1.22-0.626-2.441-1.252-3.662-1.878C95.588,202.126,94.688,203.659,95.707,204.182L95.707,204.182z"/>
							</g>
						</g>
						<g>
							<g>
								<path style="fill:#DB8863;" d="M112.603,208.079c1.41,2.9,3.839,5.043,6.838,6.194c1.069,0.41,1.531-1.307,0.472-1.714
									c-2.574-0.988-4.576-2.91-5.776-5.378C113.637,206.153,112.104,207.053,112.603,208.079L112.603,208.079z"/>
							</g>
						</g>
						<g>
							<g>
								<path style="fill:#DB8863;" d="M129.205,197.027c-1.426,1.223-3.25,1.752-5.109,1.45c-0.753-0.122-1.395,0.578-1.003,1.305
									c1.636,3.042,4.867,4.874,8.319,4.704c1.138-0.056,1.145-1.834,0-1.777c-2.857,0.141-5.429-1.305-6.784-3.824
									c-0.334,0.435-0.669,0.87-1.003,1.305c2.536,0.412,4.885-0.232,6.838-1.907
									C131.331,197.538,130.069,196.286,129.205,197.027L129.205,197.027z"/>
							</g>
						</g>
					</g>
					<g>
						<g>
							<path style="fill:#FFB182;" d="M82.693,387.399c7.146,9.192,4.612,16.565,6.859,19.204c1.335,1.568,3.226,2.538,5.096,3.4
								c2.837,1.307,6.22,2.443,8.973,0.967c3.473-1.861,3.851-6.603,3.785-10.543c-0.056-3.366-0.12-6.787-1.132-9.998
								c-0.217-0.689-0.495-1.392-1.034-1.874c-0.656-0.587-1.583-0.748-2.351-1.178c-1.793-1.004-2.412-3.223-3.105-5.158
								c-2.327-6.498-7.346-11.985-13.611-14.883c-2.656-1.229-6.102-1.888-8.274,0.074c-1.472,1.329-1.872,3.461-2.021,5.439
								C75.222,381.556,81.015,385.24,82.693,387.399z"/>
						</g>
						<g>
							<path style="fill:#5F9AA8;" d="M32.002,341.846c-0.32,13.991,30.173,36.743,50.691,45.553
								c4.648-1.61,10.307-7.267,12.483-13.144c0.405-1.093-24.531-31.971-33.726-38.851c5.112-12.404,16.995-30.17,20.246-43.942
								c0.936-3.966-1.539-21.978-4.601-26.786c-3.817-5.993-13.326-19.048-19.119-11.913
								c-8.259,10.171-12.123,29.385-14.736,37.113C40.139,299.048,32.126,336.427,32.002,341.846z"/>
						</g>
						<g>
							<g>
								<path style="fill:#518A93;" d="M63.062,291.321c3.188,4.779,6.472,9.491,9.852,14.136c0.666,0.916,2.209,0.03,1.534-0.897
									c-3.38-4.645-6.664-9.357-9.852-14.136C63.965,289.478,62.425,290.366,63.062,291.321L63.062,291.321z"/>
							</g>
						</g>
						<g>
							<g>
								<path style="fill:#518A93;" d="M60.13,300.144c2.947,3.059,6.239,5.714,9.847,7.955c0.974,0.605,1.868-0.932,0.897-1.534
									c-3.484-2.164-6.643-4.724-9.488-7.677C60.592,298.063,59.336,299.32,60.13,300.144L60.13,300.144z"/>
							</g>
						</g>
						<g>
							<g>
								<path style="fill:#518A93;" d="M50.638,336.747c2.709,0.135,5.38-0.057,8.047-0.545c1.123-0.206,0.647-1.919-0.472-1.714
									c-2.512,0.46-5.026,0.608-7.574,0.481C49.495,334.913,49.498,336.69,50.638,336.747L50.638,336.747z"/>
							</g>
						</g>
						<g>
							<g>
								<path style="fill:#518A93;" d="M53.708,345.056c0.823-1.761,2.003-3.233,3.537-4.425c0.902-0.701-0.364-1.951-1.257-1.257
									c-1.637,1.273-2.937,2.907-3.815,4.785C51.693,345.189,53.224,346.093,53.708,345.056L53.708,345.056z"/>
							</g>
						</g>
					</g>
					<g>
						<g>
							<path style="fill:#5F9AA8;" d="M184.63,379.153c-1.574,1.656-8.663,3.111-11.157,4.38
								c-23.715,12.055-83.918,7.39-84.185,5.384c-4.307-32.642-2.466-56.347-18.166-93.618
								c-1.334-3.175-15.046-40.758-13.151-42.534c23.835-22.362,39.369-22.5,55.473-25.592c10.813-2.071,41.182-1.739,46.243,3.782
								c2.126,2.319,8.752,41.108,8.954,46.814c0.184,5.19,0.653,11.08,1.298,17.384
								C172.894,323.744,184.557,360.822,184.63,379.153z"/>
						</g>
						<g>
							<g>
								<path style="fill:#518A93;" d="M184.63,379.153c-0.074-18.332-11.736-55.409-14.69-84.001l-12.368-17.549
									c0,0,7.178,42.617,10.316,62.403c3.138,19.776,0.755,39.001,0.755,39.001l4.831,4.528L184.63,379.153z"/>
							</g>
							<g>
								<g>
									<path style="fill:#518A93;" d="M148.443,283.616c4.647,4.092,9.499,7.92,14.556,11.492
										c0.936,0.661,1.825-0.879,0.897-1.534c-4.934-3.485-9.663-7.223-14.197-11.214
										C148.845,281.606,147.583,282.858,148.443,283.616L148.443,283.616z"/>
								</g>
							</g>
							<g>
								<g>
									<path style="fill:#518A93;" d="M152.567,293.428c3.378,1.371,6.756,2.742,10.134,4.113c1.059,0.43,1.52-1.288,0.472-1.714
										c-3.378-1.371-6.756-2.742-10.134-4.113C151.98,291.284,151.519,293.003,152.567,293.428L152.567,293.428z"/>
								</g>
							</g>
							<g>
								<g>
									<path style="fill:#518A93;" d="M75.206,299.231c-1.465-5.767-4.236-11.063-5.922-16.759
										c-1.86-6.284-2.628-12.759-2.525-19.304c0.018-1.144-1.759-1.144-1.777,0c-0.097,6.172,0.555,12.283,2.158,18.253
										c1.68,6.256,4.758,12.006,6.352,18.283C73.774,300.811,75.488,300.341,75.206,299.231L75.206,299.231z"/>
								</g>
							</g>
							<g>
								<g>
									<path style="fill:#518A93;" d="M90.365,380.661c-1.198-4.587-1.904-9.228-2.115-13.965c-0.051-1.139-1.828-1.145-1.777,0
										c0.218,4.896,0.939,9.695,2.178,14.438C88.941,382.239,90.655,381.771,90.365,380.661L90.365,380.661z"/>
								</g>
							</g>
							<g>
								<g>
									<path style="fill:#518A93;" d="M87.627,290.116c9.612,11.223,19.839,24.323,33.56,30.718
										c3.007,1.401,8.227,4.327,11.128,1.484c2.637-2.585,1.185-5.245-1.574-6.932c-0.978-0.598-1.872,0.938-0.897,1.534
										c0.776,0.475,1.761,4.154,0.402,4.76c-0.779,0.348-2.753-0.422-3.573-0.66c-2.279-0.661-4.473-1.6-6.564-2.719
										c-4.335-2.32-8.216-5.382-11.853-8.67c-7.035-6.36-13.214-13.582-19.372-20.773
										C88.138,287.99,86.886,289.251,87.627,290.116L87.627,290.116z"/>
								</g>
							</g>
							<g>
								<g>
									<path style="fill:#518A93;" d="M102.007,329.468c12.628,4.285,23.657,12.138,36.345,16.284
										c1.09,0.356,1.556-1.359,0.472-1.714c-12.684-4.145-23.714-11.999-36.345-16.284
										C101.394,327.386,100.928,329.102,102.007,329.468L102.007,329.468z"/>
								</g>
							</g>
						</g>
					</g>
					<g>
						<g>
							<path style="fill:#FFB182;" d="M218.667,231.167c0.35-2.115,1.162-8.724-2.677-10.565c-2.599-1.246-1.27-3.775-3.847-5.066
								c-2.222-1.113-3.31,1.142-5.532,0.029c-0.681-0.341-1.213-2.162-1.651-2.785c-0.519-0.737-3.638,0.67-3.691-0.23
								c-0.353-5.979,1.402-16.368,0-19.555c-0.99-2.249-3.361,1.464-3.503,2.07c-0.839,3.579-1.42,15.958-2.719,23.877
								c-0.431,2.624-1.322,5.184-1.402,7.841c-0.095,3.151,0.954,6.211,1.989,9.189c2.193,6.305,4.385,12.611,6.578,18.916
								c0.095,0.272,0.207,0.566,0.455,0.713c0.212,0.125,0.476,0.112,0.722,0.095c5.361-0.369,10.722-0.738,16.082-1.107
								C215.194,246.887,217.272,239.585,218.667,231.167z"/>
						</g>
						<g>
							<path style="fill:#5F9AA8;" d="M228.478,318.057c-0.258,0.773-1.058,7.215-6.442,8.144
								c-10.003,1.73-20.78-4.427-26.688-8.144c-17.669-11.107-26.798-22.703-37.777-40.454c-2.862-4.629-5.494-9.571-6.166-14.963
								c-0.681-5.402,3.543-34.353,8.282-31.684c9.957,5.614,16.638,16.436,23.678,24.755c8.181,9.672,11.144,14.788,17.899,25.51
								c-1.316-13.684-2.393-22.574-2.696-38.761c1.426-1.555,3.782-2.337,6.341-2.641c5.319-0.644,11.549,0.745,12.249,1.463
								c0.773,0.782,12.009,35.117,13.555,54.019C231.137,300.545,230.714,311.312,228.478,318.057z"/>
						</g>
						<g>
							<g>
								<path style="fill:#518A93;" d="M148.209,257.181c-0.286,6.69,3.408,12.586,6.585,18.223
									c3.726,6.61,7.865,12.962,12.327,19.097c0.666,0.916,2.209,0.03,1.535-0.897c-3.824-5.258-7.416-10.673-10.707-16.281
									c-3.529-6.012-8.27-12.93-7.962-20.142C150.035,256.037,148.258,256.04,148.209,257.181L148.209,257.181z"/>
							</g>
						</g>
						<g>
							<g>
								<path style="fill:#518A93;" d="M202.789,286.783c4.78,5.234,8.22,11.264,10.302,18.039c0.335,1.09,2.051,0.625,1.714-0.472
									c-2.168-7.055-5.783-13.374-10.76-18.823C203.272,284.68,202.018,285.94,202.789,286.783L202.789,286.783z"/>
							</g>
						</g>
						<g>
							<g>
								<path style="fill:#518A93;" d="M205.298,286.4c3.841,2.264,7.436,4.854,10.79,7.793c0.857,0.751,2.119-0.501,1.257-1.257
									c-3.466-3.037-7.179-5.731-11.15-8.071C205.207,284.283,204.312,285.819,205.298,286.4L205.298,286.4z"/>
							</g>
						</g>
						<g>
							<path style="fill:#518A93;" d="M209.06,293.56l-7.795-12.341c-1.316-13.684-2.393-22.574-2.696-38.761
								c1.426-1.555,3.782-2.337,6.341-2.641C207.698,253.087,210.339,287.744,209.06,293.56z"/>
						</g>
					</g>
					<g>
						<g>
							<path style="fill:#454658;" d="M188.5,504c-5.19,3.994-19.398,4.9-25.802,5.093c-2.77,0.092-4.887-0.147-5.696-0.672
								c-1.758-1.15-9.184-67.252-19.188-86.044c-0.009-0.009-0.009-0.009-0.009-0.009c0.111,20.025,3.251,66.719,3.361,86.744
								c0.009,1.932-27.299,0.977-34.753,0.729c-1.789-28.945-9.653-71.815-12.96-80.896c-2.99-8.209-5.202-32.946-4.163-40.029
								c0.231-1.579,94.992-11.015,95.342-9.764c5.521,19.905,3.708,33.005,4.031,46.562C189.367,455.253,188.833,478.225,188.5,504
								z"/>
						</g>
						<g>
							<g>
								<path style="fill:#373947;" d="M122.074,405.811c2.559,4.746,6.283,8.625,10.91,11.391c0.984,0.588,1.879-0.947,0.897-1.534
									c-4.379-2.618-7.852-6.263-10.273-10.754C123.066,403.907,121.531,404.804,122.074,405.811L122.074,405.811z"/>
							</g>
						</g>
						<g>
							<g>
								<path style="fill:#373947;" d="M116.662,419.07c4.965,0.827,9.856,1.938,14.692,3.338c1.101,0.319,1.571-1.396,0.472-1.714
									c-4.835-1.399-9.726-2.511-14.692-3.338C116.016,417.171,115.535,418.883,116.662,419.07L116.662,419.07z"/>
							</g>
						</g>
						<g>
							<g>
								<path style="fill:#373947;" d="M114.136,428.766c4.727,0.25,9.386-0.079,14.036-0.957c1.122-0.212,0.647-1.925-0.473-1.714
									c-4.498,0.85-8.995,1.135-13.563,0.894C112.993,426.929,112.997,428.706,114.136,428.766L114.136,428.766z"/>
							</g>
						</g>
						<g>
							<g>
								<path style="fill:#373947;" d="M140.162,416.171c7.81,1.687,15.609,1.724,23.435,0.115c1.119-0.23,0.646-1.943-0.472-1.714
									c-7.531,1.548-14.976,1.508-22.491-0.115C139.519,414.217,139.043,415.93,140.162,416.171L140.162,416.171z"/>
							</g>
						</g>
						<g>
							<g>
								<path style="fill:#373947;" d="M147.493,422.29c4.44,1.324,8.95,2.107,13.574,2.378c1.143,0.067,1.139-1.71,0-1.777
									c-4.465-0.262-8.817-1.037-13.101-2.315C146.867,420.249,146.398,421.964,147.493,422.29L147.493,422.29z"/>
							</g>
						</g>
						<g>
							<path style="fill:#373947;" d="M162.698,509.093c-2.77,0.092-4.887-0.147-5.696-0.672
								c-1.758-1.15-9.184-67.252-19.188-86.044c0.276,0.101,4.739,1.785,8.531,5.089
								C149.832,430.513,159.918,489.529,162.698,509.093z"/>
						</g>
					</g>
				</g>
			</g>
		</g>
	</g>
</g>
</svg>
