<?xml version="1.0" encoding="utf-8"?>
<!-- Generator: Adobe Illustrator 27.5.0, SVG Export Plug-In . SVG Version: 6.00 Build 0)  -->
<svg version="1.1" xmlns="http://www.w3.org/2000/svg" xmlns:xlink="http://www.w3.org/1999/xlink" x="0px" y="0px"
	 viewBox="0 0 3710 3710" style="enable-background:new 0 0 3710 3710;" xml:space="preserve">
<g id="Background">
	<g>
		<g>
			<rect style="fill:#FFFFFF;" width="3710" height="3710"/>
		</g>
	</g>
</g>
<g id="Illustration">
	<g>
		<linearGradient id="SVGID_1_" gradientUnits="userSpaceOnUse" x1="3603.5662" y1="4080.1479" x2="1111.645" y2="985.3383">
			<stop  offset="0" style="stop-color:#DAE3FE"/>
			<stop  offset="1" style="stop-color:#E9EFFD"/>
		</linearGradient>
		<path style="fill:url(#SVGID_1_);" d="M2920.372,2858.04c-57.367,60.169-111.647,98.972-154.533,129.629
			c-504.115,360.365-1100.616,255.32-1227.39,229.667c-187.204-37.881-549.067-111.104-810.687-417.622
			c-395.809-463.735-334.176-1194.337-27.159-1676.617c56.158-88.217,352.802-577.844,955.728-656.365
			c364.885-47.52,790.223,48.322,1098.241,305.422C3401.129,1311.831,3355.101,2402.071,2920.372,2858.04z"/>
		<g>
			<g>
				<g style="opacity:0.3;">
					<path style="fill:#BDD0FB;" d="M754.449,1042.633c-4.76,1.668-10.11-0.497-12.311-5.157
						c-4.817-10.192-9.26-20.745-13.21-31.365c-1.922-5.167,0.708-10.913,5.873-12.834c0.063-0.022,0.123-0.043,0.184-0.064
						c5.117-1.793,10.751,0.834,12.649,5.939c3.752,10.09,7.975,20.113,12.548,29.795c2.355,4.982,0.225,10.933-4.76,13.287
						C755.102,1042.388,754.776,1042.518,754.449,1042.633z M726.308,960.375c-0.368,0.129-0.749,0.238-1.14,0.325
						c-5.379,1.199-10.714-2.19-11.913-7.569c-2.461-11.05-4.475-22.315-5.983-33.479c-0.738-5.462,3.073-10.469,8.552-11.229
						c5.462-0.737,10.488,3.095,11.225,8.553c1.435,10.613,3.348,21.313,5.689,31.815
						C733.85,953.779,731.015,958.725,726.308,960.375z M716.979,873.966c-1.048,0.367-2.177,0.565-3.352,0.559
						c-5.511-0.031-9.957-4.521-9.928-10.032c0.057-11.297,0.608-22.733,1.637-33.989c0.505-5.489,5.363-9.525,10.847-9.03
						c5.487,0.502,9.531,5.359,9.03,10.847c-0.978,10.69-1.5,21.546-1.555,32.276C723.635,868.932,720.849,872.61,716.979,873.966z
						 M727.209,787.623c-1.733,0.607-3.653,0.743-5.573,0.292c-5.365-1.259-8.693-6.632-7.434-11.997
						c2.587-11.006,5.68-22.031,9.193-32.771c1.717-5.232,7.349-8.089,12.589-6.381c5.237,1.713,8.094,7.35,6.381,12.589
						c-3.337,10.199-6.276,20.671-8.731,31.13C732.823,783.929,730.319,786.533,727.209,787.623z M756.435,705.731
						c-2.43,0.852-5.185,0.768-7.68-0.452c-4.953-2.419-7.006-8.396-4.585-13.346c4.951-10.132,10.406-20.197,16.215-29.907
						c2.825-4.732,8.953-6.276,13.686-3.445c4.729,2.829,6.271,8.956,3.443,13.688c-5.523,9.229-10.707,18.795-15.412,28.424
						C760.9,703.15,758.826,704.893,756.435,705.731z M803.045,632.348c-3.147,1.103-6.775,0.606-9.564-1.638
						c-4.294-3.456-4.975-9.736-1.521-14.031c7.08-8.8,14.627-17.409,22.431-25.579c3.809-3.987,10.124-4.13,14.11-0.322
						c3.984,3.804,4.129,10.122,0.323,14.108c-7.416,7.765-14.586,15.941-21.313,24.303
						C806.301,630.695,804.743,631.753,803.045,632.348z M1140.297,489.003c-1.304,0.457-2.722,0.648-4.187,0.517
						c-10.679-0.959-21.544-1.464-32.291-1.499c-5.51-0.019-9.964-4.501-9.945-10.01c0.016-5.512,4.499-9.965,10.011-9.947
						c11.318,0.037,22.762,0.567,34.007,1.575c5.49,0.493,9.541,5.343,9.047,10.832
						C1146.581,484.497,1143.877,487.749,1140.297,489.003z M864.72,571.16c-3.907,1.369-8.417,0.198-11.128-3.23
						c-3.419-4.325-2.685-10.6,1.637-14.018c8.86-7.008,18.134-13.714,27.563-19.935c4.613-3.013,10.79-1.769,13.827,2.834
						c3.034,4.6,1.765,10.79-2.836,13.827c-8.955,5.905-17.76,12.274-26.175,18.928C866.713,570.271,865.737,570.803,864.72,571.16z
						 M1053.389,491.045c-0.622,0.218-1.273,0.38-1.951,0.473c-10.629,1.457-21.336,3.395-31.823,5.752
						c-5.378,1.207-10.718-2.172-11.926-7.548c-1.206-5.377,2.16-10.74,7.548-11.926c11.035-2.479,22.302-4.518,33.486-6.054
						c5.461-0.749,10.496,3.072,11.244,8.531C1060.622,485.054,1057.774,489.509,1053.389,491.045z M938.516,525.282
						c-4.753,1.665-10.095-0.49-12.303-5.14c-2.364-4.979-0.245-10.93,4.733-13.298c10.194-4.84,20.734-9.305,31.329-13.266
						c0.065-0.027,0.133-0.051,0.199-0.074c5.11-1.79,10.736,0.827,12.643,5.921c1.931,5.164-0.686,10.914-5.851,12.843
						c-10.063,3.765-20.073,8.008-29.758,12.608C939.181,525.028,938.849,525.165,938.516,525.282z"/>
					<path style="fill:#BDD0FB;" d="M1209.239,501.555c-1.854,0.65-3.919,0.762-5.958,0.196c-4.958-1.377-10.027-2.67-15.068-3.853
						c-5.365-1.255-8.699-6.626-7.442-11.99c1.254-5.367,6.625-8.707,11.993-7.44c5.302,1.24,10.633,2.602,15.851,4.049
						c5.31,1.473,8.423,6.974,6.949,12.282C1214.657,498.074,1212.219,500.511,1209.239,501.555z"/>
				</g>
				<g style="opacity:0.3;">
					<path style="fill:#BDD0FB;" d="M1447.374,690.919c-4.545,1.593-9.701-0.302-12.067-4.673
						c-2.447-4.525-5.031-9.076-7.679-13.522c-2.82-4.737-1.268-10.861,3.467-13.681c4.756-2.831,10.862-1.266,13.681,3.468
						c2.787,4.682,5.509,9.474,8.087,14.238c2.622,4.848,0.818,10.903-4.029,13.526
						C1448.358,690.532,1447.869,690.745,1447.374,690.919z"/>
					<path style="fill:#BDD0FB;" d="M1234.557,1242.788c-4.333,1.518-8.709,2.969-13.126,4.351
						c-5.26,1.645-10.859-1.284-12.506-6.543c-1.647-5.26,1.302-10.886,6.541-12.507c10.193-3.191,20.234-6.788,29.954-10.739
						c5.114-2.068,10.927,0.38,13.002,5.485c2.077,5.109-0.381,10.931-5.487,13.005
						C1246.923,1238.286,1240.739,1240.622,1234.557,1242.788z M1170.192,1259.406c-0.526,0.184-1.077,0.327-1.646,0.424
						c-10.978,1.86-22.157,3.274-33.226,4.203c-5.491,0.462-10.318-3.617-10.779-9.106c-0.461-5.493,3.623-10.336,9.11-10.78
						c10.512-0.883,21.131-2.229,31.565-3.993c5.433-0.921,10.584,2.739,11.504,8.171
						C1177.543,1253.191,1174.696,1257.827,1170.192,1259.406z M1300.098,1212.74c-4.44,1.556-9.498-0.212-11.934-4.435
						c-2.754-4.777-1.114-10.878,3.66-13.633c9.134-5.265,18.165-10.995,26.846-17.035c4.53-3.14,10.745-2.03,13.891,2.493
						c3.147,4.527,2.03,10.746-2.495,13.893c-9.141,6.359-18.655,12.393-28.272,17.94
						C1301.244,1212.28,1300.675,1212.537,1300.098,1212.74z M1084.759,1264.313c-1.196,0.419-2.491,0.612-3.833,0.542
						c-11.108-0.598-22.325-1.678-33.337-3.21c-5.458-0.76-9.266-5.799-8.506-11.257c0.759-5.462,5.795-9.271,11.258-8.509
						c10.456,1.454,21.107,2.48,31.656,3.047c5.503,0.294,9.725,4.998,9.428,10.5
						C1091.203,1259.586,1088.462,1263.016,1084.759,1264.313z M1368.979,1162.087c-3.642,1.276-7.856,0.366-10.641-2.653
						c-3.737-4.052-3.482-10.366,0.57-14.103c7.747-7.142,15.297-14.719,22.442-22.518c3.723-4.064,10.036-4.342,14.1-0.616
						c4.062,3.723,4.338,10.033,0.615,14.096c-7.521,8.212-15.47,16.189-23.627,23.71
						C1371.407,1160.955,1370.225,1161.65,1368.979,1162.087z M1425.078,1097.544c-2.912,1.02-6.255,0.68-8.986-1.209
						c-4.532-3.138-5.663-9.354-2.526-13.886c6.015-8.692,11.734-17.738,16.998-26.886c2.742-4.781,8.841-6.427,13.626-3.675
						c4.778,2.75,6.421,8.849,3.674,13.628c-5.54,9.628-11.558,19.147-17.889,28.292
						C1428.731,1095.607,1426.999,1096.871,1425.078,1097.544z M1465.773,1022.306c-2.215,0.776-4.708,0.778-7.054-0.176
						c-5.105-2.073-7.562-7.896-5.487-13.001c3.984-9.802,7.598-19.874,10.74-29.946c1.641-5.259,7.231-8.197,12.499-6.552
						c5.26,1.643,8.194,7.236,6.552,12.5c-3.308,10.597-7.11,21.202-11.302,31.514
						C1470.599,1019.405,1468.381,1021.392,1465.773,1022.306z M1489.088,939.99c-1.534,0.538-3.22,0.707-4.938,0.421
						c-5.436-0.908-9.105-6.05-8.196-11.486c1.744-10.429,3.061-21.048,3.915-31.566c0.447-5.493,5.268-9.586,10.752-9.141
						c5.495,0.445,9.586,5.261,9.14,10.754c-0.899,11.079-2.286,22.263-4.121,33.241
						C1495.017,935.934,1492.412,938.825,1489.088,939.99z M1493.766,854.531c-0.863,0.302-1.782,0.488-2.74,0.543
						c-5.501,0.313-10.217-3.896-10.527-9.397c-0.598-10.53-1.652-21.172-3.139-31.638c-0.774-5.458,3.039-10.507,8.478-11.281
						c5.457-0.776,10.509,3.022,11.284,8.479c1.564,11.017,2.675,22.223,3.302,33.308
						C1500.682,849.088,1497.857,853.097,1493.766,854.531z M1479.564,770.188c-0.193,0.068-0.391,0.128-0.59,0.186
						c-5.302,1.502-10.819-1.579-12.32-6.881c-2.121-7.485-4.497-14.992-7.065-22.32c-0.929-2.652-1.889-5.29-2.87-7.908
						c-1.935-5.162,0.68-10.916,5.841-12.848c5.187-2.061,10.911,0.679,12.846,5.837c1.034,2.757,2.04,5.527,3.018,8.319
						c2.7,7.707,5.201,15.608,7.431,23.481C1487.303,763.156,1484.503,768.458,1479.564,770.188z"/>
					<path style="fill:#BDD0FB;" d="M1000.116,1250.217c-1.873,0.656-3.956,0.763-6.008,0.184c-5.199-1.47-10.465-3.078-15.652-4.78
						c-5.238-1.717-8.092-7.355-6.374-12.591c1.719-5.237,7.35-8.094,12.591-6.374c4.928,1.615,9.93,3.142,14.866,4.539
						c5.301,1.497,8.386,7.012,6.887,12.316C1005.506,1246.763,1003.077,1249.179,1000.116,1250.217z"/>
				</g>
				<g>
					<path style="fill:#BDD0FB;" d="M974.549,1136.526c1.697,1.039,3.867,0.887,5.402-0.379l43.803-36.109
						c25.171,8.32,51.85,12.688,79.131,12.525l30.524,47.818c1.071,1.678,3.088,2.49,5.022,2.025l66.203-15.925
						c1.935-0.466,3.361-2.108,3.552-4.087l5.437-56.47c24.371-12.263,46.145-28.285,64.778-47.143l55.433,12.237
						c1.943,0.429,3.944-0.422,4.983-2.119l35.552-58.074c1.039-1.698,0.887-3.867-0.379-5.402l-36.108-43.802
						c8.321-25.17,12.687-51.85,12.524-79.131l47.819-30.525c1.677-1.07,2.49-3.087,2.025-5.022l-15.926-66.204
						c-0.465-1.935-2.107-3.361-4.088-3.551l-56.47-5.438c-12.262-24.371-28.284-46.146-47.142-64.778l12.238-55.434
						c0.428-1.942-0.423-3.944-2.119-4.982l-58.074-35.551c-1.697-1.04-3.867-0.887-5.402,0.379l-43.802,36.109
						c-25.171-8.322-51.85-12.688-79.131-12.525l-30.525-47.82c-1.07-1.677-3.087-2.49-5.022-2.026l-66.204,15.926
						c-1.935,0.465-3.361,2.106-3.551,4.088l-5.437,56.47c-24.372,12.262-46.146,28.284-64.778,47.143l-55.432-12.237
						c-1.943-0.43-3.945,0.422-4.984,2.119l-35.551,58.074c-1.039,1.697-0.887,3.866,0.378,5.402l36.108,43.802
						c-8.321,25.171-12.687,51.85-12.524,79.131l-47.82,30.525c-1.677,1.07-2.491,3.087-2.024,5.022l15.925,66.203
						c0.466,1.935,2.107,3.361,4.087,3.552l56.47,5.437c12.263,24.371,28.284,46.145,47.142,64.778l-12.237,55.433
						c-0.429,1.943,0.422,3.944,2.119,4.984L974.549,1136.526z"/>
					
						<linearGradient id="SVGID_00000063626968580741373060000011296662084067100566_" gradientUnits="userSpaceOnUse" x1="1033.1742" y1="863.7439" x2="1170.0441" y2="863.7439">
						<stop  offset="0" style="stop-color:#DAE3FE"/>
						<stop  offset="1" style="stop-color:#E9EFFD"/>
					</linearGradient>
					<path style="fill:url(#SVGID_00000063626968580741373060000011296662084067100566_);" d="M1124.201,928.38
						c-31.487,11.033-67.237-2.401-83.195-32.803c-17.54-33.42-4.622-74.873,28.794-92.414c16.188-8.502,34.718-10.182,52.169-4.744
						c17.454,5.437,31.748,17.347,40.243,33.536c17.541,33.42,4.622,74.873-28.794,92.414
						C1130.405,925.95,1127.323,927.286,1124.201,928.38z M1084.358,814.195c-2.432,0.852-4.814,1.885-7.138,3.104
						c-25.621,13.447-35.523,45.235-22.078,70.854c13.449,25.622,45.232,35.539,70.856,22.079
						c25.621-13.446,35.524-45.235,22.078-70.854c-6.516-12.414-17.472-21.544-30.856-25.715
						C1106.343,810.276,1094.918,810.495,1084.358,814.195z"/>
					
						<linearGradient id="SVGID_00000047028774580209342760000017396239393707507351_" gradientUnits="userSpaceOnUse" x1="933.9466" y1="862.4353" x2="1270.6204" y2="862.4353">
						<stop  offset="0" style="stop-color:#DAE3FE"/>
						<stop  offset="1" style="stop-color:#E9EFFD"/>
					</linearGradient>
					<path style="fill:url(#SVGID_00000047028774580209342760000017396239393707507351_);" d="M1158.212,1021.212
						c-5.408,1.895-10.942,3.529-16.589,4.888l0,0c-1.777,0.428-3.562,0.827-5.353,1.198c-8.83,1.826-17.791,2.946-26.744,3.344
						c-0.122,0.005-0.244,0.011-0.366,0.017c-0.346,0.014-0.692,0.028-1.04,0.038c-0.675,0.026-1.35,0.043-2.023,0.061
						c-1.773,0.043-3.304-1.077-3.863-2.666c-0.135-0.386-0.213-0.801-0.223-1.231c-0.053-2.204,1.696-4.026,3.896-4.083
						c11.341-0.269,22.728-1.763,33.846-4.441c55.234-13.277,96.894-53.847,114.135-103.952
						c9.593-27.868,11.628-58.688,4.237-89.406c-1.295-5.387-2.852-10.669-4.661-15.827c-12.167-34.712-35.706-63.941-67.501-83.403
						c-36.52-22.358-79.563-29.156-121.194-19.141c-85.979,20.692-139.046,107.419-118.372,193.359
						c1.274,5.299,2.813,10.514,4.605,15.623c7.763,22.142,20.284,42.339,36.736,59.099c0.425,0.434,0.731,0.937,0.918,1.475
						c0.495,1.413,0.171,3.05-0.97,4.169c-1.579,1.54-4.099,1.527-5.646-0.054c-17.272-17.595-30.421-38.8-38.57-62.045
						c-1.881-5.363-3.495-10.836-4.835-16.397c-21.706-90.23,34.069-181.293,124.266-202.992
						c43.707-10.515,88.891-3.377,127.231,20.095c33.379,20.431,58.09,51.116,70.865,87.557c1.897,5.415,3.532,10.96,4.894,16.612
						c10.513,43.71,3.378,88.895-20.092,127.234C1225.358,983.728,1194.662,1008.441,1158.212,1021.212z"/>
				</g>
			</g>
			<g>
				<g style="opacity:0.3;">
					<path style="fill:#BDD0FB;" d="M520.022,1403.435c-2.516,0.882-5.41,0.052-7.043-2.226c-3.051-4.25-6.016-8.652-8.809-13.082
						c-1.815-2.878-0.954-6.681,1.926-8.501c2.876-1.83,6.685-0.952,8.501,1.926c2.662,4.221,5.487,8.416,8.398,12.473
						c1.984,2.761,1.35,6.612-1.413,8.601C521.09,1402.978,520.565,1403.245,520.022,1403.435z"/>
					<path style="fill:#BDD0FB;" d="M496.027,1362.541c-2.948,1.033-6.258-0.314-7.611-3.201
						c-3.828-8.156-7.279-16.603-10.256-25.101c-0.627-1.789-1.236-3.592-1.83-5.405c-1.056-3.24,0.923-6.657,3.943-7.779
						c3.236-1.057,6.715,0.709,7.775,3.941c0.566,1.734,1.147,3.457,1.746,5.167c2.84,8.106,6.132,16.162,9.779,23.941
						c1.447,3.083,0.121,6.751-2.959,8.199C496.418,1362.391,496.223,1362.472,496.027,1362.541z M476.147,1301.709
						c-0.275,0.096-0.563,0.178-0.854,0.236c-3.343,0.655-6.583-1.521-7.24-4.862c-2.109-10.716-3.57-21.659-4.343-32.518
						c-0.243-3.397,2.332-6.34,5.71-6.586c3.398-0.24,6.343,2.312,6.586,5.709c0.738,10.361,2.134,20.798,4.143,31.019
						C480.746,1297.751,478.994,1300.712,476.147,1301.709z M471.613,1237.874c-0.738,0.259-1.538,0.379-2.366,0.338
						c-3.399-0.181-6.006-3.088-5.825-6.487c0.585-10.888,1.855-21.863,3.785-32.61c0.601-3.355,3.796-5.578,7.157-4.976
						c3.348,0.6,5.578,3.805,4.978,7.153c-1.839,10.25-3.054,20.708-3.608,31.094C475.594,1234.954,473.9,1237.072,471.613,1237.874
						z M482.911,1174.874c-1.205,0.422-2.548,0.472-3.859,0.07c-3.25-1.011-5.07-4.467-4.06-7.717
						c3.242-10.435,7.158-20.755,11.645-30.682c1.405-3.101,5.06-4.471,8.155-3.074c3.102,1.4,4.48,5.05,3.078,8.156
						c-4.279,9.459-8.016,19.308-11.105,29.256C486.163,1172.823,484.692,1174.25,482.911,1174.874z M509.253,1116.547
						c-1.682,0.589-3.606,0.447-5.249-0.553c-2.906-1.769-3.826-5.56-2.058-8.469c5.677-9.318,11.981-18.376,18.74-26.918
						c2.11-2.678,5.988-3.125,8.658-1.011c2.67,2.113,3.123,5.991,1.011,8.657c-6.449,8.153-12.463,16.791-17.877,25.685
						C511.706,1115.203,510.551,1116.092,509.253,1116.547z M548.948,1066.387c-2.178,0.763-4.701,0.263-6.431-1.491
						c-2.389-2.422-2.359-6.323,0.062-8.715c7.77-7.659,16.092-14.906,24.734-21.531c2.716-2.068,6.572-1.556,8.644,1.143
						c2.071,2.699,1.559,6.571-1.141,8.64c-8.242,6.319-16.174,13.225-23.581,20.527
						C550.565,1065.622,549.78,1066.095,548.948,1066.387z M599.688,1027.464c-2.726,0.955-5.835-0.117-7.349-2.7
						c-1.721-2.937-0.736-6.713,2.2-8.437c9.381-5.5,19.231-10.482,29.277-14.812c3.155-1.297,6.758,0.101,8.101,3.227
						c1.347,3.125-0.096,6.75-3.221,8.1c-9.586,4.124-18.979,8.877-27.924,14.121
						C600.421,1027.17,600.058,1027.335,599.688,1027.464z M689.742,995.082c-0.335,0.117-0.689,0.209-1.054,0.268
						c-8.87,1.443-17.815,3.397-26.592,5.81c-1.331,0.358-2.634,0.725-3.929,1.108c-3.269,0.954-6.692-0.914-7.649-4.182
						c-0.965-3.272,0.901-6.796,4.179-7.651c1.384-0.402,2.766-0.797,4.162-1.172c9.17-2.517,18.548-4.566,27.85-6.078
						c3.361-0.546,6.526,1.732,7.072,5.093C694.268,991.27,692.511,994.111,689.742,995.082z"/>
				</g>
				<g style="opacity:0.3;">
					<path style="fill:#BDD0FB;" d="M820.757,1495.987c-3.175,1.113-6.667-0.534-7.826-3.706c-1.167-3.195,0.478-6.737,3.676-7.902
						c9.627-3.514,19.121-7.644,28.219-12.279c3.028-1.508,6.746-0.342,8.292,2.694c1.546,3.036,0.336,6.745-2.694,8.292
						c-9.543,4.855-19.495,9.19-29.586,12.873C820.811,1495.968,820.783,1495.978,820.757,1495.987z M790.54,1504.999
						c-0.211,0.074-0.422,0.135-0.643,0.187c-10.447,2.449-21.15,4.286-31.809,5.463c-3.385,0.37-6.428-2.065-6.801-5.449
						c-0.377-3.389,2.085-6.426,5.447-6.807c10.172-1.122,20.384-2.875,30.354-5.208c3.312-0.778,6.629,1.281,7.404,4.594
						C795.219,1500.879,793.471,1503.972,790.54,1504.999z M876.83,1467.41c-2.579,0.904-5.541,0.003-7.144-2.369
						c-1.902-2.816-1.162-6.647,1.659-8.554c8.495-5.744,16.711-12.048,24.421-18.749c2.584-2.225,6.463-1.958,8.695,0.615
						c2.232,2.566,1.959,6.463-0.61,8.696c-8.083,7.022-16.698,13.632-25.604,19.648
						C877.793,1467.003,877.318,1467.239,876.83,1467.41z M727.945,1511.867c-0.661,0.232-1.374,0.354-2.117,0.347
						c-10.737-0.135-21.573-0.936-32.206-2.384c-3.374-0.457-5.736-3.564-5.279-6.939c0.461-3.363,3.568-5.727,6.937-5.275
						c10.139,1.377,20.467,2.14,30.705,2.271c3.403,0.045,6.129,2.839,6.084,6.242
						C732.036,1508.788,730.32,1511.035,727.945,1511.867z M924.327,1426.13c-2.059,0.721-4.44,0.325-6.17-1.237
						c-2.532-2.282-2.73-6.18-0.452-8.707c6.853-7.593,13.31-15.685,19.192-24.06c1.959-2.791,5.805-3.456,8.589-1.498
						c2.784,1.958,3.456,5.805,1.498,8.589c-6.173,8.777-12.941,17.265-20.123,25.228
						C926.145,1425.238,925.267,1425.8,924.327,1426.13z M960.536,1374.659c-1.576,0.552-3.368,0.465-4.953-0.383
						c-3-1.608-4.131-5.345-2.522-8.344c4.843-9.038,9.181-18.448,12.891-27.963c1.238-3.176,4.815-4.742,7.982-3.505
						c3.172,1.236,4.739,4.807,3.503,7.976c-3.889,9.979-8.434,19.844-13.509,29.314
						C963.171,1373.167,961.94,1374.167,960.536,1374.659z M983.375,1315.99c-1.107,0.388-2.336,0.468-3.56,0.151
						c-3.299-0.841-5.289-4.2-4.446-7.499c2.545-9.929,4.497-20.104,5.803-30.237c0.439-3.368,3.528-5.758,6.902-5.32
						c3.377,0.437,5.759,3.524,5.324,6.904c-1.374,10.623-3.419,21.295-6.083,31.712
						C986.783,1313.775,985.255,1315.331,983.375,1315.99z"/>
					<path style="fill:#BDD0FB;" d="M665.271,1503.334c-1.122,0.393-2.369,0.466-3.605,0.141
						c-5.101-1.344-10.185-2.847-15.113-4.462c-3.233-1.062-4.998-4.544-3.938-7.779c1.068-3.225,4.543-4.991,7.78-3.937
						c4.699,1.543,9.55,2.974,14.418,4.26c3.292,0.868,5.256,4.243,4.387,7.532C668.655,1501.141,667.137,1502.68,665.271,1503.334z
						"/>
				</g>
				<g>
					<path style="fill:#BDD0FB;" d="M643.777,1426.495c1.135,0.695,2.587,0.594,3.614-0.253l29.311-24.162
						c16.843,5.568,34.695,8.49,52.951,8.381l20.426,31.998c0.716,1.123,2.066,1.667,3.36,1.355l44.3-10.656
						c1.295-0.312,2.249-1.41,2.377-2.735l3.638-37.787c16.308-8.206,30.878-18.926,43.347-31.546l37.093,8.189
						c1.3,0.286,2.639-0.283,3.335-1.418l23.789-38.86c0.695-1.136,0.593-2.588-0.254-3.615l-24.162-29.31
						c5.568-16.843,8.49-34.696,8.381-52.952l31.998-20.425c1.122-0.717,1.667-2.066,1.355-3.36l-10.657-44.301
						c-0.311-1.295-1.41-2.25-2.735-2.376l-37.787-3.639c-8.205-16.308-18.926-30.879-31.546-43.346l8.189-37.094
						c0.287-1.3-0.283-2.639-1.418-3.334l-38.861-23.79c-1.135-0.695-2.587-0.593-3.614,0.254l-29.311,24.163
						c-16.843-5.569-34.695-8.49-52.951-8.381l-20.426-31.999c-0.716-1.122-2.065-1.667-3.36-1.355l-44.301,10.657
						c-1.294,0.311-2.248,1.41-2.376,2.735l-3.638,37.787c-16.308,8.205-30.879,18.927-43.347,31.546l-37.092-8.188
						c-1.301-0.287-2.64,0.282-3.335,1.418l-23.789,38.86c-0.695,1.136-0.594,2.587,0.254,3.615l24.162,29.311
						c-5.568,16.843-8.49,34.696-8.38,52.951l-31.999,20.425c-1.121,0.716-1.667,2.066-1.354,3.36l10.656,44.3
						c0.312,1.295,1.41,2.249,2.735,2.377l37.787,3.638c8.206,16.308,18.926,30.878,31.545,43.346l-8.188,37.093
						c-0.287,1.3,0.283,2.639,1.418,3.335L643.777,1426.495z"/>
					
						<linearGradient id="SVGID_00000065757533788166323440000010568008897423727506_" gradientUnits="userSpaceOnUse" x1="682.1838" y1="1243.9955" x2="775.4462" y2="1243.9955">
						<stop  offset="0" style="stop-color:#DAE3FE"/>
						<stop  offset="1" style="stop-color:#E9EFFD"/>
					</linearGradient>
					<path style="fill:url(#SVGID_00000065757533788166323440000010568008897423727506_);" d="M744.126,1288.015
						c-9.384,3.288-19.533,3.483-29.198,0.473c-11.889-3.705-21.623-11.819-27.41-22.847c-11.946-22.755-3.15-50.991,19.611-62.946
						c22.814-11.923,51.006-3.145,62.951,19.616c5.79,11.027,6.937,23.649,3.231,35.535c-3.703,11.891-11.817,21.628-22.848,27.414
						C748.403,1286.338,746.283,1287.259,744.126,1288.015z M717.477,1211.601c-1.565,0.548-3.107,1.217-4.619,2.008
						c-16.741,8.793-23.212,29.563-14.423,46.306c4.257,8.107,11.417,14.081,20.161,16.802c8.749,2.725,18.027,1.873,26.144-2.374
						l0,0c8.11-4.258,14.08-11.42,16.805-20.162c2.726-8.749,1.881-18.032-2.378-26.146
						C751.172,1212.806,733.254,1206.073,717.477,1211.601z"/>
					
						<linearGradient id="SVGID_00000042001941041650836680000017777435949497611176_" gradientUnits="userSpaceOnUse" x1="613.0815" y1="1243.0839" x2="845.3561" y2="1243.0839">
						<stop  offset="0" style="stop-color:#DAE3FE"/>
						<stop  offset="1" style="stop-color:#E9EFFD"/>
					</linearGradient>
					<path style="fill:url(#SVGID_00000042001941041650836680000017777435949497611176_);" d="M767.716,1352.662
						c-3.681,1.29-7.456,2.402-11.325,3.337c-7.685,1.851-15.565,2.922-23.443,3.182c-0.354,0.009-0.708,0.018-1.062,0.027
						c-2.739,0.067-5.101-1.663-5.964-4.116c-0.209-0.596-0.328-1.237-0.344-1.901c-0.082-3.403,2.62-6.212,6.016-6.305
						c7.357-0.173,14.728-1.143,21.909-2.874l0.003-0.001c0.394-0.094,0.789-0.194,1.18-0.292
						c16.958-4.252,32.214-12.57,44.746-24.104c6.802-6.261,12.801-13.478,17.824-21.521c0.041-0.065,0.082-0.13,0.123-0.196
						c0.123-0.203,0.249-0.4,0.37-0.602c14.471-23.643,18.874-51.507,12.39-78.459c-0.837-3.489-1.846-6.905-3.016-10.245
						c-7.877-22.471-23.117-41.392-43.701-53.996c-23.644-14.472-51.506-18.869-78.455-12.385
						c-26.931,6.49-49.766,23.075-64.243,46.714c-14.472,23.643-18.874,51.507-12.39,78.459c0.822,3.43,1.82,6.806,2.979,10.111
						c5.027,14.337,13.131,27.41,23.782,38.258c0.656,0.67,1.13,1.447,1.417,2.278c0.764,2.181,0.263,4.711-1.498,6.437
						c-2.436,2.378-6.33,2.352-8.719-0.083c-11.916-12.139-20.987-26.768-26.611-42.802c-1.298-3.704-2.413-7.478-3.336-11.313
						c-7.254-30.158-2.33-61.33,13.865-87.783c16.194-26.447,41.695-45.026,71.868-52.263c30.154-7.256,61.325-2.335,87.777,13.864
						c23.029,14.094,40.078,35.265,48.89,60.406c1.308,3.732,2.438,7.558,3.376,11.458
						C856.164,1274.333,823.209,1333.218,767.716,1352.662z"/>
				</g>
			</g>
		</g>
		<g>
			<g>
				<path style="fill:#91B3FA;" d="M2905.739,1454.311c-138.998,6.41-946.363,76.743-1016.45,846.217
					c0,0,543.437,90.522,1027.436-828.998C2920.96,1463.485,2914.82,1453.892,2905.739,1454.311z"/>
				<path style="opacity:0.4;fill:#FFFFFF;" d="M2772.223,1544.589c-37.546,23.65-74.648,48.105-111.51,72.86
					c-36.856,24.777-73.426,49.979-109.694,75.604c-72.536,51.246-143.928,104.113-213.614,159.121
					c-69.632,55.052-137.691,112.149-202.413,172.782c-32.455,30.21-63.8,61.584-93.87,94.074
					c-30.013,32.524-58.756,66.252-84.617,102.015l-0.015,0.021c-1.848,2.555-5.417,3.129-7.973,1.281
					c-2.555-1.848-3.129-5.417-1.281-7.972l0.021-0.028c26.454-36.111,55.67-69.955,86.102-102.53
					c30.486-32.536,62.193-63.877,94.969-94.012c65.369-60.485,133.95-117.297,204.059-172.026
					c70.159-54.683,141.975-107.178,214.908-158.033c36.467-25.429,73.229-50.43,110.274-75.004
					c37.061-24.559,74.314-48.786,112.107-72.266c1.135-0.705,2.626-0.357,3.331,0.778c0.702,1.13,0.359,2.615-0.765,3.323
					L2772.223,1544.589z"/>
			</g>
			<g>
				<path style="fill:#91B3FA;" d="M1063.635,1435.919c11.681,125.767,109.547,854.881,810.232,885.943
					c0,0,59.136-496.588-795.083-896.632C1071.312,1421.73,1062.872,1427.703,1063.635,1435.919z"/>
				<path style="opacity:0.28;fill:#FFFFFF;" d="M1151.555,1528.777c18.325,38.229,38.277,75.757,58.937,112.823
					c20.696,37.06,42.289,73.619,64.774,109.616c44.994,71.967,93.41,141.84,146.213,208.246
					c52.848,66.311,110.057,129.344,173.504,185.505c15.81,14.087,32.149,27.562,48.811,40.601
					c16.646,13.063,33.787,25.482,51.368,37.22c35.067,23.615,72.164,44.183,110.908,60.874l0.033,0.014
					c2.076,0.895,3.034,3.302,2.14,5.379s-3.302,3.034-5.379,2.14l-0.017-0.008c-39.217-17.107-76.638-38.097-111.925-62.095
					c-17.692-11.931-34.92-24.536-51.631-37.776c-16.728-13.216-33.117-26.862-48.96-41.109
					c-63.579-56.809-120.714-120.366-173.419-187.127c-52.657-66.856-100.851-137.106-145.593-209.411
					c-22.359-36.166-43.817-72.884-64.374-110.098c-20.528-37.237-40.311-74.858-58.535-113.332
					c-0.41-0.865-0.041-1.899,0.825-2.309c0.865-0.41,1.899-0.04,2.309,0.825L1151.555,1528.777z"/>
			</g>
			<rect x="1853.352" y="805.189" style="fill:#7D97F4;" width="87.252" height="1912.821"/>
			<g>
				
					<linearGradient id="SVGID_00000090990881998374887520000017199250132620960688_" gradientUnits="userSpaceOnUse" x1="2135.2476" y1="2129.1592" x2="3000.1887" y2="1125.2111" gradientTransform="matrix(0.9999 -0.01 0.01 0.9999 -1128.0317 27.9406)">
					<stop  offset="0" style="stop-color:#E1473D"/>
					<stop  offset="1" style="stop-color:#E9605A"/>
				</linearGradient>
				
					<circle style="fill:url(#SVGID_00000090990881998374887520000017199250132620960688_);" cx="1900.376" cy="1102.585" r="644.814"/>
				
					<linearGradient id="SVGID_00000141457269993874793620000001725175478928071343_" gradientUnits="userSpaceOnUse" x1="2337.2383" y1="152.8819" x2="2104.1157" y2="659.671">
					<stop  offset="0" style="stop-color:#FF928E"/>
					<stop  offset="1" style="stop-color:#FE7062"/>
				</linearGradient>
				
					<circle style="fill:url(#SVGID_00000141457269993874793620000001725175478928071343_);" cx="1900.375" cy="1102.585" r="623.373"/>
				<path style="opacity:0.7;fill:#FFFFFF;" d="M1383.889,860.433c-1.761,0.018-3.555-0.362-5.246-1.197
					c-5.769-2.841-8.139-9.818-5.299-15.575c98.532-200.168,298.224-325.893,521.155-328.124
					c35.572-0.356,71.231,2.492,105.99,8.476c6.336,1.084,10.591,7.1,9.5,13.441c-1.091,6.33-7.06,10.619-13.442,9.488
					c-33.386-5.734-67.643-8.472-101.816-8.13c-214.095,2.143-405.877,122.89-500.509,315.12
					C1392.219,858.01,1388.145,860.391,1383.889,860.433z"/>
				
					<ellipse transform="matrix(0.7071 -0.7071 0.7071 0.7071 -228.5289 1680.3463)" style="opacity:0.78;fill:#FFFFFF;" cx="1914.093" cy="1116.032" rx="527.608" ry="527.609"/>
				<g>
					
						<linearGradient id="SVGID_00000114076027415618991160000010620163689325181328_" gradientUnits="userSpaceOnUse" x1="2543.3354" y1="2731.0959" x2="2877.8262" y2="1646.5317" gradientTransform="matrix(0.9999 -0.01 0.01 0.9999 -1128.0317 27.9406)">
						<stop  offset="0" style="stop-color:#FF928E"/>
						<stop  offset="1" style="stop-color:#FE7062"/>
					</linearGradient>
					<path style="fill:url(#SVGID_00000114076027415618991160000010620163689325181328_);" d="M1866.245,1508.761l-0.574-57.398
						c-59.861-1.798-119.185-15.327-161.404-33.307c-15.076-6.42-22.897-23.189-18.742-39.041l14.046-53.61
						c5.152-19.667,26.382-30.026,45.208-22.353c41.875,17.062,93.498,30.378,149.015,29.821
						c57.633-0.577,100.417-20.546,100.016-60.598c-0.362-36.14-33.786-57.295-114.102-77.982
						c-114.6-30.114-197.155-79.113-198.161-179.727c-0.91-90.849,64.824-160.866,179.901-180.576l-0.574-57.404
						c-0.185-18.471,14.639-33.593,33.11-33.778l33.723-0.338c18.472-0.185,33.594,14.638,33.778,33.108l0.516,51.539
						c55.392,1.661,95.789,10.727,127.887,21.647c16.445,5.593,25.577,23.156,21.198,39.966l-12.915,49.58
						c-4.98,19.119-25.254,29.767-43.803,22.965c-29.56-10.842-71.31-22.02-125.429-21.479
						c-68.379,0.684-87.629,29.206-87.374,54.604c0.313,31.258,41.554,52.335,130.716,78.801
						c127.369,36.825,180.643,89.044,181.591,183.797c0.87,86.936-62.815,165.728-187.652,186.519l0.642,64.236
						c0.185,18.471-14.639,33.594-33.11,33.779l-33.728,0.337C1881.554,1542.056,1866.43,1527.232,1866.245,1508.761z"/>
				</g>
			</g>
			<g>
				
					<linearGradient id="SVGID_00000143575262131222548230000007392236573100749984_" gradientUnits="userSpaceOnUse" x1="1904.2188" y1="3583.6572" x2="1914.354" y2="2975.5103">
					<stop  offset="0" style="stop-color:#4F52FF"/>
					<stop  offset="1" style="stop-color:#4042E2"/>
				</linearGradient>
				<path style="fill:url(#SVGID_00000143575262131222548230000007392236573100749984_);" d="M1537.629,2447.682h755.283
					c56.533,0,98.821,53.21,88.326,108.757c-45.097,238.684-136.436,449.561-231.372,625.978
					c-21.209,39.412-62.277,64.58-107.034,64.58h-246.458c-45.444,0-87.12-24.712-109.007-64.536
					c-118.499-215.621-176.415-429.582-224.737-638.944C1451.495,2495.281,1488.123,2447.682,1537.629,2447.682z"/>
				
					<linearGradient id="SVGID_00000027597643496127205650000007822211865320468865_" gradientUnits="userSpaceOnUse" x1="2479.145" y1="3302.1313" x2="700.4952" y2="554.7552">
					<stop  offset="0" style="stop-color:#4F52FF"/>
					<stop  offset="1" style="stop-color:#4042E2"/>
				</linearGradient>
				<path style="fill:url(#SVGID_00000027597643496127205650000007822211865320468865_);" d="M2443.757,2543.507H1410.604
					c-9.389,0-17-7.611-17-17V2372.58c0-9.389,7.611-17,17-17h1033.153c9.389,0,17,7.611,17,17v153.926
					C2460.757,2535.896,2453.146,2543.507,2443.757,2543.507z"/>
			</g>
		</g>
		<g>
			
				<linearGradient id="SVGID_00000087411677367352317200000011690811904765247892_" gradientUnits="userSpaceOnUse" x1="3199.5698" y1="1489.5259" x2="2819.4783" y2="2715.9556">
				<stop  offset="0" style="stop-color:#FF928E"/>
				<stop  offset="1" style="stop-color:#FE7062"/>
			</linearGradient>
			<path style="fill:url(#SVGID_00000087411677367352317200000011690811904765247892_);" d="M2432.611,3093.307l421.981-808.427
				h-86.456c-15.943,0-24.711-18.536-14.599-30.86l449.748-548.151c19.492-23.758,57.997-8.689,56.188,21.988l-31.615,536.025
				c-1.81,30.685-29.019,53.555-59.558,50.06l-60.278-6.898l-418.69,906.733c-10.899,23.604-34.527,38.719-60.526,38.719h-145.113
				L2432.611,3093.307z"/>
			
				<linearGradient id="SVGID_00000065789260508711683440000001323751978271806378_" gradientUnits="userSpaceOnUse" x1="2636.9592" y1="3244.7297" x2="2036.7184" y2="2412.9678">
				<stop  offset="0" style="stop-color:#FF928E"/>
				<stop  offset="1" style="stop-color:#FE7062"/>
			</linearGradient>
			<path style="fill:url(#SVGID_00000065789260508711683440000001323751978271806378_);" d="M2083.724,2526.32l297.91,661.771
				c17.646,39.197,56.637,64.404,99.622,64.404h153.579c20.377,0,39.151-11.054,49.035-28.873l5.462-9.846l0,0
				c-16.501,0-31.609-9.251-39.11-23.948l-396.93-777.727L2083.724,2526.32z"/>
			
				<linearGradient id="SVGID_00000050660865881328664130000015370581221837872804_" gradientUnits="userSpaceOnUse" x1="2211.0911" y1="2205.9343" x2="1825.9314" y2="2920.5066">
				<stop  offset="0" style="stop-color:#FF928E"/>
				<stop  offset="1" style="stop-color:#FE7062"/>
			</linearGradient>
			<path style="fill:url(#SVGID_00000050660865881328664130000015370581221837872804_);" d="M2293.385,2490.656L2293.385,2490.656
				c-29.873-23.59-73.522-16.655-94.612,15.032l-438.012,658.08c-35.081,52.707-94.2,84.375-157.514,84.375h-61.633l-50.159-144.493
				c0,0,407.2-624.366,512.153-718.815c0,0,104.519-94.199,207.572-22.978c27.226,18.816,47.897,45.671,60.523,76.264
				L2293.385,2490.656z"/>
			
				<linearGradient id="SVGID_00000010291988108673039880000001429201861790442925_" gradientUnits="userSpaceOnUse" x1="1587.9987" y1="3144.2271" x2="828.9083" y2="2360.8464">
				<stop  offset="0" style="stop-color:#FF928E"/>
				<stop  offset="1" style="stop-color:#FE7062"/>
			</linearGradient>
			<path style="fill:url(#SVGID_00000010291988108673039880000001429201861790442925_);" d="M1015.057,2715.04
				c0,0,73.32-91.646,215.399-105.903c0,0,67.481,22.99,201.918,263.885c134.438,240.895,223.673,350.747,328.387,290.746
				l-8.669,14.394c-28.57,47.437-79.9,76.443-135.277,76.443h-57.914c-63.763,0-119.135-98.213-156.371-149.975
				C1297.897,2959.177,1079.333,2737.62,1015.057,2715.04z"/>
			<path style="opacity:0.7;fill:#FFFFFF;" d="M3208.729,1898.234c-0.191,0-0.383-0.01-0.577-0.033
				c-2.781-0.315-4.781-2.824-4.464-5.606l2.966-26.172c0.313-2.781,2.838-4.798,5.606-4.464c2.781,0.315,4.781,2.824,4.464,5.606
				l-2.966,26.172C3213.464,1896.323,3211.273,1898.234,3208.729,1898.234z"/>
			<path style="opacity:0.7;fill:#FFFFFF;" d="M2833.29,2228.62c-1.079,0-2.168-0.343-3.088-1.052
				c-2.217-1.706-2.633-4.888-0.924-7.107l371.38-482.557c4.567-5.926,12.291-8.026,19.22-5.222
				c6.936,2.805,11.031,9.682,10.189,17.117l-6.553,57.843c-0.313,2.78-2.848,4.796-5.606,4.464
				c-2.781-0.315-4.781-2.824-4.464-5.606l6.553-57.842c0.396-3.522-1.762-5.708-3.92-6.579c-2.142-0.873-5.22-0.802-7.388,2.008
				l-371.38,482.558C2836.313,2227.94,2834.808,2228.62,2833.29,2228.62z"/>
			<path style="opacity:0.7;fill:#FFFFFF;" d="M1990.774,2734.502c-0.977,0-1.963-0.28-2.831-0.866
				c-2.32-1.566-2.933-4.717-1.366-7.036l192.072-284.7c7.068-10.481,18.801-16.176,31.425-15.213
				c12.608,0.955,23.368,8.35,28.776,19.779c1.198,2.529,0.119,5.552-2.412,6.749c-2.521,1.201-5.55,0.119-6.748-2.414
				c-3.834-8.094-11.453-13.332-20.382-14.008c-8.872-0.675-17.247,3.349-22.259,10.775l-192.071,284.7
				C1994.001,2733.72,1992.4,2734.502,1990.774,2734.502z"/>
			<path style="opacity:0.7;fill:#FFFFFF;" d="M1940.861,2808.486c-0.977,0-1.963-0.281-2.831-0.866
				c-2.32-1.566-2.933-4.717-1.366-7.036l12.317-18.255c1.564-2.323,4.718-2.928,7.035-1.368c2.32,1.566,2.933,4.717,1.366,7.036
				l-12.317,18.255C1944.088,2807.704,1942.488,2808.486,1940.861,2808.486z"/>
		</g>
		<g>
			
				<linearGradient id="SVGID_00000180350940722840277310000008349617153165739150_" gradientUnits="userSpaceOnUse" x1="-2163.3535" y1="1329.2158" x2="-2046.1128" y2="1623.3114" gradientTransform="matrix(-1 0 0 1 -1165.4333 0)">
				<stop  offset="0" style="stop-color:#09005D"/>
				<stop  offset="1" style="stop-color:#1A0F91"/>
			</linearGradient>
			<path style="fill:url(#SVGID_00000180350940722840277310000008349617153165739150_);" d="M928.403,1487.415
				c0,0-39.525,19.225-46.792,41.31c-5.831,17.72-49.535,20.005-53.852,54.856c-2.229,17.993-15.544,32.404-33.466,35.151
				c-44.636,6.842-113.424,30.02-124.431,107.518c-8.401,59.154,21.754,81.584,53.402,89.348
				c23.244,5.702,38.691,28.311,33.99,51.778c-4.51,22.508,2.215,48.529,41.21,69.105c87.384,46.109,174.65-109.236,174.65-109.236
				l17.884-271.244L928.403,1487.415z"/>
			
				<linearGradient id="SVGID_00000127045547047248837090000004007266127281913740_" gradientUnits="userSpaceOnUse" x1="1048.8203" y1="1862.6067" x2="1474.9709" y2="1278.6217">
				<stop  offset="0" style="stop-color:#FEBBBA"/>
				<stop  offset="1" style="stop-color:#FF928E"/>
			</linearGradient>
			<path style="fill:url(#SVGID_00000127045547047248837090000004007266127281913740_);" d="M1403.883,1423.112
				c0,0-174.473,275.968-381.943,329.272c0,0,40.426,115.141,71.629,128.319c0,0,255.246-212.974,320.84-418.376L1403.883,1423.112z
				"/>
			
				<linearGradient id="SVGID_00000008828817455410467710000014946185510682177928_" gradientUnits="userSpaceOnUse" x1="-1734.7721" y1="3212.0464" x2="-1635.3566" y2="3212.0464" gradientTransform="matrix(-1 0 0 1 -1165.4333 0)">
				<stop  offset="0" style="stop-color:#4F52FF"/>
				<stop  offset="1" style="stop-color:#4042E2"/>
			</linearGradient>
			<path style="fill:url(#SVGID_00000008828817455410467710000014946185510682177928_);" d="M569.22,3188.204l-5.655,46.486
				c-1.073,8.819-8.016,15.792-16.842,16.8c-14.902,1.702-38.817,3.447-62.214,0.974c-10.27-1.086-16.937-11.485-13.809-21.327
				c5.704-17.945,16.139-44.884,31.183-60.737h51.567C562.985,3170.399,570.372,3178.739,569.22,3188.204z"/>
			
				<linearGradient id="SVGID_00000114781610462039737670000017914153909182820745_" gradientUnits="userSpaceOnUse" x1="-2154.854" y1="3604.0867" x2="-2011.7877" y2="1932" gradientTransform="matrix(-1 0 0 1 -1165.4333 0)">
				<stop  offset="0" style="stop-color:#FEBBBA"/>
				<stop  offset="1" style="stop-color:#FF928E"/>
			</linearGradient>
			<path style="fill:url(#SVGID_00000114781610462039737670000017914153909182820745_);" d="M973.114,2643.65l8.704,51.2
				c0,0-29.147,295.237-34.332,413.332c-0.813,18.515,3.977,36.812,13.695,52.593l50.682,82.303l-128.807-76.008l-2.564-15.719
				l21.086-28.992l-27.619-330.739c-1.622-19.429,2.387-38.915,11.548-56.125l26.643-50.052L973.114,2643.65z"/>
			
				<linearGradient id="SVGID_00000082327165357458427350000010228012976051358650_" gradientUnits="userSpaceOnUse" x1="-2196.6479" y1="3193.8958" x2="-2035.786" y2="3193.8958" gradientTransform="matrix(-1 0 0 1 -1165.4333 0)">
				<stop  offset="0" style="stop-color:#4F52FF"/>
				<stop  offset="1" style="stop-color:#4042E2"/>
			</linearGradient>
			<path style="fill:url(#SVGID_00000082327165357458427350000010228012976051358650_);" d="M1020.345,3255H979.24
				c-7.694,0-14.95-3.532-19.643-9.63c-12.814-16.651-39.364-49.136-52.059-49.984c-17.09-1.142-14.904,59.614-14.904,59.614h-9.579
				l-12.134-75.496c-3.053-18.995,6.394-37.813,23.451-46.713c0,0,3.907,28.891,25.089,41.67c21.183,12.779,86.2,58.544,86.2,58.544
				s7.963-1.135,16.706,0.445C1035.337,3235.794,1033.525,3255,1020.345,3255z"/>
			
				<linearGradient id="SVGID_00000127766694449173850180000007282838639052922521_" gradientUnits="userSpaceOnUse" x1="-1867.0675" y1="3628.9666" x2="-1723.9637" y2="1956.4403" gradientTransform="matrix(-1 0 0 1 -1165.4333 0)">
				<stop  offset="0" style="stop-color:#FEBBBA"/>
				<stop  offset="1" style="stop-color:#FF928E"/>
			</linearGradient>
			<path style="fill:url(#SVGID_00000127766694449173850180000007282838639052922521_);" d="M796.69,2667.968
				c0,0-170.753,323.902-197.897,397.854c-27.143,73.952-36.652,135.645-37.016,141.487c-0.569,9.129-11.923,17.884-43.22,17.884
				c-16.152,0-24.062-6.475-27.935-12.741c-3.305-5.347-3.475-12.037-0.691-17.672c9.877-19.99,41.223-83.871,52.832-112.844
				c13.861-34.593,43.675-191.364,60.026-245.871c16.351-54.507,34.834-113.634,106.039-168.096
				C708.827,2667.968,757.707,2620.093,796.69,2667.968z"/>
			
				<linearGradient id="SVGID_00000010306949661942400440000011199932530392800439_" gradientUnits="userSpaceOnUse" x1="1433.5576" y1="1431.271" x2="1311.9283" y2="1573.1719">
				<stop  offset="0" style="stop-color:#FF928E"/>
				<stop  offset="1" style="stop-color:#FE7062"/>
			</linearGradient>
			<path style="fill:url(#SVGID_00000010306949661942400440000011199932530392800439_);" d="M904.558,2137.237
				c44.047-186.643-67.537-292.206-67.537-292.206c70.407-67.582,198.687-98.335,198.687-98.335s122.407,89.491,107.886,159.537
				c-8.511,41.054-86.041,245.908-86.041,245.908S985.863,2186.07,904.558,2137.237z"/>
			
				<linearGradient id="SVGID_00000034079398580010726700000011443866111159170711_" gradientUnits="userSpaceOnUse" x1="-1757.2626" y1="1950.4735" x2="-2114.9475" y2="2522.769" gradientTransform="matrix(-1 0 0 1 -1165.4333 0)">
				<stop  offset="0" style="stop-color:#4F52FF"/>
				<stop  offset="1" style="stop-color:#4042E2"/>
			</linearGradient>
			<path style="fill:url(#SVGID_00000034079398580010726700000011443866111159170711_);" d="M806.9,2229.639
				c17.925-54.002,97.658-92.402,97.658-92.402c81.305,48.832,152.996,14.904,152.996,14.904s16.078,61.454,4.981,118.564
				c-11.096,57.111-80.717,424.144-80.717,424.144c-109.698,22.227-278.412-22.363-278.412-22.363
				C773.279,2548.431,788.975,2283.641,806.9,2229.639z"/>
			
				<linearGradient id="SVGID_00000093860739374766899230000000828916315058844598_" gradientUnits="userSpaceOnUse" x1="-2170.5435" y1="1955.9099" x2="-2143.6689" y2="1759.3026" gradientTransform="matrix(-1 0 0 1 -1165.4333 0)">
				<stop  offset="0" style="stop-color:#FEBBBA"/>
				<stop  offset="1" style="stop-color:#FF928E"/>
			</linearGradient>
			<path style="fill:url(#SVGID_00000093860739374766899230000000828916315058844598_);" d="M955.685,1623.356l-35.811,160.855
				c-3.429,14.168,9.487,11.85,23.812,9.149c23.459-4.423,53.694-13.531,63.801-31.786c1.029-1.858,1.542-3.958,1.833-6.062
				l15.385-111.541c1.221-8.849-3.563-17.438-11.729-21.059l-29.689-13.164C971.856,1604.68,958.626,1611.202,955.685,1623.356z"/>
			<g>
				
					<linearGradient id="SVGID_00000128462754186999331430000009001347171850457260_" gradientUnits="userSpaceOnUse" x1="-2304.812" y1="1397.2405" x2="-2070.3208" y2="979.9248" gradientTransform="matrix(-0.9809 -0.1943 -0.1943 0.9809 -936.3432 -99.2406)">
					<stop  offset="0" style="stop-color:#FEBBBA"/>
					<stop  offset="1" style="stop-color:#FF928E"/>
				</linearGradient>
				<path style="fill:url(#SVGID_00000128462754186999331430000009001347171850457260_);" d="M1024.276,1476.72
					c0,0,38.125,25.807,54.507,91.529c16.382,65.721-10.241,89.296-37.53,87.851c-27.29-1.445-66.858-9.884-101.141-57.033
					C905.828,1551.918,974.317,1445.185,1024.276,1476.72z"/>
				
					<linearGradient id="SVGID_00000136377995293511625850000000375652442843744436_" gradientUnits="userSpaceOnUse" x1="-2254.3826" y1="1033.8248" x2="-2137.1372" y2="1327.9326" gradientTransform="matrix(-0.9809 -0.1943 -0.1943 0.9809 -936.3432 -99.2406)">
					<stop  offset="0" style="stop-color:#09005D"/>
					<stop  offset="1" style="stop-color:#1A0F91"/>
				</linearGradient>
				<path style="fill:url(#SVGID_00000136377995293511625850000000375652442843744436_);" d="M974.684,1572.559
					c0,0-13.969-94.173,64.219-79.768l15.81,16.459c0,0,38.27-43.099-4.081-75.679c-42.352-32.579-101.123-24.236-133.638,35.075
					c-32.515,59.312-44.316,100.989-17.063,137.845c27.254,36.856,47.754,5.246,47.754,5.246s-12.499-31.899-2.128-45.587
					c10.371-13.688,23.751,7.96,23.751,7.96L974.684,1572.559z"/>
				
					<linearGradient id="SVGID_00000106863617213194561740000003887938885231684765_" gradientUnits="userSpaceOnUse" x1="-2254.8987" y1="1425.2906" x2="-2020.4073" y2="1007.975" gradientTransform="matrix(-0.9809 -0.1943 -0.1943 0.9809 -936.3432 -99.2406)">
					<stop  offset="0" style="stop-color:#FEBBBA"/>
					<stop  offset="1" style="stop-color:#FF928E"/>
				</linearGradient>
				<path style="fill:url(#SVGID_00000106863617213194561740000003887938885231684765_);" d="M963.998,1580.624
					c0,0-6.897-48.451-31.642-34.601c-24.745,13.851,8.918,45.26,22.415,55.948L963.998,1580.624z"/>
			</g>
			<g>
				
					<linearGradient id="SVGID_00000080202150131821315440000017068953138705113992_" gradientUnits="userSpaceOnUse" x1="1085.3403" y1="1889.2571" x2="1511.4899" y2="1305.2737">
					<stop  offset="0" style="stop-color:#FEBBBA"/>
					<stop  offset="1" style="stop-color:#FF928E"/>
				</linearGradient>
				<path style="fill:url(#SVGID_00000080202150131821315440000017068953138705113992_);" d="M1402.684,1479.925
					c0.529,5.693-20.641,9.627-27.378-14.641c1.852-10.536,5.141-56.676,13.22-63.844c43.026-38.177,119.751-81.124,119.751-81.124
					c8.581,13.101-2.673,21.729-2.673,21.729l-38.299,25.847c3.995,13.233,9.826,24.932,10.485,40.039
					c0.5,11.44-3.727,22.641-11.32,31.319c-7.622,8.709-17.883,19.954-27.133,28.492
					C1421.83,1483.899,1402.684,1479.925,1402.684,1479.925z"/>
				
					<linearGradient id="SVGID_00000166655817832727206730000014707637482469431736_" gradientUnits="userSpaceOnUse" x1="1538.0515" y1="1147.7242" x2="1785.3237" y2="558.4798">
					<stop  offset="0" style="stop-color:#FEBBBA"/>
					<stop  offset="1" style="stop-color:#FF928E"/>
				</linearGradient>
				<path style="fill:url(#SVGID_00000166655817832727206730000014707637482469431736_);" d="M1423.488,1461.116l-5.854-2.408
					c0.778-1.894,19.158-46.556,28.046-55.846c3.378-3.525,5.009-6.543,4.858-8.977c-0.075-1.317-0.728-2.617-1.965-3.943
					l-30.99,16.574l-13.689,21.432l-5.335-3.412l14.575-22.828l36.3-19.408l1.639,1.334c3.671,3.002,5.569,6.225,5.786,9.863
					c0.268,4.331-1.89,8.826-6.598,13.747C1443.565,1414.238,1428.664,1448.502,1423.488,1461.116z"/>
			</g>
			<g>
				
					<linearGradient id="SVGID_00000000199140547864674740000007704230138887073702_" gradientUnits="userSpaceOnUse" x1="-3376.3784" y1="2041.5485" x2="-3634.1211" y2="2112.189" gradientTransform="matrix(-0.9988 -0.0494 -0.0494 0.9988 -2381.2668 -55.0328)">
					<stop  offset="0" style="stop-color:#09005D"/>
					<stop  offset="1" style="stop-color:#1A0F91"/>
				</linearGradient>
				<path style="fill:url(#SVGID_00000000199140547864674740000007704230138887073702_);" d="M944.468,2235.703
					c0.244,0.012,0.489,0.018,0.736,0.017l319.925-0.345c7.909-0.006,14.313-6.357,14.305-14.182
					c-0.008-7.828-6.449-14.294-14.336-14.154l-319.924,0.345c-7.909,0.007-14.313,6.357-14.305,14.182
					C930.876,2229.148,936.901,2235.333,944.468,2235.703z"/>
				
					<linearGradient id="SVGID_00000039135857063798129910000015515589516619962293_" gradientUnits="userSpaceOnUse" x1="-3662.4666" y1="1986.389" x2="-3844.2715" y2="2178.5457" gradientTransform="matrix(-1 0 0 1 -2422.7358 0)">
					<stop  offset="0" style="stop-color:#09005D"/>
					<stop  offset="1" style="stop-color:#1A0F91"/>
				</linearGradient>
				<path style="fill:url(#SVGID_00000039135857063798129910000015515589516619962293_);" d="M1552.726,1948.3h-266.435
					c-19.655,0-37.545,11.223-45.929,28.812l-123.173,258.422h331.108c12.666,0,24.047-7.657,28.702-19.313l95.515-239.131
					C1578.033,1963.274,1567.741,1948.3,1552.726,1948.3z"/>
				
					<ellipse transform="matrix(0.313 -0.9497 0.9497 0.313 -1030.8207 2749.1978)" style="fill:#91B3FA;" cx="1385.001" cy="2087.164" rx="33.795" ry="20.969"/>
			</g>
			
				<linearGradient id="SVGID_00000061449574169336354010000004455617511529093265_" gradientUnits="userSpaceOnUse" x1="511.3828" y1="2210.2019" x2="1073.4386" y2="1975.0729">
				<stop  offset="0" style="stop-color:#FEBBBA"/>
				<stop  offset="1" style="stop-color:#FF928E"/>
			</linearGradient>
			<path style="fill:url(#SVGID_00000061449574169336354010000004455617511529093265_);" d="M836.561,1845.416
				c-43.652,44.05-99.036,239.296-71.558,271.908c24.194,37.965,106.574,89.644,185.019,89.713h115.739
				c-48.633-51.673-82.119-64.78-122.003-28.646c-31.646-13.522-72.679-65.902-100.067-89.288
				c-10.754-9.182-13.291-24.846-6.099-37.021c21.758-36.834,49.044-74.704,57.721-111.384
				C897.176,1897.714,865.368,1848.519,836.561,1845.416z"/>
		</g>
	</g>
</g>
</svg>
