<?xml version="1.0" encoding="utf-8"?>
<!-- Generator: Adobe Illustrator 27.5.0, SVG Export Plug-In . SVG Version: 6.00 Build 0)  -->
<svg version="1.1" xmlns="http://www.w3.org/2000/svg" xmlns:xlink="http://www.w3.org/1999/xlink" x="0px" y="0px"
	 viewBox="0 0 500 500" style="enable-background:new 0 0 500 500;" xml:space="preserve">
<g id="BACKGROUND">
	<rect style="opacity:0.2;fill:#FFFFFF;" width="500" height="500"/>
</g>
<g id="OBJECTS">
	<g style="opacity:0.15;">
		<ellipse cx="262.372" cy="402.803" rx="229.302" ry="19.696"/>
	</g>
	<g>
		<path style="fill:#BDC6FF;" d="M443.571,219.332c-6.32-34.279-25.338-66.892-46.325-96.33
			C355.101,63.887,274.531,9.81,204.499,67.901c-26.94,22.347-43.891,52.651-67.997,77.318
			c-31.217,31.945-76.582,41.539-94.9,81.775c-21.244,46.662,5.447,96.497,45.118,126.637
			c73.963,56.194,181.579,54.367,263.99,15.444c40.77-19.256,75.108-47.396,89.002-88.857
			C446.634,259.559,447.228,239.167,443.571,219.332z"/>
	</g>
	<g>
		<g>
			<path style="fill:#FF7D9B;" d="M423.128,341.387c0.999-3.841,5.702-7.12,10.424-8.701c9.679-3.22,20.802-3.906,28.946-10.182
				c8.004-6.169,10.972-15.695,7.858-23.649c-4.487-11.351-18.346-14.248-31.04-12.948c-1.625,0.172-3.36,0.409-4.787-0.224
				c-1.833-0.814-2.554-2.817-2.625-4.67c-0.386-12.053,2.608-24.953-3.299-36.106c-6.58-12.305-22.072-16.445-34.78-11.759
				c-9.103,3.382-14.76,10.558-18.146,19.451c-2.231,5.869-1.417,23.301-9.876,25.509c-1.396,0.361-2.881,0.096-4.269-0.257
				c-12.591-3.186-23.457-6.258-32.832,5.042c-7.976,9.484-6.314,23.15,4.999,30.311c5.555,3.503,11.218,6.919,16.985,10.243
				c3.681,2.122,5.46,5.92,4.377,9.602c-3.423,11.508-15.952,4.705-24.152,2.614c-8.841-2.184-18.078,2.806-23.446,8.209
				c-14,13.915-3.434,29.532,12.452,40.002c19.527,13.007,45.53,20.387,72.29,20.387c22.2,0.381,58.936-5.236,69.591-23.43
				c3.587-5.989,3.861-12.702,1.466-18.448c-1.582-3.8-4.361-7.276-8.433-9.516c-6.743-3.705-16.745-0.703-24.224-2.63
				c-3.813-0.974-7.157-3.389-7.614-6.606C422.887,342.867,422.939,342.117,423.128,341.387z"/>
		</g>
		<g>
			<g>
				<g>
					<path style="fill:#D9E8FF;" d="M393.796,312.805c-0.106,0-0.212-0.019-0.316-0.061c-6.504-2.624-13.001-5.407-19.313-8.272
						c-0.426-0.193-0.614-0.695-0.421-1.12c0.193-0.425,0.697-0.614,1.12-0.421c6.29,2.855,12.765,5.629,19.246,8.244
						c0.434,0.174,0.643,0.668,0.468,1.101C394.448,312.606,394.13,312.805,393.796,312.805z"/>
				</g>
				<g>
					<path style="fill:#D9E8FF;" d="M379.64,371.448c-0.104,0-0.209-0.019-0.312-0.059c-7.028-2.785-14.085-5.752-20.976-8.818
						c-0.426-0.19-0.618-0.691-0.429-1.118c0.191-0.427,0.695-0.616,1.118-0.429c6.87,3.057,13.905,6.016,20.912,8.792
						c0.434,0.172,0.646,0.664,0.474,1.099C380.295,371.245,379.976,371.448,379.64,371.448z"/>
				</g>
			</g>
			<g>
				<g>
					<path style="fill:#D9E8FF;" d="M395.475,313.001c-0.416,0-0.778-0.306-0.837-0.729c-0.064-0.463,0.258-0.89,0.721-0.955
						c7.237-1.009,14.551-2.182,21.737-3.486c0.459-0.082,0.9,0.222,0.984,0.682c0.083,0.46-0.221,0.9-0.682,0.984
						c-7.21,1.308-14.547,2.484-21.806,3.496C395.553,312.999,395.514,313.001,395.475,313.001z"/>
				</g>
				<g>
					<path style="fill:#D9E8FF;" d="M381.484,371.69c-0.429,0-0.797-0.324-0.841-0.76c-0.047-0.465,0.291-0.88,0.756-0.927
						c8.04-0.819,16.171-1.816,24.17-2.965c0.453-0.056,0.89,0.255,0.958,0.718c0.066,0.462-0.255,0.891-0.718,0.958
						c-8.021,1.151-16.176,2.152-24.239,2.973C381.541,371.689,381.512,371.69,381.484,371.69z"/>
				</g>
			</g>
			<g>
				<path style="fill:#D9E8FF;" d="M374.829,394.804c-0.081,0-0.163-0.011-0.245-0.036c-0.447-0.135-0.7-0.607-0.565-1.054
					c11.902-39.383,21.157-79.687,27.508-119.791c0.073-0.462,0.516-0.772,0.968-0.704c0.462,0.074,0.776,0.507,0.704,0.968
					c-6.363,40.18-15.635,80.559-27.561,120.016C375.528,394.569,375.192,394.804,374.829,394.804z"/>
			</g>
		</g>
	</g>
	<g>
		<g>
			<path style="fill:#FF7D9B;" d="M75.713,341.387c-0.999-3.841-5.702-7.12-10.424-8.701c-9.679-3.22-20.802-3.906-28.947-10.182
				c-8.004-6.169-10.972-15.695-7.858-23.649c4.486-11.351,18.346-14.248,31.04-12.948c1.625,0.172,3.36,0.409,4.787-0.224
				c1.833-0.814,2.554-2.817,2.625-4.67c0.386-12.053-2.608-24.953,3.299-36.106c6.58-12.305,22.072-16.445,34.78-11.759
				c9.103,3.382,14.76,10.558,18.146,19.451c2.231,5.869,1.417,23.301,9.876,25.509c1.396,0.361,2.881,0.096,4.269-0.257
				c12.591-3.186,23.457-6.258,32.832,5.042c7.976,9.484,6.314,23.15-5,30.311c-5.555,3.503-11.218,6.919-16.985,10.243
				c-3.681,2.122-5.46,5.92-4.377,9.602c3.423,11.508,15.952,4.705,24.152,2.614c8.841-2.184,18.078,2.806,23.446,8.209
				c14,13.915,3.434,29.532-12.452,40.002c-19.527,13.007-45.53,20.387-72.29,20.387c-22.2,0.381-58.936-5.236-69.591-23.43
				c-3.587-5.989-3.861-12.702-1.466-18.448c1.582-3.8,4.361-7.276,8.433-9.516c6.743-3.705,16.745-0.703,24.224-2.63
				c3.813-0.974,7.157-3.389,7.614-6.606C75.954,342.867,75.902,342.117,75.713,341.387z"/>
		</g>
		<g>
			<g>
				<g>
					<path style="fill:#D9E8FF;" d="M105.046,312.805c-0.335,0-0.652-0.199-0.785-0.53c-0.175-0.433,0.035-0.926,0.468-1.101
						c6.473-2.611,12.948-5.385,19.246-8.244c0.429-0.192,0.928-0.004,1.12,0.421c0.193,0.425,0.005,0.926-0.42,1.12
						c-6.32,2.869-12.818,5.652-19.313,8.272C105.259,312.786,105.151,312.805,105.046,312.805z"/>
				</g>
				<g>
					<path style="fill:#D9E8FF;" d="M119.202,371.448c-0.336,0-0.655-0.202-0.786-0.534c-0.172-0.435,0.04-0.926,0.475-1.099
						c7.011-2.779,14.047-5.737,20.911-8.792c0.428-0.188,0.928,0.002,1.117,0.429c0.19,0.427-0.002,0.927-0.429,1.118
						c-6.886,3.063-13.943,6.031-20.976,8.818C119.412,371.429,119.306,371.448,119.202,371.448z"/>
				</g>
			</g>
			<g>
				<g>
					<path style="fill:#D9E8FF;" d="M103.367,313.001c-0.039,0-0.078-0.002-0.118-0.008c-7.259-1.012-14.596-2.188-21.806-3.496
						c-0.46-0.084-0.765-0.524-0.681-0.984c0.083-0.46,0.527-0.766,0.983-0.682c7.187,1.304,14.501,2.477,21.737,3.486
						c0.463,0.065,0.785,0.491,0.721,0.955C104.145,312.695,103.782,313.001,103.367,313.001z"/>
				</g>
				<g>
					<path style="fill:#D9E8FF;" d="M117.357,371.69c-0.029,0-0.057-0.001-0.087-0.004c-8.061-0.821-16.217-1.822-24.239-2.973
						c-0.462-0.066-0.783-0.495-0.717-0.958c0.066-0.462,0.49-0.777,0.958-0.718c7.999,1.149,16.132,2.146,24.17,2.965
						c0.465,0.047,0.804,0.462,0.756,0.927C118.154,371.365,117.786,371.69,117.357,371.69z"/>
				</g>
			</g>
			<g>
				<path style="fill:#D9E8FF;" d="M124.012,394.804c-0.363,0-0.699-0.236-0.809-0.601c-11.926-39.462-21.199-79.841-27.56-120.016
					c-0.073-0.461,0.242-0.894,0.703-0.968c0.466-0.07,0.895,0.243,0.968,0.704c6.349,40.099,15.604,80.402,27.508,119.791
					c0.135,0.447-0.118,0.919-0.565,1.054C124.176,394.793,124.093,394.804,124.012,394.804z"/>
			</g>
		</g>
	</g>
	<g>
		<g>
			<g>
				<g>
					<path style="fill:#FFE866;" d="M235.212,281.065c0.528-5.677,2.6-26.564,7.38-32.366c5.911-7.174,9.452-16.37,9.426-26.392
						c-0.06-23.188-19.178-41.872-42.489-41.264c-22.235,0.58-40.201,18.974-40.281,41.216c-0.036,10.054,3.513,19.271,9.439,26.456
						c4.826,5.851,7.609,13.116,7.629,20.7l0.002,11.65C202.328,281.652,219.294,282.883,235.212,281.065z"/>
				</g>
				<g>
					<g>
						<path style="fill:#FFFFFF;" d="M204.674,266.012c-0.055,0-0.112-0.005-0.169-0.015c-0.532-0.093-0.888-0.598-0.796-1.131
							c0.394-2.261,0.633-4.535,0.717-6.806c-3.099-0.606-5.949-2.005-7.845-5.153c-0.762-1.264-1.606-3.219-1.297-5.352
							c0.311-2.143,1.856-3.937,3.759-4.364c2-0.45,4.29,0.634,5.574,2.633c1.079,1.679,1.393,3.666,1.572,5.566
							c0.157,1.652,0.232,3.316,0.227,4.982c1.311,0.14,2.741,0.185,4.299,0.17c0.003,0,0.006,0,0.008,0
							c0.536,0,0.973,0.432,0.978,0.97c0.005,0.54-0.429,0.981-0.97,0.986c-1.429,0.014-2.905-0.009-4.359-0.156
							c-0.094,2.29-0.34,4.582-0.737,6.861C205.554,265.677,205.141,266.012,204.674,266.012z M199.987,245.042
							c-0.172,0-0.343,0.018-0.514,0.056c-1.111,0.25-2.058,1.401-2.252,2.737c-0.226,1.562,0.439,3.071,1.036,4.063
							c1.424,2.364,3.493,3.582,6.205,4.167c-0.005-1.502-0.077-3.002-0.218-4.492c-0.156-1.652-0.418-3.364-1.271-4.691
							C202.347,245.907,201.174,245.042,199.987,245.042z"/>
					</g>
					<g>
						<path style="fill:#FFFFFF;" d="M217.175,267.816c-0.45,0-0.855-0.313-0.955-0.77c-0.623-2.877-1.005-5.779-1.141-8.681
							c-1.352,0.156-2.818,0.203-4.398,0.133c-0.54-0.023-0.958-0.479-0.935-1.019c0.023-0.539,0.482-0.982,1.019-0.934
							c1.547,0.069,2.967,0.019,4.258-0.143c-0.015-1.682,0.051-3.361,0.201-5.034c0.17-1.9,0.475-3.89,1.544-5.574
							c1.274-2.004,3.559-3.099,5.56-2.661c1.905,0.418,3.459,2.205,3.781,4.345c0.32,2.132-0.514,4.09-1.269,5.359
							c-1.596,2.68-4.216,4.422-7.819,5.208c0.122,2.871,0.492,5.742,1.11,8.588c0.114,0.528-0.221,1.048-0.749,1.163
							C217.313,267.809,217.243,267.816,217.175,267.816z M221.409,244.988c-1.192,0-2.366,0.872-2.99,1.854
							c-0.846,1.331-1.099,3.045-1.247,4.699c-0.133,1.497-0.198,3-0.195,4.504c2.864-0.705,4.935-2.112,6.184-4.21
							c0.592-0.994,1.249-2.507,1.015-4.068c-0.2-1.335-1.153-2.481-2.266-2.725C221.744,245.005,221.576,244.988,221.409,244.988z"
							/>
					</g>
				</g>
				<g>
					<g>
						<g>
							<path style="fill:#FFE866;" d="M277.943,273.984l-28.465-20.32l1.296-1.817c0.096-0.135,0.191-0.269,0.286-0.405l1.276-1.837
								l28.692,20.001l-1.274,1.831c-0.17,0.244-0.341,0.487-0.514,0.728L277.943,273.984z M134.401,259.469l-0.907-2.038
								c-0.117-0.264-0.233-0.53-0.348-0.795l-0.888-2.051l32.116-13.864l0.882,2.056c0.067,0.156,0.135,0.311,0.204,0.466
								l0.905,2.04L134.401,259.469z M294.32,233.028l-34.831-3.153l0.203-2.225c0.015-0.163,0.028-0.327,0.041-0.491l0.175-2.227
								l34.865,2.759l-0.175,2.225c-0.023,0.297-0.048,0.593-0.075,0.889L294.32,233.028z M161.304,219.953l-34.75-3.859
								l0.243-2.216c0.033-0.298,0.068-0.594,0.104-0.89l0.272-2.215l34.71,4.255L161.304,219.953z M257.313,207.331l-1.839-4.617
								l32.41-13.121l0.839,2.065c0.111,0.273,0.22,0.545,0.327,0.818l0.815,2.078L257.313,207.331z M169.692,195.56l-28.024-20.921
								l1.335-1.789c0.182-0.244,0.367-0.488,0.553-0.731l1.358-1.769l27.762,21.273l-1.364,1.773
								c-0.096,0.124-0.19,0.249-0.284,0.375L169.692,195.56z M242.862,185.921l-3.916-3.075l21.379-27.667l1.767,1.366
								c0.231,0.178,0.46,0.357,0.688,0.537l1.754,1.383L242.862,185.921z M189.272,178.7l-13.644-32.191l2.056-0.871
								c0.262-0.111,0.524-0.221,0.787-0.329l2.062-0.849l13.349,32.311L189.272,178.7z M219.635,174.719l-4.952-0.661l4.449-34.681
								l2.217,0.288c0.281,0.036,0.563,0.074,0.844,0.112l2.213,0.303L219.635,174.719z"/>
						</g>
					</g>
				</g>
			</g>
		</g>
		<g>
			<g>
				<g>
					<rect x="183.06" y="274.859" style="fill:#91A2FF;" width="55.431" height="29.294"/>
				</g>
				<g>
					<path style="fill:#FFFFFF;" d="M249.542,310.994h-77.533v-7.426c0-3.746,3.037-6.783,6.783-6.783h63.968
						c3.746,0,6.783,3.037,6.783,6.783V310.994z"/>
				</g>
			</g>
			<g>
				<rect x="138.665" y="310.35" style="fill:#FFFFFF;" width="228.982" height="92.619"/>
			</g>
		</g>
		<g>
			<g>
				<g>
					<path style="fill:#91A2FF;" d="M261.268,422.246c-39.918,0-79.859-1.917-119.442-5.747c-8.122-0.784-14.739-8.096-14.751-16.3
						c-0.01-6.857,4.62-12.381,11.259-13.433c0.73-0.118,1.421,0.384,1.538,1.117c0.116,0.733-0.384,1.421-1.118,1.538
						c-5.302,0.839-8.999,5.27-8.991,10.774c0.01,6.859,5.538,12.973,12.322,13.629c66.062,6.391,133.146,7.445,199.389,3.135
						c0.74-0.055,1.38,0.513,1.429,1.253c0.048,0.741-0.513,1.38-1.254,1.428C314.954,421.378,288.113,422.246,261.268,422.246z"/>
				</g>
			</g>
			<g>
				<g>
					<path style="fill:#91A2FF;" d="M282.603,443.93c-0.731,0-1.33-0.587-1.343-1.32c-0.013-0.742,0.579-1.354,1.321-1.367
						c34.56-0.599,69.521-2.678,103.91-6.181c5.316-0.541,9.633-5.336,9.624-10.688c-0.004-2.499-0.966-4.742-2.71-6.315
						c-1.766-1.593-4.128-2.329-6.674-2.071c-23.876,2.432-48.148,4.189-72.138,5.225c-0.723,0.035-1.368-0.543-1.401-1.285
						c-0.032-0.741,0.543-1.368,1.285-1.4c23.939-1.033,48.157-2.788,71.982-5.214c3.305-0.337,6.409,0.641,8.747,2.75
						c2.315,2.088,3.592,5.038,3.597,8.306c0.011,6.693-5.39,12.689-12.04,13.366c-34.465,3.51-69.501,5.594-104.136,6.195
						C282.618,443.93,282.611,443.93,282.603,443.93z"/>
				</g>
			</g>
			<g>
				<g>
					<g>
						<g>
							<path style="fill:#91A2FF;" d="M239.075,438.953c9.368,0.167,18.737,0.228,28.107,0.182c0.777-0.004,1.406-0.637,1.405-1.413
								c0-0.001,0-0.002,0-0.003c-0.002-0.776-0.632-1.401-1.409-1.397c-9.369,0.046-18.738-0.015-28.106-0.182
								c-0.777-0.014-1.406,0.603-1.405,1.379c0,0.001,0,0.002,0,0.003C237.668,438.298,238.299,438.939,239.075,438.953z"/>
						</g>
					</g>
					<g>
						<g>
							<path style="fill:#91A2FF;" d="M239.088,447.918c9.368,0.167,18.737,0.228,28.106,0.182c0.777-0.003,1.406-0.637,1.405-1.413
								c0-0.001,0-0.002,0-0.003c-0.001-0.776-0.632-1.401-1.409-1.397c-9.369,0.046-18.739-0.015-28.107-0.182
								c-0.777-0.014-1.406,0.603-1.405,1.379c0,0.001,0,0.002,0,0.003C237.681,447.263,238.312,447.904,239.088,447.918z"/>
						</g>
					</g>
				</g>
				<g>
					<g>
						<path style="fill:#0A2FFF;" d="M253.207,451.517c11.604,0.074,23.21-0.014,34.812-0.266
							c-0.009-5.977-0.017-11.953-0.026-17.93c-11.603,0.252-23.208,0.34-34.813,0.265
							C253.19,439.563,253.198,445.54,253.207,451.517z"/>
					</g>
				</g>
			</g>
		</g>
	</g>
	<g>
		<g>
			
				<rect x="346.674" y="350.207" transform="matrix(0.9776 -0.2103 0.2103 0.9776 -67.1483 82.1497)" style="fill:#EDF0FF;" width="11.905" height="13.088"/>
		</g>
		<g>
			<polygon style="fill:#0A2FFF;" points="379.027,360.734 380.02,365.349 349.787,371.853 348.184,364.401 359.822,361.897 			"/>
		</g>
		<g>
			<polygon style="fill:#0A2FFF;" points="343.577,356.802 361.16,353.019 347.529,286.804 327.859,283.741 			"/>
		</g>
		<g>
			<g>
				<polygon style="fill:#EDF0FF;" points="313.355,266.419 312.581,273.457 269.48,272.222 270.362,259.999 				"/>
			</g>
		</g>
		<g>
			
				<rect x="331.209" y="382.257" transform="matrix(1 -0.0058 0.0058 1 -2.238 1.9521)" style="fill:#EDF0FF;" width="11.905" height="13.088"/>
		</g>
		<g>
			<polygon style="fill:#001FD1;" points="362.188,398.103 362.215,402.822 331.291,403.001 331.247,395.379 343.152,395.31 			"/>
		</g>
		<g>
			<path style="fill:#001FD1;" d="M348.09,321.379l0.861-1.81c2.669-5.61,0.285-12.321-5.325-14.99l-60.652-30.64
				c-5.61-2.669-2.076,6.371-4.745,11.981l-0.861,1.811c-2.669,5.61-0.285,12.321,5.325,14.99l50.408,23.983
				C338.71,329.372,345.421,326.988,348.09,321.379z"/>
		</g>
		<g>
			<polygon style="fill:#001FD1;" points="327.471,384.575 345.453,384.924 350.045,315.463 327.073,310.801 			"/>
		</g>
		<g>
			<path style="fill:#0A2FFF;" d="M252.094,291.441h49.592c0,0,0-59.017,0-59.094c0-5.882-4.489-9.095-9.511-11.002
				c-2.597-0.986-5.312-1.615-7.98-2.368c-1.323-0.373-6.244-2.806-7.304-2.423c0,0-4.224,1.527-4.224,1.527
				c-3.661,1.324-7.328,2.421-11.076,3.476c-5.224,1.47-9.496,4.949-9.496,10.79V291.441z"/>
		</g>
		<g>
			<path style="fill:#0A2FFF;" d="M264.492,310.039h24.796c6.847,0,12.398-5.551,12.398-12.398v-6.199h-49.592v6.199
				C252.094,304.488,257.645,310.039,264.492,310.039z"/>
		</g>
		<g>
			<path style="fill:#0A2FFF;" d="M347.987,290.029l-0.221-1.993c-0.684-6.174-6.244-10.625-12.418-9.942l-83.255,13.347
				c0,0,17.146-0.959,17.83,5.216l0.221,1.993c0.684,6.174,14.888,11.924,21.062,11.24l46.839-7.443
				C344.22,301.763,348.671,296.203,347.987,290.029z"/>
		</g>
		<g>
			<g>
				<path style="fill:#EDF0FF;" d="M277.637,223.822L277.637,223.822c2.714,0.26,5.126-1.729,5.386-4.443l1.082-11.275l-9.83-0.943
					l-1.082,11.275C272.934,221.15,274.923,223.561,277.637,223.822z"/>
			</g>
			<g>
				<path style="fill:#91A2FF;" d="M274.535,204.455l9.83,0.943l-1.208,12.596c-4.316-1.142-8.252-4.819-8.709-9.169
					c-0.104-0.987-0.103-1.982-0.045-2.981L274.535,204.455z"/>
			</g>
			<g>
				<path style="fill:#EDF0FF;" d="M285.593,215.193c0.806-0.125,1.586-0.396,2.305-0.855c2.31-1.474,3.567-4.282,4.125-6.872
					c0.294-1.366,2.051-20.612,2.073-20.609c0,0-19.515-1.872-19.515-1.872c-0.338,3.524-0.676,7.048-1.014,10.572
					c-0.322,3.355-1.165,6.83-0.81,10.205C273.359,211.492,279.998,216.06,285.593,215.193z"/>
			</g>
			<g>
				<path style="fill:#91A2FF;" d="M287.309,205.023c-0.172,0-0.315-0.137-0.322-0.31l-0.039-1.089
					c-0.003-0.096,0.036-0.188,0.108-0.252c0.072-0.064,0.169-0.091,0.263-0.078l1.391,0.212l-1.644-4.802
					c-0.057-0.168,0.032-0.352,0.2-0.409c0.173-0.055,0.351,0.032,0.41,0.2l1.816,5.305c0.036,0.106,0.014,0.225-0.059,0.311
					c-0.071,0.087-0.182,0.131-0.295,0.112l-1.532-0.233l0.026,0.7c0.006,0.178-0.133,0.327-0.31,0.333
					C287.317,205.023,287.313,205.023,287.309,205.023z"/>
			</g>
		</g>
		<g>
			<g>
				<path style="fill:#EDF0FF;" d="M247.049,269.793l-1.099-0.387c-3.405-1.2-3.363-4.429-2.163-7.834l8.956-31.105
					c1.2-3.405,4.934-5.193,8.339-3.993l1.099,0.387c3.405,1.2,5.193,4.934,3.992,8.339l-12.528,29.846
					C252.446,268.452,250.455,270.994,247.049,269.793z"/>
			</g>
			<g>
				<polygon style="fill:#EDF0FF;" points="291.804,264.222 291.031,271.26 247.93,270.025 248.811,257.802 				"/>
			</g>
			<g>
				<path style="fill:#EDF0FF;" d="M288.883,267.492c-0.261,0.218,0.819,2.711,0.961,3.027c0.689,1.537,1.892,2.803,3.241,3.787
					c1.893,1.38,4.189,2.534,6.451,3.151c1.142,0.311,2.317,0.504,3.501,0.555c0.612,0.026,1.226,0.015,1.837-0.036
					c0.005-0.001,0.011-0.001,0.016-0.001c0.769-0.07,1.201-0.926,0.858-1.618c-0.168-0.339-0.305-0.63-0.354-0.714
					c-0.643-1.111-1.249-2.216-1.99-3.26c-2.216-3.118-7.43-7.418-11.599-8.16C289.258,266.169,291.43,265.544,288.883,267.492z"/>
			</g>
			<g>
				<path style="fill:#0A2FFF;" d="M266.246,225.567c2.583,4.798,2.45,10.69,0.848,15.899c-1.601,5.209-4.538,9.888-7.444,14.499
					c-5.206-0.901-10.432-1.781-15.695-2.24c2.051-6.764,4.522-13.913,7.146-20.476c0.998-2.498,2.086-5.052,4.008-6.933
					C257.953,223.534,262.593,223.994,266.246,225.567z"/>
			</g>
		</g>
		<g>
			<polygon style="fill:#FFFFFF;" points="318.158,243.352 309.655,277.575 291.462,279.033 291.462,279.882 291.462,281.488 
				308.481,282.302 355.064,277.243 364.146,240.25 			"/>
		</g>
		<g>
			<path style="fill:#91A2FF;" d="M287.356,206.551c-2.38,0-4.762-0.918-6.478-2.582c-0.127-0.124-0.13-0.328-0.007-0.455
				c0.124-0.129,0.326-0.132,0.456-0.007c2.116,2.053,5.324,2.887,8.17,2.122c0.175-0.048,0.349,0.056,0.395,0.228
				c0.046,0.172-0.056,0.348-0.228,0.395C288.91,206.453,288.133,206.551,287.356,206.551z"/>
		</g>
		<g>
			<path style="fill:#0A2FFF;" d="M273.89,191.792c-3.22-5.152-4.391-9.264,1.288-13.523c2.576-1.932,5.226-1.33,7.197-0.812
				c1.971,0.518,4.046,1.05,6.019,0.54c2.674-0.691,5.209-3.23,7.752-2.153c2.337,0.99,2.558,4.218,4.157,6.189
				c1.268,1.562,3.309,2.214,5.062,3.2c1.754,0.986,3.436,2.779,3.029,4.749c-0.38,1.842-2.496,2.878-4.373,2.755
				c-1.877-0.123-3.577-1.088-5.253-1.941c-1.676-0.853-3.521-1.635-5.381-1.352c-2.681,0.407-4.999,2.964-7.641,2.354
				c-1.354-0.312-2.42-1.353-3.718-1.846C278.398,188.572,274.897,190.539,273.89,191.792z"/>
		</g>
		<g>
			<path style="fill:#EDF0FF;" d="M344.11,259.83c0.172,1.834-1.771,3.517-4.339,3.757c-2.568,0.241-4.789-1.051-4.961-2.885
				c-0.172-1.834,1.77-3.517,4.339-3.757C341.716,256.704,343.938,257.996,344.11,259.83z"/>
		</g>
	</g>
	<g>
		<g>
			<path style="fill:#91A2FF;" d="M422.49,179.286h-85.078c-3.912,0-7.083-3.171-7.083-7.083v-47.365
				c0-3.912,3.171-7.083,7.083-7.083h85.078c3.912,0,7.083,3.171,7.083,7.083v47.365
				C429.574,176.115,426.402,179.286,422.49,179.286z"/>
		</g>
		<g>
			<rect x="339.063" y="125.694" style="fill:#FFFFFF;" width="25.009" height="3.176"/>
		</g>
		<g>
			<rect x="339.063" y="133.237" style="fill:#FFFFFF;" width="25.009" height="3.176"/>
		</g>
		<g>
			<rect x="397.816" y="172.141" style="fill:#FFFFFF;" width="25.009" height="3.176"/>
		</g>
		<g>
			<polygon style="fill:#FFFFFF;" points="338.068,174.698 335.92,172.359 355.948,153.963 362.498,160.594 373.312,152.93 
				395.545,152.143 397.665,147.019 400.932,145.746 404.802,142.296 421.396,122.263 423.841,124.289 407.004,144.587 
				402.618,148.497 400.081,149.486 397.7,155.245 374.374,156.071 362.134,164.745 355.841,158.374 			"/>
		</g>
	</g>
	<g>
		<g>
			<path style="fill:#91A2FF;" d="M151.411,149.928H68.875c-3.795,0-6.872-3.077-6.872-6.872v-45.95
				c0-3.795,3.077-6.872,6.872-6.872h82.536c3.795,0,6.872,3.076,6.872,6.872v45.95
				C158.282,146.851,155.206,149.928,151.411,149.928z"/>
		</g>
		<g>
			<rect x="82.764" y="108.246" style="fill:#FFFFFF;" width="5.284" height="34.613"/>
		</g>
		<g>
			<rect x="92.564" y="118.597" style="fill:#FFFFFF;" width="5.284" height="24.262"/>
		</g>
		<g>
			<rect x="102.364" y="127.032" style="fill:#FFFFFF;" width="5.284" height="15.828"/>
		</g>
		<g>
			<rect x="112.164" y="110.594" style="fill:#FFFFFF;" width="5.284" height="32.265"/>
		</g>
		<g>
			<rect x="121.964" y="102.081" style="fill:#FFFFFF;" width="5.284" height="40.778"/>
		</g>
		<g>
			<rect x="131.763" y="95.33" style="fill:#FFFFFF;" width="5.284" height="47.529"/>
		</g>
	</g>
	<g>
		<g>
			<rect x="155.407" y="324.555" style="fill:#BDC6FF;" width="144.884" height="62.234"/>
		</g>
		<g>
			<rect x="165.615" y="331.47" style="fill:#0A2FFF;" width="11.146" height="12.632"/>
		</g>
		<g>
			<rect x="165.615" y="344.35" style="fill:#001FD1;" width="11.146" height="12.632"/>
		</g>
		<g>
			<rect x="182.458" y="331.717" style="fill:#0A2FFF;" width="11.146" height="12.632"/>
		</g>
		<g>
			<rect x="182.458" y="344.597" style="fill:#001FD1;" width="11.146" height="12.632"/>
		</g>
		<g>
			<path style="fill:#0A2FFF;" d="M292.386,375.923c-0.095-24.385-19.891-44.124-44.298-44.124
				c-24.407,0-44.203,19.739-44.298,44.124H292.386z"/>
		</g>
		<g>
			<g>
				<g>
					<path style="fill:#FFFFFF;" d="M279.432,360.594c-0.286-0.522-0.591-1.047-0.907-1.561l2.245-1.379
						c0.338,0.551,0.666,1.114,0.973,1.675L279.432,360.594z M216.752,360.581l-2.31-1.267c0.309-0.563,0.636-1.126,0.972-1.672
						l2.243,1.381C217.345,359.531,217.04,360.055,216.752,360.581z M266.696,347.232c-0.509-0.311-1.034-0.615-1.562-0.902
						l1.26-2.313c0.566,0.308,1.13,0.634,1.676,0.968L266.696,347.232z M229.492,347.225l-1.374-2.248
						c0.549-0.336,1.114-0.661,1.679-0.969l1.258,2.314C230.529,346.609,230.003,346.913,229.492,347.225z M248.998,342.018
						c-0.302-0.008-0.612-0.014-0.909-0.011c-0.3,0-0.598,0.004-0.896,0.011l-0.064-2.634c0.326-0.008,0.648-0.011,0.979-0.012
						c0.319,0,0.638,0.004,0.956,0.012L248.998,342.018z"/>
				</g>
			</g>
		</g>
		<g>
			<path style="fill:#FFFFFF;" d="M252.575,378.099c-1.3,2.029-3.998,2.62-6.027,1.321c-2.029-1.3-2.62-3.998-1.321-6.027
				c1.3-2.029,3.998-2.62,6.027-1.321C253.284,373.371,253.875,376.07,252.575,378.099z"/>
		</g>
		<g>
			<path style="fill:#FFFFFF;" d="M248.117,376.97L248.117,376.97c-1.066-0.683-1.377-2.102-0.694-3.168l7.422-11.587
				c0.683-1.067,2.102-1.377,3.168-0.694l0,0c1.066,0.683,1.377,2.102,0.694,3.168l-7.422,11.587
				C250.602,377.343,249.183,377.654,248.117,376.97z"/>
		</g>
	</g>
	<g>
		<g>
			<g>
				<path style="fill:#91A2FF;" d="M310.125,21H189.984c-4.28,0-7.749,3.469-7.749,7.749v72.756c0,4.28,3.469,7.749,7.749,7.749
					h43.563h30.683h45.895c4.28,0,7.749-3.469,7.749-7.749V28.749C317.874,24.469,314.405,21,310.125,21z"/>
			</g>
			
				<text transform="matrix(1 0 0 1 205.2852 54.1802)" style="fill:#FFFFFF; font-family:'Montserrat-Black'; font-size:19.5913px;">Thinking</text>
			<rect x="194.541" y="64.758" style="fill:none;" width="112.468" height="33.554"/>
			<text transform="matrix(1 0 0 1 198.6406 70.291)"><tspan x="0" y="0" style="fill:#FFFFFF; font-family:'Montserrat-Light'; font-size:7.4565px;">Lorem ipsum dolor sit amet, </tspan><tspan x="1.186" y="11.185" style="fill:#FFFFFF; font-family:'Montserrat-Light'; font-size:7.4565px;">consectetuer adipiscing elit</tspan><tspan x="23.119" y="22.369" style="fill:#FFFFFF; font-family:'Montserrat-Light'; font-size:7.4565px;">sed diam lorem</tspan></text>
		</g>
		<g>
			<path style="fill:#91A2FF;" d="M307.858,139.263h-6.873c-5.219,0-9.451-4.231-9.451-9.451l0,0c0-5.219,4.231-9.451,9.451-9.451
				h6.873c5.219,0,9.451,4.231,9.451,9.451l0,0C317.309,135.031,313.077,139.263,307.858,139.263z"/>
		</g>
		<g>
			<path style="fill:#91A2FF;" d="M293.815,159.821h-3.535c-2.684,0-4.86-2.176-4.86-4.86l0,0c0-2.684,2.176-4.86,4.86-4.86h3.535
				c2.684,0,4.86,2.176,4.86,4.86l0,0C298.675,157.645,296.499,159.821,293.815,159.821z"/>
		</g>
	</g>
</g>
<g id="DESIGNED_BY_FREEPIK">
	<g>
		<g id="XMLID_1_">
			<g id="XMLID_20_">
				<g id="XMLID_28_">
					<g>
						<g>
							<g>
								<g>
									<g>
										<g>
											<g>
												<g>
													<g>
														<g>
															<g>
																<path style="fill:#A5B7C6;" d="M260.104,465.465c-0.432,0.443-0.803,0.931-1.108,1.453l-0.465-0.241
																	c-0.067-0.298-0.349-0.503-0.659-0.466c-0.331,0.039-0.568,0.339-0.529,0.67c0.039,0.331,0.339,0.568,0.67,0.529
																	c0.066-0.008,0.127-0.026,0.184-0.052l0.451,0.234c-0.251,0.554-0.433,1.139-0.539,1.744l0.746,0.132
																	c0.23-1.306,0.85-2.507,1.792-3.473L260.104,465.465z"/>
															</g>
														</g>
													</g>
												</g>
											</g>
										</g>
									</g>
								</g>
							</g>
						</g>
					</g>
				</g>
				<g id="XMLID_27_">
					<g>
						<g>
							<g>
								<g>
									<g>
										<g>
											<g>
												<g>
													<g>
														<g>
															<g>
																<path style="fill:#A5B7C6;" d="M265.592,463.163c-0.171,0-0.341,0.006-0.51,0.017l-0.074-0.626
																	c0.188-0.149,0.296-0.389,0.266-0.645c-0.046-0.393-0.402-0.674-0.795-0.628c-0.393,0.046-0.674,0.402-0.628,0.795
																	c0.03,0.254,0.189,0.461,0.404,0.564l0.074,0.624c-0.714,0.116-1.403,0.332-2.06,0.646l0.327,0.684
																	c0.934-0.447,1.942-0.673,2.995-0.673c0.496,0,0.993,0.053,1.475,0.158l0.161-0.741
																	C266.692,463.222,266.142,463.163,265.592,463.163z"/>
															</g>
														</g>
													</g>
												</g>
											</g>
										</g>
									</g>
								</g>
							</g>
						</g>
					</g>
				</g>
				<g id="XMLID_26_">
					<g>
						<g>
							<g>
								<g>
									<g>
										<g>
											<g>
												<g>
													<g>
														<g>
															<g>
																<path style="fill:#A5B7C6;" d="M272.194,465.711c0.331-0.04,0.566-0.341,0.526-0.672
																	c-0.04-0.331-0.341-0.566-0.672-0.526c-0.309,0.038-0.535,0.304-0.53,0.609l-0.416,0.363
																	c-0.418-0.43-0.889-0.813-1.408-1.139l-0.404,0.641c1.134,0.715,2.021,1.726,2.563,2.925l0.69-0.313
																	c-0.251-0.554-0.568-1.072-0.942-1.545l0.402-0.351C272.065,465.716,272.129,465.719,272.194,465.711z"/>
															</g>
														</g>
													</g>
												</g>
											</g>
										</g>
									</g>
								</g>
							</g>
						</g>
					</g>
				</g>
				<g id="XMLID_25_">
					<g>
						<g>
							<g>
								<g>
									<g>
										<g>
											<g>
												<g>
													<g>
														<g>
															<g>
																<path style="fill:#A5B7C6;" d="M265.044,473.372c-0.386,0.023-0.775,0.035-1.157,0.035
																	c-0.88,0-1.733-0.061-2.478-0.179c-0.39-0.062-0.846-0.155-1.27-0.292c1.046,1.861,3.069,3.125,5.388,3.125
																	c2.855,0,5.262-1.916,5.95-4.504c-0.682,0.449-1.505,0.825-2.459,1.123
																	C267.839,473.047,266.463,473.286,265.044,473.372z"/>
															</g>
														</g>
													</g>
												</g>
											</g>
										</g>
									</g>
								</g>
							</g>
						</g>
					</g>
				</g>
				<g id="XMLID_21_">
					<g>
						<g>
							<g>
								<g>
									<g>
										<g>
											<g>
												<g>
													<g>
														<g>
															<g>
																<path style="fill:#A5B7C6;" d="M265.592,464.68c-3.352,0-6.08,2.666-6.08,5.943c0,0.426,0.046,0.849,0.137,1.261
																	c0.673,0.483,2.706,0.89,5.348,0.731c2.879-0.173,5.297-0.957,6.672-2.159c-0.006-0.195-0.021-0.39-0.045-0.582
																	C271.244,466.913,268.65,464.68,265.592,464.68z M263.432,471.194c-1.02,0-1.85-0.83-1.85-1.85
																	c0-1.02,0.83-1.85,1.85-1.85c1.02,0,1.85,0.83,1.85,1.85C265.282,470.365,264.452,471.194,263.432,471.194z
																	 M268.17,470.286c-0.75,0-1.36-0.61-1.36-1.36s0.61-1.361,1.36-1.361c0.75,0,1.361,0.61,1.361,1.361
																	S268.92,470.286,268.17,470.286z"/>
															</g>
														</g>
													</g>
												</g>
											</g>
										</g>
									</g>
								</g>
							</g>
						</g>
					</g>
				</g>
			</g>
			<g id="XMLID_18_">
				<g>
					<g>
						<g>
							<g>
								<g>
									<g>
										<g>
											<g>
												<g>
													<g>
														<g>
															<path style="fill:#A5B7C6;" d="M281.595,466.547c-0.295-0.116-0.805-0.309-1.382-0.237
																c-0.551,0.069-0.844,0.341-0.844,1.007v0.866h2.228v1.717h-2.228v5.455h-1.932v-5.455h-1.34v-1.717h1.34v-0.888
																c0-1.68,0.896-2.783,2.568-2.783c0.643,0,1.157,0.122,1.59,0.308L281.595,466.547z"/>
														</g>
													</g>
												</g>
											</g>
										</g>
									</g>
								</g>
							</g>
						</g>
					</g>
				</g>
			</g>
			<g id="XMLID_16_">
				<g>
					<g>
						<g>
							<g>
								<g>
									<g>
										<g>
											<g>
												<g>
													<g>
														<g>
															<path style="fill:#A5B7C6;" d="M286.298,469.879c-0.177-0.03-0.358-0.046-0.526-0.046
																c-0.895,0-1.51,0.548-1.51,1.614v3.908h-1.932v-7.172h1.873v0.785c0.451-0.673,1.14-0.977,2.021-0.977
																c0.414,0,0.848,0.128,1.094,0.337L286.298,469.879z"/>
														</g>
													</g>
												</g>
											</g>
										</g>
									</g>
								</g>
							</g>
						</g>
					</g>
				</g>
			</g>
			<g id="XMLID_13_">
				<g>
					<g>
						<g>
							<g>
								<g>
									<g>
										<g>
											<g>
												<g>
													<g>
														<g>
															<path style="fill:#A5B7C6;" d="M293.965,471.757c0,0.222-0.015,0.489-0.037,0.651h-5.085
																c0.207,1.036,0.933,1.488,1.843,1.488c0.622,0,1.295-0.252,1.813-0.688l1.133,1.243
																c-0.814,0.748-1.85,1.088-3.057,1.088c-2.198,0-3.723-1.495-3.723-3.753c0-2.258,1.48-3.797,3.627-3.797
																C292.544,467.99,293.958,469.522,293.965,471.757z M288.851,471.091h3.175c-0.177-0.918-0.733-1.436-1.562-1.436
																C289.554,469.655,289.021,470.203,288.851,471.091z"/>
														</g>
													</g>
												</g>
											</g>
										</g>
									</g>
								</g>
							</g>
						</g>
					</g>
				</g>
			</g>
			<g id="XMLID_10_">
				<g>
					<g>
						<g>
							<g>
								<g>
									<g>
										<g>
											<g>
												<g>
													<g>
														<g>
															<path style="fill:#A5B7C6;" d="M301.618,471.757c0,0.222-0.015,0.489-0.037,0.651h-5.085
																c0.207,1.036,0.932,1.488,1.843,1.488c0.622,0,1.295-0.252,1.814-0.688l1.132,1.243
																c-0.814,0.748-1.85,1.088-3.057,1.088c-2.198,0-3.723-1.495-3.723-3.753c0-2.258,1.48-3.797,3.627-3.797
																C300.197,467.99,301.611,469.522,301.618,471.757z M296.504,471.091h3.175c-0.178-0.918-0.733-1.436-1.562-1.436
																C297.207,469.655,296.674,470.203,296.504,471.091z"/>
														</g>
													</g>
												</g>
											</g>
										</g>
									</g>
								</g>
							</g>
						</g>
					</g>
				</g>
			</g>
			<g id="XMLID_7_">
				<g>
					<g>
						<g>
							<g>
								<g>
									<g>
										<g>
											<g>
												<g>
													<g>
														<g>
															<path style="fill:#A5B7C6;" d="M309.964,471.764c0,2.154-1.495,3.775-3.471,3.775c-0.962,0-1.643-0.378-2.109-0.933
																v3.708h-1.924v-10.133h1.887v0.792c0.466-0.585,1.155-0.984,2.139-0.984
																C308.469,467.99,309.964,469.61,309.964,471.764z M304.287,471.764c0,1.132,0.747,1.976,1.843,1.976
																c1.14,0,1.85-0.881,1.85-1.976c0-1.095-0.711-1.976-1.85-1.976C305.035,469.788,304.287,470.632,304.287,471.764z"/>
														</g>
													</g>
												</g>
											</g>
										</g>
									</g>
								</g>
							</g>
						</g>
					</g>
				</g>
			</g>
			<g id="XMLID_4_">
				<g>
					<g>
						<g>
							<g>
								<g>
									<g>
										<g>
											<g>
												<g>
													<g>
														<g>
															<path style="fill:#A5B7C6;" d="M313.067,465.836c0,0.696-0.54,1.229-1.236,1.229c-0.696,0-1.229-0.533-1.229-1.229
																c0-0.696,0.533-1.243,1.229-1.243C312.527,464.592,313.067,465.14,313.067,465.836z M312.809,475.354h-1.932v-7.172
																h1.932V475.354z"/>
														</g>
													</g>
												</g>
											</g>
										</g>
									</g>
								</g>
							</g>
						</g>
					</g>
				</g>
			</g>
			<g id="XMLID_2_">
				<g>
					<g>
						<g>
							<g>
								<g>
									<g>
										<g>
											<g>
												<g>
													<g>
														<g>
															<path style="fill:#A5B7C6;" d="M316.032,470.736l2.702-2.554h2.368l-3.479,3.375l3.501,3.797h-2.376l-2.716-2.901
																v2.901H314.1v-10.658h1.932V470.736z"/>
														</g>
													</g>
												</g>
											</g>
										</g>
									</g>
								</g>
							</g>
						</g>
					</g>
				</g>
			</g>
		</g>
		<g>
			<g>
				<g>
					<g>
						<g>
							<g>
								<g>
									<g>
										<g>
											<g>
												<g>
													<g>
														<g>
															<path style="fill:#A5B7C6;" d="M184.412,475.289v-1.055c-0.527,0.718-1.391,1.23-2.387,1.23
																c-1.846,0-3.149-1.406-3.149-3.706c0-2.256,1.289-3.721,3.149-3.721c0.952,0,1.816,0.469,2.387,1.245v-3.765h1.099
																v9.77H184.412z M184.412,473.37v-3.208c-0.395-0.615-1.245-1.143-2.124-1.143c-1.421,0-2.27,1.172-2.27,2.739
																c0,1.567,0.85,2.724,2.27,2.724C183.168,474.483,184.017,473.986,184.412,473.37z"/>
														</g>
													</g>
												</g>
											</g>
										</g>
									</g>
								</g>
							</g>
						</g>
					</g>
				</g>
			</g>
			<g>
				<g>
					<g>
						<g>
							<g>
								<g>
									<g>
										<g>
											<g>
												<g>
													<g>
														<g>
															<path style="fill:#A5B7C6;" d="M186.932,471.744c0-2.051,1.465-3.706,3.486-3.706c2.139,0,3.398,1.67,3.398,3.794
																v0.279h-5.727c0.088,1.333,1.025,2.446,2.549,2.446c0.805,0,1.626-0.322,2.182-0.894l0.527,0.718
																c-0.703,0.703-1.655,1.084-2.812,1.084C188.44,475.465,186.932,473.956,186.932,471.744z M190.403,468.947
																c-1.509,0-2.256,1.274-2.314,2.358h4.643C192.718,470.25,192.015,468.947,190.403,468.947z"/>
														</g>
													</g>
												</g>
											</g>
										</g>
									</g>
								</g>
							</g>
						</g>
					</g>
				</g>
			</g>
			<g>
				<g>
					<g>
						<g>
							<g>
								<g>
									<g>
										<g>
											<g>
												<g>
													<g>
														<g>
															<path style="fill:#A5B7C6;" d="M194.607,474.351l0.571-0.791c0.469,0.542,1.362,1.011,2.329,1.011
																c1.084,0,1.67-0.513,1.67-1.216c0-1.714-4.38-0.659-4.38-3.281c0-1.098,0.952-2.036,2.636-2.036
																c1.201,0,2.051,0.454,2.622,1.026l-0.513,0.762c-0.424-0.513-1.201-0.894-2.109-0.894
																c-0.967,0-1.567,0.483-1.567,1.113c0,1.552,4.38,0.527,4.38,3.281c0,1.187-0.952,2.138-2.783,2.138
																C196.306,475.465,195.325,475.113,194.607,474.351z"/>
														</g>
													</g>
												</g>
											</g>
										</g>
									</g>
								</g>
							</g>
						</g>
					</g>
				</g>
			</g>
			<g>
				<g>
					<g>
						<g>
							<g>
								<g>
									<g>
										<g>
											<g>
												<g>
													<g>
														<g>
															<path style="fill:#A5B7C6;" d="M201.477,466.471c0-0.41,0.337-0.747,0.732-0.747c0.41,0,0.747,0.337,0.747,0.747
																c0,0.41-0.337,0.732-0.747,0.732C201.814,467.203,201.477,466.881,201.477,466.471z M201.667,475.289v-7.075h1.099
																v7.075H201.667z"/>
														</g>
													</g>
												</g>
											</g>
										</g>
									</g>
								</g>
							</g>
						</g>
					</g>
				</g>
			</g>
			<g>
				<g>
					<g>
						<g>
							<g>
								<g>
									<g>
										<g>
											<g>
												<g>
													<g>
														<g>
															<path style="fill:#A5B7C6;" d="M204.582,477.105l0.556-0.82c0.586,0.703,1.289,0.967,2.3,0.967
																c1.172,0,2.27-0.571,2.27-2.124v-1.011c-0.513,0.718-1.377,1.26-2.373,1.26c-1.845,0-3.149-1.377-3.149-3.662
																c0-2.27,1.289-3.677,3.149-3.677c0.952,0,1.802,0.469,2.373,1.245v-1.069h1.098v6.87
																c0,2.344-1.641,3.076-3.369,3.076C206.237,478.16,205.417,477.926,204.582,477.105z M209.709,473.253v-3.091
																c-0.381-0.615-1.23-1.143-2.109-1.143c-1.421,0-2.27,1.128-2.27,2.695c0,1.553,0.849,2.695,2.27,2.695
																C208.478,474.41,209.328,473.868,209.709,473.253z"/>
														</g>
													</g>
												</g>
											</g>
										</g>
									</g>
								</g>
							</g>
						</g>
					</g>
				</g>
			</g>
			<g>
				<g>
					<g>
						<g>
							<g>
								<g>
									<g>
										<g>
											<g>
												<g>
													<g>
														<g>
															<path style="fill:#A5B7C6;" d="M217.413,475.289v-4.629c0-1.245-0.63-1.641-1.582-1.641
																c-0.865,0-1.685,0.527-2.095,1.099v5.17h-1.099v-7.075h1.099v1.025c0.498-0.586,1.465-1.201,2.519-1.201
																c1.48,0,2.256,0.747,2.256,2.285v4.966H217.413z"/>
														</g>
													</g>
												</g>
											</g>
										</g>
									</g>
								</g>
							</g>
						</g>
					</g>
				</g>
			</g>
			<g>
				<g>
					<g>
						<g>
							<g>
								<g>
									<g>
										<g>
											<g>
												<g>
													<g>
														<g>
															<path style="fill:#A5B7C6;" d="M219.932,471.744c0-2.051,1.465-3.706,3.486-3.706c2.139,0,3.398,1.67,3.398,3.794
																v0.279h-5.727c0.088,1.333,1.025,2.446,2.549,2.446c0.806,0,1.626-0.322,2.183-0.894l0.527,0.718
																c-0.703,0.703-1.655,1.084-2.812,1.084C221.441,475.465,219.932,473.956,219.932,471.744z M223.404,468.947
																c-1.509,0-2.256,1.274-2.314,2.358h4.643C225.718,470.25,225.015,468.947,223.404,468.947z"/>
														</g>
													</g>
												</g>
											</g>
										</g>
									</g>
								</g>
							</g>
						</g>
					</g>
				</g>
			</g>
			<g>
				<g>
					<g>
						<g>
							<g>
								<g>
									<g>
										<g>
											<g>
												<g>
													<g>
														<g>
															<path style="fill:#A5B7C6;" d="M233.35,475.289v-1.055c-0.527,0.718-1.392,1.23-2.388,1.23
																c-1.846,0-3.149-1.406-3.149-3.706c0-2.256,1.289-3.721,3.149-3.721c0.952,0,1.817,0.469,2.388,1.245v-3.765h1.098
																v9.77H233.35z M233.35,473.37v-3.208c-0.396-0.615-1.245-1.143-2.124-1.143c-1.421,0-2.27,1.172-2.27,2.739
																c0,1.567,0.849,2.724,2.27,2.724C232.105,474.483,232.954,473.986,233.35,473.37z"/>
														</g>
													</g>
												</g>
											</g>
										</g>
									</g>
								</g>
							</g>
						</g>
					</g>
				</g>
			</g>
			<g>
				<g>
					<g>
						<g>
							<g>
								<g>
									<g>
										<g>
											<g>
												<g>
													<g>
														<g>
															<path style="fill:#A5B7C6;" d="M239.692,475.289v-9.77h1.098v3.765c0.572-0.776,1.421-1.245,2.388-1.245
																c1.845,0,3.149,1.465,3.149,3.721c0,2.299-1.304,3.706-3.149,3.706c-0.996,0-1.86-0.513-2.388-1.23v1.055H239.692z
																 M242.9,474.483c1.436,0,2.285-1.157,2.285-2.724c0-1.568-0.85-2.739-2.285-2.739c-0.864,0-1.728,0.527-2.109,1.143
																v3.208C241.171,473.986,242.036,474.483,242.9,474.483z"/>
														</g>
													</g>
												</g>
											</g>
										</g>
									</g>
								</g>
							</g>
						</g>
					</g>
				</g>
			</g>
			<g>
				<g>
					<g>
						<g>
							<g>
								<g>
									<g>
										<g>
											<g>
												<g>
													<g>
														<g>
															<path style="fill:#A5B7C6;" d="M247.528,477.061c0.161,0.073,0.425,0.117,0.601,0.117
																c0.483,0,0.805-0.161,1.055-0.747l0.469-1.069l-2.959-7.148h1.187l2.358,5.8l2.344-5.8h1.201l-3.545,8.51
																c-0.425,1.025-1.143,1.421-2.08,1.435c-0.234,0-0.601-0.044-0.806-0.103L247.528,477.061z"/>
														</g>
													</g>
												</g>
											</g>
										</g>
									</g>
								</g>
							</g>
						</g>
					</g>
				</g>
			</g>
		</g>
	</g>
</g>
</svg>
